<?xml version="1.0" encoding="UTF-8"?>
<svg id="Layer_1" data-name="Layer 1" xmlns="http://www.w3.org/2000/svg" viewBox="0 0 100 100">
  <defs>
    <style>
      .cls-1 {
        fill: #fa7206;
      }

      .cls-1, .cls-2, .cls-3, .cls-4, .cls-5, .cls-6, .cls-7, .cls-8, .cls-9, .cls-10, .cls-11, .cls-12, .cls-13, .cls-14, .cls-15, .cls-16 {
        stroke-width: 0px;
      }

      .cls-2 {
        fill: #07273a;
      }

      .cls-3 {
        fill: #072539;
      }

      .cls-4 {
        fill: #02283f;
      }

      .cls-5 {
        fill: #fece0b;
      }

      .cls-6 {
        fill: #fdfdfd;
      }

      .cls-7 {
        fill: #feb602;
      }

      .cls-8 {
        fill: #fead01;
      }

      .cls-9 {
        fill: #fe9e03;
      }

      .cls-10 {
        fill: #f17a2a;
      }

      .cls-11 {
        fill: #fd6006;
      }

      .cls-12 {
        fill: #fefef6;
      }

      .cls-13 {
        fill: #fbbe09;
      }

      .cls-14 {
        fill: #fe8f01;
      }

      .cls-15 {
        fill: #022942;
      }

      .cls-16 {
        fill: #03283e;
      }
    </style>
  </defs>
  <path class="cls-6" d="M.01,49.93C.01,33.47.02,17.01,0,.55,0,.09.09,0,.55,0c32.97.01,65.94.01,98.91,0,.46,0,.55.09.55.55-.01,32.97-.01,65.94,0,98.91,0,.46-.09.55-.55.55-32.97-.01-65.94-.01-98.91,0-.46,0-.55-.09-.55-.55.02-16.51.01-33.01.01-49.52ZM92.89,51.45s.06-.06.09-.09l.04-.04c.08-.12.17-.25.25-.37,0,0,.02-.04.02-.04.51-.94.36-1.81-.28-2.63l-.03-.03s-.06-.07-.09-.1c0-.04-.02-.05-.06-.05l-.1-.09h-.01c-.33-.16-.66-.31-1-.46-1.69-.08-3.39-.26-5.07.1-.53,0-1.06,0-1.59,0-.54-.32-1.58.5-1.7-.47-.21-1.72-.48-3.43-.83-5.12-.46-2.23-.71-2.39-2.05-1.43-.04,0-.06,0-.07.04-4.21,2.64-8.47,5.19-13.05,7.16-.27.16-.54.31-.81.47-.09.04-.18.08-.27.12-.08.02-.17.04-.25.06-1.2.09-.52.9-.54,1.44-.15,3.47-.94,6.77-2.74,9.78-.36.54-.72,1.08-1.09,1.62-.03.04-.06.07-.09.11-.57.64-1.13,1.29-1.7,1.93-.04.04-.08.07-.12.11-.24.2-.47.41-.71.61h0c-1.32,1.03-2.71,1.96-4.25,2.65-.04-.02-.06,0-.08.03-.2.08-.39.15-.59.23-4.41,1.73-8.83,1.66-13.26.09-.09-.04-.18-.08-.27-.12-.12-.06-.25-.12-.37-.18h.01c-.1-.04-.2-.08-.29-.13-1.26-.75-2.88-1.44-3.92-2.47-.7-.69-1.17-1.73-2.29-1.75-1.45-.03-3.09,1.46-4.23,2.23-1.42.95-2.76,2-4.07,3.11-2.83,2.41-5.57,4.8-8.77,6.72-.95.57-7.66,4.34-7.64,1.91.01-.06.03-.11.04-.17.04-.12.07-.24.11-.36.72-1.42,1.78-2.59,2.88-3.69,2.27-2.26,4.83-4.18,7.39-6.11.06-.04.12-.09.18-.13,0,0,0,.01,0,.01.08-.06.16-.12.24-.19.04-.02.08-.05.12-.07.09-.07.17-.14.26-.2l.12-.07c.09-.07.18-.13.27-.2.05-.03.1-.06.14-.09.06-.04.12-.07.18-.11h0c.15-.11.31-.22.46-.33h0c.27-.17.54-.35.81-.52h0c.36-.22.71-.44,1.07-.67h0c.19-.11.38-.23.58-.35l-.04-.03.03.04c.17-.11.34-.21.5-.32,0,0,0,0,0,0,.59-.33,1.18-.66,1.77-.99l.05-.03c.3-.16.59-.32.89-.48h0s.05,0,.05,0c0,0,.03-.04.03-.04,1.21-.59,2.39-1.25,3.65-1.73.9-.34,1.02-.6.52-1.48-1.87-3.28-2.07-6.91-1.92-10.58.05-.14.13-.28.15-.42.71-4.2,2.91-7.6,6-10.37,2.46-2.21,5.44-3.58,8.7-4.27.18.01.36.02.4-.23l.04.02s.03-.03.03-.03c1.96-.18,3.92-.26,5.86.24.04,0,.09.01.13.02.35.08.71.16,1.06.24,3.18.94,6.02,2.48,8.37,4.84h0c.1.1.2.2.29.3,0,.04.02.07.07.07.34.38.68.76,1.02,1.14l.03.04c.21.3.42.59.63.89l.03.05c.19.29.37.57.56.86h0c.05.08.11.17.16.25h0c.87,1.67,1.33,4.65,3.68,2.75.03,0,.06,0,.07-.03.28-.13.57-.26.85-.39l.05-.02c.29-.14.58-.29.88-.43h0c.18-.08.36-.18.54-.27,0,0,0,0,0,0l1.49-.74s.07-.01.08-.06c0,0,0,0,0,0,.18-.1.35-.2.53-.31.14-.08.29-.16.43-.24,0,0,0,0,0,0,.22-.13.45-.27.67-.4h0c.23-.12.46-.25.69-.38,0,0,0,0,0,0,.08-.06.17-.11.25-.17h0c.14-.08.28-.17.42-.26h-.01c.08-.05.17-.1.25-.16,4.75-2.93,8.95-6.5,12.59-10.72.36-.42.64-.52,1.17-.31,1.96.8,3.96.76,5.95.12,3.94-1.25,6.41-5.07,6.1-9.38-.29-4.01-3.38-7.37-7.44-8.07-3.94-.68-8.2,1.49-9.71,4.94-.59,1.56-.73,3.14-2.2,4.07-1.86,1.17-3.75,2.17-5.43,3.63,0,0,0,0,0,0-.35.27-.7.55-1.05.82-2.67,2.43-5.33,4.87-8,7.3-.04,0-.08.01-.12.02.13-1.63-.06-3.17-1.33-4.38.05-.09.09-.18.14-.28h0c.14-.13.27-.26.41-.39,2-1.8,3.73-3.89,5.26-6.11,1.2-1.73,3.52-4.42,3.62-6.57.12-2.44-2.7-3.48-4.3-1.77-.77.83-3.46,6.88-4.54,6.17-.34-.19-.67-.39-1.01-.58-.01-.03-.03-.04-.06-.03-.05-.02-.11-.04-.16-.06h.01c-.09-.04-.18-.09-.28-.14h.01c-.12-.05-.23-.11-.35-.17l-.04-.02c-.08-.04-.16-.08-.23-.11h-.03c-.19-.08-.38-.14-.57-.21,0,0,0,0,0,0-.08-.06-.17-.11-.25-.17h.01c-.23-.07-.46-.15-.69-.24h0c-.22-.09-.45-.18-.67-.27,0,0,0,0,0,0-.05-.04-.1-.07-.15-.11-.13-.02-.26-.04-.39-.05-.32-.12-.63-.24-.95-.35-.22-.09-.44-.17-.67-.26-.35-.09-.71-.19-1.06-.28-.09-.04-.18-.08-.27-.12-.42-.12-.83-.24-1.25-.36h-.06s.06,0,.06,0c-1.9-.76-3.93-.86-5.93-1.13h0c-.03-2.66-.07-5.33-.1-7.99-.02-.08-.04-.16-.06-.25-.24-1.03-.89-1.67-1.92-1.8-.98-.13-1.8.23-2.31,1.14-.36.46-.41,1.01-.41,1.56,0,2.45,0,4.9-.01,7.35-.39.05-.79.09-1.18.14-4.08.46-7.95,1.61-11.61,3.44h.01c-.1.04-.2.09-.3.14-.57.28-1.21.47-1.71.85-.65.5-.92.31-1.27-.32-.97-1.74-1.97-3.47-3-5.17-.92-1.53-2.15-1.91-3.44-1.13-1.31.78-1.62,2.23-.77,3.69,1.09,1.88,2.2,3.74,3.31,5.6.14.24.27.41-.07.64-2.97,2.08-5.46,4.65-7.58,7.58-.3.42-.53.44-.97.21-1.81-.93-3.62-1.86-5.47-2.73-1.28-.6-2.69-.07-3.22,1.19-.58,1.36-.18,2.44,1.15,3.11,1.76.89,3.53,1.75,5.32,2.58.51.24.55.46.3.93-1.87,3.57-2.73,7.42-3,11.41-.04.64-.2.78-.82.79-2.59.02-5.17.1-7.76.16-.23.11-.47.22-.7.33-.03,0-.05.01-.06.05-.06.06-.12.12-.19.18l-.11.12c-.1.13-.2.26-.3.39l.03.04-.03-.04c-.61.99-.48,1.89.29,2.73.09.08.17.16.26.24.09.06.17.12.26.18,0,0,0,0,0,0,.35.12.7.34,1.04.34,2.64.02,5.28,0,7.92-.01.46,2.76.8,5.54,1.72,8.2.2.58.33.66.86.28,2.47-1.75,5.07-3.32,7.79-4.64,1.59-.78,3.12-1.75,4.91-2.06,0,0,0,0,0,0,.04,1.06.42,2.03.81,2.99.2.5.17.74-.39.98-2.4,1.04-4.64,2.35-6.83,3.77,0,0-.03.02-.03.02-.07.06-.15.11-.22.17l.04.03-.04-.03c-.27.18-.53.36-.8.54,0,0,0,0,0,0-.05.03-.1.06-.16.08,0,0-.04.03-.04.03-.33.24-.67.48-1,.72-.05,0-.08,0-.11.05-.15.11-.29.22-.44.32h0c-.1.06-.19.13-.29.2-.03,0-.04.01-.05.04-.07.06-.13.11-.2.17h0c-.1.06-.19.13-.29.2l-.05.04c-.34.26-.68.51-1.02.77,0,0-.03.02-.03.02-.07.06-.14.12-.21.18,0,0,.01,0,.01,0-.06.04-.11.08-.17.12,0,0,0-.01,0-.01-.05.04-.1.07-.16.11,0,0-.01.01-.01.01-.12.1-.24.2-.35.31h0c-.26.01-.38.16-.4.41-.04,0-.08,0-.11.02-.62.53-1.25,1.05-1.87,1.58-.18.17-.36.33-.54.5l-.16.16c-2.42,2.23-5.42,5.01-6.02,8.42-.72,4.1,3.56,3.72,6.21,3.19.04,0,.09-.02.13-.03,2.44-.65,4.67-1.77,6.82-3.07h.05s.03-.04.03-.04c.15-.1.3-.21.46-.31,0,0,0,0,0,0,.54-.36,1.08-.72,1.61-1.08.04-.02.07-.04.11-.07.67-.51,1.35-1.02,2.02-1.53.04-.02.07-.05.11-.07,1.46-1.22,2.93-2.45,4.39-3.67.09-.08.18-.15.27-.23.06-.04.11-.09.17-.13,0,0,0,0,0,0,.05-.03.09-.06.14-.09l.03-.03c.07-.06.13-.12.2-.19h0c.14-.1.28-.21.43-.32.03-.03.06-.06.09-.08.08,0,.16,0,.24-.01l.04.14c-.03.15-.06.29-.09.44-.04.11-.07.22-.11.34l-.02,1.08c.03.68.17,1.33.57,1.9,0,.04,0,.08.04.1.03.05.06.1.09.15,0,0,0-.01,0-.01.1.19.21.39.31.58-.29.3-.58.59-.88.89-.05,0-.07.02-.07.07-.16.19-.32.38-.48.57-.03.03-.05.07-.08.1-.05.06-.1.11-.15.17-.71.84-1.41,1.67-2.12,2.51h0c-.05.06-.09.12-.14.17-.17.22-.34.44-.51.65l-.15.25h0c-1.41,1.77-3.08,3.99-3.84,6.15-.77,2.2,1.55,4.29,3.59,2.9.2-.19.47-.34.6-.56,1.14-1.93,2.25-3.87,3.37-5.81.05-.13.11-.25.16-.38.08-.1.16-.19.24-.29h0c.09-.02.18-.03.27-.04.04.02.08.05.12.07.26.14.52.27.78.41,0,0,0,0,0,0,.05.02.11.04.16.06.1.06.2.12.29.17.22.13.43.26.65.39l.04.03h.05c.46.21.91.43,1.37.64l.03.03h.05c1.13.51,2.22,1.14,3.5,1.22.04.03.09.06.13.09,2.59,1.12,5.36,1.43,8.12,1.75,0,0,0,0,0,0,0,2.43.02,4.86.03,7.28,0,.6.23,1.09.66,1.49h0c.71.85,1.58,1.01,2.58.62h.04s.03-.03.03-.03c.18-.11.37-.23.55-.34.13-.13.27-.27.4-.4.06-.08.12-.16.17-.24h0c.12-.18.38-.34.12-.6.34-1.2-.71-8.03.91-7.96.35-.04.71-.09,1.06-.13.09,0,.18,0,.27,0,.22,0,.44,0,.67,0,1.53-.26,3.07-.49,4.54-1.03.26-.06.52-.12.78-.18,1.95-.56,3.84-1.27,5.64-2.23.04-.01.08-.03.12-.04.61-.34,1.23-.68,1.84-1.02l.02.03h.04c1.22,2.1,2.34,5.07,4.05,6.81,1.27,1.3,3.77.46,4.1-1.36.33-1.84-2.15-4.84-3.06-6.34-.45-.74-1.06-1.37-.62-2.21.48-.91,1.98-1.88,2.74-2.63.07-.09.15-.17.22-.26.55-.61,1.1-1.22,1.64-1.83l-.03-.03.04.03c.31-.39.62-.78.93-1.18v-.02c.42-.54.82-1.08,1.23-1.63,0-.1,0-.19,0-.29h0s.08.06.12.1c.04-.06.08-.11.13-.17h0c.04-.07.08-.13.12-.19.02-.04.05-.09.07-.13.07-.1.14-.19.22-.29.15-.22.3-.44.45-.65,1.89.86,3.76,1.73,5.66,2.57,1.37.61,2.55.34,3.28-1.02.71-1.33.15-2.71-1.29-3.41-1.59-.77-3.19-1.53-4.8-2.27-.43-.2-.53-.39-.32-.85,1.27-2.79,2.16-5.7,2.54-8.75.23-2.29.13-3.18,2.65-3.05,1.3.07,2.59.03,3.88,0,.85-.02,2.11.21,2.85-.33.13-.09.25-.18.38-.27l.02-.02.11-.1.04-.04ZM59.29,59.03c.03-.06.06-.12.09-.18,1-1.26,1.83-2.6,2.06-4.23.24,0,.19-.17.19-.31.06-.22.12-.43.18-.65.03-.14.06-.28.1-.41.05-.26.11-.53.16-.79.02-.18.05-.37.07-.55,0-.13.01-.25.02-.38,0-.09.01-.18.02-.28.16-1.07.11-2.14-.11-3.2-.19-2.21-.92-4.22-2.29-5.98-.02-.09-.05-.18-.07-.27-.07-.09-.13-.18-.2-.27-.07-.09-.14-.19-.22-.28-2.09-2.86-4.87-4.67-8.3-5.51-.09-.02-.19-.03-.28-.05-.22-.04-.44-.09-.65-.13l-.02-.03h-.04s0-.01,0-.01v.02c-3.99-.7-7.67.03-10.99,2.43-1.75,1.18-3.2,2.65-4.23,4.51-.36.71-.72,1.42-1.08,2.13-.61,1.17-.87,2.43-1.02,3.73-.24,2.35-.08,4.64.84,6.84v.04s.02.03.02.03c.13.28.26.57.39.85.67,1.66,1.6,3.15,2.94,4.37,4.94,6.21,16.52,6.02,21.54-.35,0,0,0,0,0,0,.24-.29.48-.57.73-.86,0,0,0,0,0,0,.06-.08.12-.17.18-.25l-.02.02ZM80.74,82.44c4.45-.06,4.35-6.6,0-6.61-4.43-.01-4.61,6.67,0,6.61ZM15.75,19.73c.02-3.23-4.99-3.22-4.98.01,0,3.14,4.97,3.09,4.98-.01ZM5.26,62.22c2.13-.31,2.16-3.4-.05-3.43-2.26-.03-2.12,3.22.05,3.43ZM5.16,40.96c2.33-.21,2.2-3.67-.18-3.39-2.08.24-1.79,3.17.18,3.39ZM63.22,89.44c-.32-2.28-3.65-2.12-3.36.25.27,2.21,3.11,1.72,3.36-.25ZM31.95,11.24c.25,1.99,3.07,2.52,3.3.27.24-2.33-3.05-2.54-3.3-.27ZM59.87,11.24c.12,2.04,3,2.41,3.3.29.33-2.35-3.04-2.58-3.3-.29ZM35.31,89.4c-.34-2.1-3.37-2.17-3.34.08.03,2.28,3.12,2.05,3.34-.08ZM91.38,60.52c-.16-2.18-3.31-2.3-3.3-.05,0,2.21,3.07,2.17,3.3.05ZM89.71,40.92c2.25-.19,2.05-3.61-.25-3.34-2.08.24-1.74,3.24.25,3.34Z"/>
  <path class="cls-4" d="M11.99,80s-.09.02-.13.03c-.72-.52-2.08.17-3.02.07-.79-.09-1.99-.39-2.33-1.18-.93-2.17,1.74-1.44,2.54-2.49-.03,2.42,6.69-1.35,7.64-1.91,3.2-1.93,5.93-4.32,8.77-6.72,1.3-1.11,2.64-2.16,4.07-3.11,1.14-.77,2.78-2.26,4.23-2.23,1.12.02,1.59,1.06,2.29,1.75,1.04,1.03,2.66,1.72,3.92,2.47.1.04.2.09.29.13,0,0-.01,0-.01,0,.06.19.11.4.37.18.09.04.18.08.27.12.13.13.23.34.38.38,1.76.44,3.48,1.06,5.33.97.43.47.48.99.12,1.51-.24.36-.16.68.01,1.02-.48.13-1.37-.31-1.39.32-.1,3.19-.04,6.38-.03,9.57,0,.06.07.11.1.17.68,1.45,1.85,1.54,3.19,1.13.63.14.91-.38,1.24-.72.18-.18-.1-.31-.31-.35.55-1.48.14-3.02.27-4.53l.2-.1c-.07-.05-.13-.11-.2-.16,0-.22,0-.44,0-.67.47-.58.83-1.6,1.53-1.92,1.29-.59,1.55,1.02,2.6.86.04.04.09.09.13.13.23.62-.15,1.7,1.15,1.5.03,0,.11.13.1.2-.03,1.24.64.61,1.14.43.17.05.35.1.52.15,0,.3,0,.61.01.91,0,.02-.02.03-.03.05,0-.02.02-.03.03-.05.53.4.23.87.13,1.33-.27.06-.34.18-.13.4.06,2.02,1.07.23,1.6.4.17.45.62.35.79.19.35-.31-.21-.46-.26-.72,0-.13.01-.26.02-.38.4-.08.51-.72,1.05-.55.47-.96,1.14-.27,1.85-.43.8-.17.39-.41.82-.9,1.25-1.39.73.66,1.28.82,1.06.31.34-.76.46-.99.24-.46.72-.46,1.02-.92.92-1.42-1.03-.39-1.05-1.57.58.09,1.15.18,1.73.27.67.45,1.49.87,2.29.53-.5-.19-1.32.01-1.23-.79.31-.13.62-.27.93-.4.22.14.45.55.7.3.25-.25-.16-.47-.3-.7-.04-.13-.09-.27-.13-.4.46-.67-.65-.97-.9-1.5-.3-.63-.02-1.3.16-1.93-.63-.17-.9-.13-1.52-.04,0-.13,0-.27,0-.4.53-.03.91.23.82-.64-.05-.5-.69-.68-.64-1.18.07-.63,1-.63.39-1.33-.42-.48-1.35-.21-1.78.08-.18-.18-.35-.35-.53-.53-.04-.18-.09-.35-.13-.53.48-.79.41-1.35,1.38-.92.75.33.61,1.05.89-.14,1.04.37,7.19,3.43,7.73,1.6.51.05.64-.48.99-.7.51-.33,1.03-.31,1.53-.75.89-.78,1.29-1.72.87-2.88-.47-1.26-1.31-1.18-2.16-1.8-.17-.12-.95-.04-.42-.59.24-.24.87.04,1.14.02,1.21-.08,1.65-1.43,1.09-2.53-.69-1.35-1.74-.84-2.85-.59-1.54.35-1.15-1.1-2.35-1.32-1.01-.19-.5.55-.91.67-.24.07-.51-.31-.69-.22-.38-1.7-1.81-.89-2.78-1.16-.25-.63-.7-1.29.27-1.73,2.36.04,4.73.12,7.09.11.54,0,1.09.03,1.63-.07.37-.07.94-.44,1.28-.44.77,0,.48.12.79.69.3.56.33,1.33.84.3.31-.63-.18-1.48-.11-2.18.05-.48.21-1.48.62-1.8.54-.4,1.3.11,1.76-.56.94-1.34-1.85-.84-2.51-.76-.36.04-.7.17-1.06.1-.39-.08-.7-.5-1-.55-.61-.11-.83.42-1.52.03-.47-.26-.56-.89-1.09-.88-1.19,0,0,.66,0,.77-.04.38.36-.05-.03.43-.08.1-.74,0-.88,0-1.12.05-2.22-.02-3.33-.13.13-.72.59-.26.94-.54.19-.15.34-.35.54-.54.79-.7,1.45-1.15,2.4-1.64.72-.37,6.26-3.49,5.9-4,.01-.04.03-.05.07-.04.94.59,1.08-.85,1.57.78.35,1.16.53,2.4.67,3.6.05.44-.12,2.73.27,3.06.34.29,1.83-.02,2.07-.42.53,0,1.06,0,1.59,0,1.41.31,2.86-.11,4.24.13,1.11.19,1.64,1.04,2.42,1.76,0,.09,0,.18,0,.27-.28.04-.7-.13-.75.3-.05.43.35.34.62.36.03.15.06.3.09.45,0,0-.02.04-.02.04-.3-.03-.34.13-.25.37,0,0-.04.04-.04.04-.03.03-.06.06-.09.09,0,0-.04.04-.04.04-.04.03-.07.06-.11.1,0,0-.02.02-.02.02-.11-.03-.21-.05-.32-.08-.56-.46-1.08.43-1.34.22-1.11-.93-2.29.08-3.48-.27-1.29-.38-2.82-.45-4.1.45-.04,0-.09,0-.13,0-.13-.02-.26-.03-.39-.05,0,.15,0,.3-.01.45v.67c-.13.57-.45,1.11-.27,1.73,0,.18,0,.35,0,.53-1.47-.88-1.77-.3-1.74,1.1.01.46-.15,1.3.48,1.18.18-.04.23-1.38.66-.72.76,1.19-1.46,4.26-1.79,5.43-.24.88-.47,1.34-.91,2.09-.28.48-.81,1.14-.19,1.63.48.38,2.55.16,3.25.32.97.21,2.09.53,2.92,1.09,1.08.74,1.36,2.39.29,3.25-.14.12-.46-.06-.66.1-.22.18-.03.59-.27.72-.5.27-1.62-.48-2.01-.73-1.62-1.05-2.72-2.57-4.82-1.74-.15.22-.3.44-.45.65-.07.1-.14.19-.22.29-.02.04-.05.09-.07.13-.04.06-.08.12-.12.18,0,0,0,.01,0,.01-.04.06-.08.11-.13.17-.04-.04-.08-.08-.12-.12-.03.03-.06.05-.09.08.03-.02.06-.05.09-.07,0,.1,0,.19,0,.29-1.31-.13-1.47.59-1.21,1.63,0,0-.01.02-.01.02-.84-.03-.91.56-.93,1.18l-.04-.03s.03.03.03.03c-.79-.16-1.27.47-1.83.81-.32.2.04.68.19,1.02-.07.09-.15.17-.22.26-.17-.05-.37-.05-.5-.15-.69-.55-1.1-.75-1.58.36-.25.57.5,1.53-.52,1.67-.99.14-.87.95-1,1.5-.15.64.14,1.54.71,1.7.66.19.71.56.99,1,.75,1.17.99,2.59,2.12,3.6.82.74.37,1.76-.42,2.4-.53.43-.91-.02-1.22-.48-.19-.27-.44-.49-.83-.46-.32.02-.59-.19-.44-.48.41-.77-.44-.95-.62-.92-.72.14-.68-1.22-1.49-.68-.27-.82-1.14-1.32-1.17-2.28-.01-.46-.08-.94-.47-1.26-.32-.27-.51.13-.77.19h-.04s-.02-.03-.02-.03c-.35-.25-1.19-1.92-1.7-.92-.16.3.39.61.36.97-.03.34-.42.63-.49.96-.04.01-.08.03-.12.04-.29-.7-2.44.68-2.95.88-.98.38-2.34.4-3.08,1.25-.04,0-.09,0-.13,0-.42-.05-1.05-.13-1.25-.03-.67.34-1.66-.27-2.08.7-.13.04-.27.09-.4.13-.67-.16-1.34-.3-1.73.51-.09,0-.18,0-.27,0-.42-.49-.75-.23-1.06.13-1.62-.07-.57,6.77-.91,7.96-.04.2-.08.41-.12.61,0,0,0-.01,0-.01-.06.08-.12.16-.17.24-.13.13-.27.27-.4.4-.19.11-.67-.26-.55.34l-.03.03s-.04,0-.04,0c-.8-.46-1.71-.46-2.58-.63,0,0,0,0,0,0-.57-1.64-.38-3.39-.38-5.1,0-.54.35-3.61-.31-3.68,0,0,0,0,0,0-.02-.06-.04-.18-.05-.18-1.86.21-3.28-1.58-5.17-1.17-1.04.23-1.88-.71-2.9-.41-.04-.03-.09-.06-.13-.09-.96-1-1.93-1.96-3.5-1.23h-.05s-.03-.03-.03-.03c-.28-.58-.77-.73-1.37-.64h-.05s-.04-.03-.04-.03c.02-.51-.37-.36-.65-.39-.1-.06-.2-.12-.29-.17-.05-.02-.11-.04-.16-.06,0,0,0,0,0,0-.06-.51-.36-.58-.78-.41-.04-.02-.08-.05-.12-.07-.05-.05-.1-.11-.15-.16-.04.06-.08.13-.13.19h0c-.08.11-.16.21-.24.3-.05.13-.11.25-.16.38-.42-1.03-1.98-1.33-1.82-2.69.11-.95-.18-1.29-1.11-1.06.71-.84,1.41-1.67,2.12-2.51.05-.06.1-.11.15-.17.03-.03.05-.07.08-.1.25-.12.68-.07.48-.57,0-.05.02-.07.07-.07.74-.19,1.4-.47,1.48-1.37,0,0,.02.01.02.01.05-.04.09-.09.14-.13,0,0,0,0,0,0,.04-.05.09-.09.13-.14,0,0,0,0,0,0,.05-.06.09-.12.14-.19.02-.03.05-.07.07-.1.93-.21,1.24-1.09,1.82-1.68.61-.16,1.01-.53,1.17-1.15.08-.07.15-.14.23-.22.06-.04.12-.08.18-.13h0c.58-.04.87-.44,1.09-.91.09-.09.18-.18.27-.27.11-.08.22-.16.33-.24-.07-.06-.13-.13-.2-.19-.05-.57-.48-.7-.94-.8-.04-.04-.09-.09-.13-.13-.04-.04-.09-.09-.13-.13-.04-.33-.25-.42-.55-.38h0c0-.22-.13-.28-.32-.26-.03-.03-.06-.05-.09-.08-.09-.51-.35-.4-.64-.18h.01c-.47.03-.94.07-1.1.63-.35.05-.7.1-.8.54-.13.09-.27.18-.4.27-.42.1-.85.19-.9.74-.04.03-.07.06-.11.08-.31-.03-.58,0-.54.42h.01c-.29-.05-.42.1-.44.37-.03.03-.06.06-.09.08-.48-.33-.41.06-.43.32,0,0,0,0,0,0-.07.06-.13.12-.2.19,0,0-.03.03-.03.03-.05.03-.09.06-.14.09,0,0,0,0,0,0-.06.04-.11.09-.17.13-.09.08-.18.15-.27.23-.62-.08-1.2.33-1.45.67-.85,1.15-2.54,1.45-2.94,3-.04.02-.07.05-.11.07-1,.08-1.65.62-2.02,1.53-.04.02-.07.04-.11.07-.78,0-1.36.3-1.61,1.08,0,0,0,0,0,0-.19.04-.58-.2-.46.31l-.03.04s-.05,0-.05,0c-.51-.34-3,1.23-3.66,1.5-.58.24-3.19.7-3.16,1.57ZM41.74,77.18s-.07.07-.11.11c0,0-.01.02-.01.02-.06.07-.12.14-.19.21h0c-.04.09-.08.18-.12.28v-.02c-.33.57-.49,1.16.22,1.53.29.15.78.77,1.07-.07.04-.03.08-.04.12-.05.35.24.48.08.51-.27h0c.34.03.3-.2.29-.42.12-1.11-.35-1.63-1.49-1.5-.1.06-.19.12-.29.18,0,0-.02.01-.02.01ZM38.21,69.37c-.7,1.14-1.33,2.31-1.74,3.58-2.23,1.24-2.01,6.41.35,7.38,1.48.61,1.67-.87,1.6-2.11-.02-.32-.3-.33-.23-.73.06-.34.4-.71.61-.98.51-.65,1.2-1.13,1.69-1.8,1.64-.12,3.22-3.23,1.9-4.33-.55-.46-1.77-.49-2.43-.7-.59-.2-1.14-.86-1.76-.31ZM77.75,65.76c-.13-.56-.88-.71-.91,0-.04.72.8.61.91,0ZM70.16,72.12c-.43-.31-.43-.37-.87-.09.52.45.39.37.87.09ZM75.97,44.99c-.32-.2-.27-.29-.58.05.29.24.28.19.58-.05ZM70.09,81.76c-.33-.23-.29-.31-.68-.1.32.28.3.2.68.1ZM67.49,67.62c-.2.29-.28.22.06.5.23-.18.21-.35-.06-.5ZM57.72,83.66c-.06-.25-.19-.32-.38-.23,0,.24.13.32.38.23ZM80.21,44.51c.09.07.14.05.15-.06-.08-.07-.13-.05-.15.06Z"/>
  <path class="cls-16" d="M58.45,16.41c.22.09.44.17.67.26.19.46.49.62.95.35.13.02.26.04.39.05.05.04.1.07.15.11,0,0,0,0,0,0,.08.44.43.23.67.27h0c.04.09.08.18.13.28-.34.37-.39.73-.9.58-.12-.04.05-.65-.27-.75-.87-.26-.5.61-.85.8-.38.21-.26.14-.74.17-.46.04-2.12.01-2.53-.13-.74-.25-.75-1.46-1.43-1.32-1.11.23-.17,1.58-.6,2.03-.61.65-.82-1.12-1.45-1.28-.7-.17-2.41.41-2.45,1.02-.01.17.71-.03.66.43-.03.27-.83.6-1.02.71.04-.41-.18-.78-.26-1.16-.18-.87-.35.56-.66.09-.68-.92-1.58-.71-2.45-.4-.52.18-.9.58-.9,1.2-.55.18-.63,9.2-.13,9.47.27.54,2.03.24,2.63.32.73.1,1.36.67,1.51-.19.09-.09.17-.18.26-.27.57,1.18-1.51,2.69.33,2.49.45-.05,2-.71,2.44-.13.34.45-.23.61-.11,1.1-.18-.04-.36-.09-.53-.13-1.97-.37-3.95-.67-5.96-.53-.43.03-.92-.06-1.23.4l-.03.03s-.04-.02-.04-.02c-.15,0-.3-.01-.46-.02-1.59.07-3.12.76-4.55,1.39-.15-.4.6-.52.47-.99-.1-.39-1.02-.56-1.25-1.07,1.32-.54,4.09-.89,4.03-2.6-.04-1.2-1.18-3.22-2.55-3.27-.02-.09,0-.22-.05-.25-1.81-1.15-2.66-2.73-2.24-4.91.04-.21-.13-.47-.34-.38-.91.39-1.81.83-2.05,1.94-.18.15-.45.27-.52.46-.7,1.77.46,5.35,2.12,6.62.05.2-.08.51.32.49h0c-.09.67.07,1.23.67,1.61h-.02c.05.04.11.09.16.14l.04-.02.04.02c0,.05,0,.11,0,.16-.05.53-.41.58-.84.59-.63,0-1.35.38-1.42.83-.2,1.38-.9,1.58-2.04,1.2.03-.06.05-.13.08-.19l-.02.02c.08-.06.16-.12.23-.18h0c.18-.13.35-.27.53-.4h0c.18-.13.37-.26.55-.39.05,0,.08,0,.11-.05.37-.16.22-.33.02-.51h0c-.05-.07-.1-.16-.15-.24h0c-.04-.06-.08-.11-.12-.16h0c-.27-.27-.54-.53-.81-.79h0c-.73-.45-1.79-.88-2.26-1.66-.47-.77-.32-1.73-.86-2.51-.97-1.39-3.24-2.02-4.64-.9,1.01.79,1.79,1.24,2,2.62.22,1.42-.42,2.94.52,4.22.17.23.34.46.52.68h0c.06.07.11.15.17.24h0c.22.18.45.36.67.54.05.04.09.07.14.11.09.07.18.15.27.22,0,.04.03.06.07.05.06.05.12.1.18.14h0c.44.15.68.86,1.31.46.17.72-.62,1.01-1.23.72-.66-.31-.16-.32-.45-.95-.09-.21-.9-.91-1.12-.88-.87.14.35.85.26.92-.1.09-1.34.59-1.34.66,0-.11,2.53,3.13,1.21,2.67.26-1.21-.81-1.61-1.48-2.01-2.21-1.34-4.96-1.23-7.21-2.62-.7-.43-1.55.14-1.91.99-.36.85-.16,1.71.65,2.07,2.11.93,3.43,2.28,3.17,4.75.03.17.06.35.08.52.11.35.23.71.34,1.06h0c.09.18.18.36.26.53h0c.04.06.08.1.12.15h0c.04.05.08.1.12.15h0c.06.08.11.15.17.22,0,0,.01.02.01.02.04.04.08.08.12.12,0,0,.01,0,.01,0l.23.17h0c.1.07.2.15.3.22l.03.04h.05c.59.22,1.23,1.01,1.78.21.42-.62.48-1.49.7-2.25v-.05c.08-.16.17-.31.25-.47h0c.73-1.28,1.24-2.67,2.2-3.81-.03.19-.04.38-.1.56-.49,1.42-2.15,2.43-1.49,4.26.02.05-.18.24-.31.29-1.11.44-.49,1.92-1.44,2.5-.05.03-.04.65-.48.83-.2.08-.16.19,0,.45.3.52,1.7.56.95,1.46-.69.81-.46,1.63-.53,2.46-.02.3.05.65-.4.7,0-.06-.01-.12-.02-.18.03-.63.57-3.48.13-4-.48-.57-2.39-.21-3.04-.21-1.98,0-5.77-.85-7.02,1.19-.05.1-.1.19-.15.29h0c-.22.54-.34,1.08.11,1.58h0c.04.1.09.18.13.27h0c.05.09.1.17.15.26h0c.08.05.15.11.23.17.1.08.2.15.3.23,0,0,0,0,0,0,.09.05.17.09.26.14,0,0,0,0,0,0,.04.09.08.18.13.27.17.95.7,1.49,1.71,1.45.99-.05.51-.98.82-1.43.67.04,1.33.08,2,.12.39.71,1.14.84,1.7,1.38.44.43.59,1.11,1.19.25-.26-.09-1.2-.33-.61-.74.55-.38,2.14.32,2.49.72-1.79.32-3.32,1.28-4.91,2.06-2.72,1.33-5.32,2.89-7.79,4.64-.53.38-.66.3-.86-.28-.92-2.66-1.26-5.44-1.72-8.2-.12-.37-.44-.23-.68-.23-2.76-.04-5.52-.07-8.28-.1,0,0,0,0,0,0-.09-.06-.17-.12-.26-.18-.09-.08-.17-.16-.26-.24-.32-.89-.48-1.79-.29-2.73l.03.04s-.03-.04-.03-.04c.31.03.3-.18.3-.39.04-.04.07-.08.11-.12.06-.06.12-.12.19-.18,0-.03.03-.05.06-.05.35.14.56-.02.7-.33,2.59-.06,5.17-.14,7.76-.16.62,0,.78-.15.82-.79.27-3.99,1.14-7.84,3-11.41.24-.47.21-.69-.3-.93-1.79-.83-3.56-1.7-5.32-2.58-1.33-.67-1.72-1.75-1.15-3.11.54-1.26,1.95-1.79,3.22-1.19,1.84.87,3.66,1.8,5.47,2.73.43.22.66.21.97-.21,2.12-2.93,4.61-5.5,7.58-7.58.34-.24.21-.4.07-.64-1.11-1.87-2.22-3.73-3.31-5.6-.85-1.46-.54-2.91.77-3.69,1.29-.77,2.52-.39,3.44,1.13,1.03,1.71,2.03,3.43,3,5.17.35.63.62.81,1.27.32.5-.38,1.13-.58,1.71-.85.1-.05.2-.1.3-.15,0,0-.01,0-.01,0,.21-.04.44-.04.64-.12,3.07-1.21,6.18-2.25,9.44-2.85.95-.18,1.97.08,2.86-.47.05-.4.09-.8.14-1.2.19-.22.19-.44,0-.67,0-1.15,0-2.31,0-3.46.22-.8.22-1.6,0-2.4.09-.44.18-.89.27-1.33.84-.37,1.48-.96,2.45-.71.75.19,1.07,1.33,1.66,1.37.02.08.04.16.06.25-.39.75-.42,7.95.1,8h0c1.14,1.01,2.57.19,3.7.67.59.25.48.85,1,.95.01,0,1-.46,1.23-.5h-.06s.06,0,.06,0c.17.98.79.41,1.25.36.09.04.18.08.27.12-.04.45.35.51.63.61.26.1.4-.08.43-.34ZM18.76,41.18c-1.72.22-1.71,2.77.07,2.69,1.75-.08,1.55-2.49-.07-2.69ZM26.42,31.29c-.13-1.32-2.02-1.48-2.22-.14-.22,1.54,2.12,1.68,2.22.14ZM36.3,28.86c-.09-.07-.14-.05-.15.06.08.07.13.05.15-.06Z"/>
  <path class="cls-4" d="M52.46,32.49c-.12-.49.45-.64.11-1.1-.44-.58-1.99.08-2.44.13-1.84.2.24-1.31-.33-2.49,0-3.02,0-6.03,0-9.05.19-.12.99-.44,1.02-.71.06-.46-.67-.26-.66-.43.04-.61,1.75-1.2,2.45-1.02.63.16.84,1.94,1.45,1.28.42-.45-.51-1.8.6-2.03.68-.14.69,1.06,1.43,1.32.42.14,2.08.17,2.53.13.49-.04.37.03.74-.17.35-.19-.02-1.06.85-.8.32.1.14.71.27.75.5.15.55-.21.9-.58.19-.01.38-.02.57-.04,0,0-.01,0-.01,0,.08.06.17.11.25.17,0,0,0,0,0,0,.08.39.33.28.57.19,0,0,.03.01.03.01.08.04.16.08.23.11,0,0,.04.02.04.02,0,.28.2.18.35.18,0,0-.01,0-.01,0,.09.05.18.1.28.15,0,0-.01,0-.01,0,.05.02.11.04.16.06.03,0,.05,0,.06.03.08.65.52.65,1.01.58,1.08.72,3.76-5.34,4.54-6.17,1.6-1.72,4.42-.68,4.3,1.77-.1,2.16-2.42,4.84-3.62,6.57-1.53,2.21-3.25,4.3-5.26,6.11-.29-.03-.44.09-.41.39h0c-1.43.59-2.11,2.14-3.46,2.77-.93.44-1.63.52-1.88,1.77-.5,2.57,4.74,3.33,5.71.9h0c.48.04.73-.21.8-.67,0,0,0,.01,0,.01.05-.05.1-.1.15-.15,2.67-2.43,5.33-4.87,8-7.3.64.09.95-.22,1.05-.82,0,0,0,0,0,0,.3.07.67-.31.86.41.1.37,1.1.81,1.77.4.56-.35.91-.36,1.2.25h-.02c-.21-.11-.29-.02-.3.2h0c-.22-.03-.43-.04-.39.28l-.03-.04.04.03c-.68-.04-1.05.32-1.24.94-.28.21-.58.39-.83.62-3.13,2.84-6.21,5.74-9.4,8.51-2.1,1.83-2.15,1.75-.76,4.18.26.45.44.57.95.32,4.31-2.08,8.23-4.76,11.89-7.84.32-.09,1.01.26.68-.59,0-.03.03-.05.06-.05.24.11.31.03.21-.21v-.02c1.23.15,1.78-1.27,2.67-2.12.81-.77,1.43-.2,2.07-1.02.49-.62.57-1.3,1.1-1.85.21-.22.94-.13.53-.79-.13-.21-.71-.07-.97-.45-.25-.36-.1-.97-.32-1.38-.29-.53-.75-.69-1.16-1.07-.29-.27-.58-.5-.73-.88-.1-.29-.09-.58,0-.87-.08-.07-.17-.11-.28-.13-.1-.24-1-.05-.45-.69.2-.23.75-.05.99-.17.59-.31.73-.44.4-1.34-.29-.79,0-.72-.95-.4-.09-.53.22-1.54,0-1.94,1.52-3.45,5.77-5.62,9.71-4.94,4.05.7,7.15,4.06,7.44,8.07.31,4.32-2.17,8.13-6.1,9.38-2,.64-3.99.68-5.95-.12-.53-.21-.81-.11-1.17.31-3.64,4.23-7.84,7.79-12.59,10.72l-.25.17s.01,0,.01,0c-.21-.03-.41-.03-.42.26,0,0,0,0,0,0-.08.06-.17.11-.25.17,0,0,0,0,0,0-.33-.04-.63-.05-.69.39,0,0,0,0,0,0-.31-.01-.63-.03-.67.4,0,0,0,0,0,0-.21-.03-.4-.04-.43.24-.18.1-.35.2-.53.31-.02-.01-.03-.02-.05-.04.01.01.03.03.04.04,0,.05-.03.06-.08.06-.62-.01-1.12.24-1.49.74,0,0,0,0,0,0-.25-.05-.48-.05-.54.27,0,0,0,0,0,0-.33.07-.82-.19-.88.43,0,0-.05.02-.05.02-.4-.12-.72-.07-.85.39-.02.03-.04.04-.07.03-1.07-.18-1.48.5-2.2-.56-.49-.71-.44-2.02-1.48-2.19,0,0,0,0,0,0-.05-.09-.11-.17-.16-.26,0,0,0,0,0,0-.06-.37.18-.93-.56-.86,0,0-.03-.05-.03-.05-.03-.42.16-1.01-.63-.89,0,0-.03-.04-.03-.04.17-.84-.16-1.23-1.02-1.14-.04,0-.07-.03-.07-.07.17-.36-.1-.29-.29-.31,0,0,0,0,0,0-.27-.91-.73-1.71-1.43-2.37-.2-.19-.75-.31-.33-.8.19-.23.19-.45-.08-.61-.27-.16-.54-.17-.77.11-.52.64-1.59.44-1.9-.37-.08-.2-.13-.38-.4-.3-1.08.32-1.9-.35-2.8-.74ZM53.39,26.89s-.09.09-.13.13c-.85.46-1.57,2.18-.87,3.01.86,1.01,2.69.23,3.53,1.53-.96.06-.06.93,0,0,.61.04.82.6,1.42.52.3-.04,1.14-.73,1.18-1.11.07-.63-.61-.59-.68-1.1-.04-.34.66-1.07.84-1.47.16-.36.3-1.29.74-1.45.36-.13.47.42.78.3.33-.13.63-.94.53-1.28-.02-.07-.58.1-.66-.08-.06-.15.09-.28.05-.4-.26-.92.06-2.16-.31-3.19-.25-.69-1.65-2.64-2.64-2.12-.52.27,0,1.57-.04,2.04-.07.67-.31,1.23-.71,1.77-.77,1.05-2.53,1.49-2.92,2.77-.04.04-.09.08-.13.13Z"/>
  <path class="cls-15" d="M26.24,52.2c.45-.05.38-.4.4-.7.07-.84-.16-1.65.53-2.46.76-.9-.64-.94-.95-1.46-.15-.26-.19-.37,0-.45.43-.18.43-.81.48-.83.95-.58.33-2.06,1.44-2.5.13-.05.33-.23.31-.29-.66-1.83,1-2.84,1.49-4.26.06-.18.07-.37.1-.56,0,0,.01-.02.01-.02,1.32.47-1.21-2.77-1.21-2.67,0-.07,1.24-.58,1.34-.66.08-.07-1.13-.79-.26-.92.21-.03,1.02.67,1.12.88.28.63-.21.64.45.95.61.29,1.4,0,1.23-.72,0,0,.02,0,.02,0,.5.08.69-.17.68-.63,0,0,0,0,0,0,.46,0,.73-.21.78-.68h0c1.14.37,1.83.17,2.04-1.21.07-.45.78-.83,1.42-.83.43,0,.79-.06.84-.59.13,0,.26,0,.4,0,.23.51,1.14.68,1.25,1.07.13.47-.62.59-.47.99,1.43-.64,2.96-1.32,4.55-1.39.02.08.04.16.06.25-3.26.69-6.24,2.06-8.7,4.27-3.09,2.78-5.29,6.17-6,10.37-.02.14-.1.28-.15.42-.47.79-.31,1.69-.35,2.52-.13,3.03.84,5.83,2.07,8.54.27.58-.1.61-.43.79-1.2.63-2.55.97-3.55,1.95l-.03.04s-.05,0-.05,0c-.25-.77-.65-1.67-.36-2.5.23-.66.85-.65,1.13-1.1.52-.85-.75-3.05-1.12-3.82,0,0,0,0,0,0-.34-.4-1.93-1.11-2.49-.72-.59.41.35.65.61.74-.61.86-.76.18-1.19-.25-.56-.54-1.31-.67-1.7-1.38.84-.04,1.69-.08,2.53-.12.26.18.53.18.79,0,.18,0,.36,0,.54,0,.04,0,.09,0,.13,0,.09,0,.18,0,.27,0Z"/>
  <path class="cls-7" d="M59.3,41.27c.07.09.14.19.22.28.07.09.13.18.2.27.02.09.05.18.07.27.4,1.08-.2,1.59-1.06,2.08-.67.38-1.03,1.06-.8,1.9-.84-.05-1.37.38-1.74,1.09-.04.07-.07.14-.11.21,0,.37,0,.74,0,1.11-.72.34-1.54-.12-2.29-.02-1,.14-1.92.45-2.96.51-2.02.12-3.74.22-5.64.96-.94.37-1.57.51-2.53.16-.7-.25-1.2-.71-2.01-.69-.59.02-3.8,2.24-3.76.8.55-.02,1.12-.01,1.32-.7.05-.08.11-.15.16-.23.48-.4.7-.87.38-1.47.01-.09.03-.18.04-.26.85-.61.23-1.14,1.38-1.48.93-.28,1.91-.52,2.85-.8,2.4-.73,5.29,1.09,7.69.1-.14-.22-.62-.44-.57-.65.11-.42,1.58-.26,1.85-.27,1.02-.03,3.87.36,4.2-1.05.05-.04.09-.07.14-.11.43.04.61-.24.64-.58.04-.43-.24-.67-.66-.73h.01s-.09-.09-.14-.14h0c.04-.3-.1-.43-.4-.4-.04-.04-.09-.08-.13-.12-.03-.4-.28-.56-.65-.56h0c-.04-.26-.16-.41-.45-.36h-.02c.2-.1-.13-.32-.11-.43-.11.48,2.2-1.21,1.96-1.17.65-.12,2.41,2.02,2.91,2.48Z"/>
  <path class="cls-15" d="M9.06,76.43c-.8,1.06-3.47.32-2.54,2.49.34.79,1.54,1.09,2.33,1.18.94.11,2.3-.59,3.02-.07-2.65.53-6.93.91-6.21-3.19.6-3.41,3.61-6.19,6.02-8.42l.16-.16c.18-.17.36-.33.54-.5.76-.36,1.65-.57,1.87-1.58.03-.02.07-.03.11-.02.32.04.46-.1.4-.42,0,0,0,0,0,0,.22.01.45.04.35-.31,0,0,.01-.01.01-.01.05-.04.1-.07.16-.11,0,0,0,.01,0,.01.06-.04.11-.08.17-.12,0,0-.01,0-.01,0,.07-.06.14-.12.21-.18,0,0,.03-.02.03-.02.6.08,1.01-.07,1.02-.77,0,0,.05-.04.05-.04.22.1.3.01.29-.2,0,0,0,0,0,0,.07-.06.13-.11.2-.17,0-.02.03-.04.05-.04.22.11.3.02.29-.2,0,0,0,0,0,0,.27.06.45,0,.44-.32.02-.04.06-.06.11-.05.42-.05.89.19,1.25-.17.05-.05-.16-.36-.25-.55,0,0,.04-.03.04-.03.05-.03.1-.06.16-.08,0,0,0,0,0,0,.43.07.79.02.8-.54l.04.03s-.04-.03-.04-.03c.07-.06.15-.11.22-.17,0,0,.03-.02.03-.02.58-.04,1.62.76,1.63.08,0-1.36,1.06-1.37,1.71-1.77.71-.43,1.38-.18,1.24.89-.06.45.18.8.4,1.15-.31.27-.61.54-.92.82,0,0,0,0,0,0-.22.02-.44.04-.5.32l-.03-.04s.04.03.04.03c-.3-.05-.52.01-.58.36,0,0,0,0,0,0-.43.11-.91.14-1.07.67,0,0,0,0,0,0-.38,0-.73.05-.81.53,0,0,0,0,0,0-.2.04-.55-.12-.46.33,0,0,0,0,0,0-.06.04-.12.07-.18.11-.05.03-.1.06-.14.09-.09.07-.18.13-.27.2-.04.02-.08.04-.12.07-.09.07-.17.14-.26.2-.04.02-.08.05-.12.07-.08.06-.16.12-.24.19,0,0,0-.01,0-.01-.06.04-.12.09-.18.13-2.56,1.92-5.12,3.84-7.39,6.11-1.1,1.1-2.16,2.28-2.88,3.69-.04.12-.07.24-.11.36-.01.06-.03.11-.04.17ZM9.5,71.24c-.7.6-.77,1.19-1.24,1.95-.39.64-1.09.86-1.38,1.47.59.19,2,.3,2.44-.28.22-.29,0-.58.1-.84.09-.23.38-.51.45-.72.14-.39.3-1.36-.38-1.59Z"/>
  <path class="cls-11" d="M58.41,60.13c-5.02,6.37-16.6,6.56-21.54.35.85-.44,1.05-2.12,2.54-1.36.18.09.35.19.53.28,2.63,2.32,5.73,3.11,9.16,2.72,2.07-.23,3.85-1.2,5.62-2.21.11.44.43.55.83.75,1.15.58,1.98.05,2.86-.53Z"/>
  <path class="cls-13" d="M59.3,41.27c-.51-.46-2.27-2.6-2.91-2.48.24-.04-2.07,1.65-1.96,1.17-.02.11.31.33.11.44-5.48-3.31-10.68-3.03-15.57,1.22-.08-.24-.27-.29-.5-.34-1.48-.34-2.65.2-3.67,1.21,1.03-1.86,2.48-3.32,4.23-4.51.54.97,2.57-.04,3.5-.05,1.48-.01,2.71-.5,4.16-.78,1.57-.3,2.93,0,4.46-.01.5,0,1.29-.03,1.15-.77,0-.05-1.29-.62-1.29-.62,3.43.84,6.21,2.65,8.3,5.51ZM42.61,38.37c-.08.27-.2.35.03.51.1-.28.07-.25-.03-.51Z"/>
  <path class="cls-16" d="M82.43,16.66c.22.4-.1,1.41,0,1.94.96-.33.67-.4.95.4.33.9.19,1.04-.4,1.34-.23.12-.79-.06-.99.17-.56.64.34.44.45.69.1.02.2.07.28.13-.1.29-.11.58,0,.87.15.38.44.61.73.88.41.38.87.54,1.16,1.07.22.4.08,1.02.32,1.38.26.38.84.24.97.45.41.66-.32.57-.53.79-.54.55-.62,1.23-1.1,1.85-.65.82-1.26.25-2.07,1.02-.89.85-1.44,2.27-2.66,2.12,1.14-1.15,2.3-2.28,3.41-3.46,1.12-1.19.99-1.19.14-2.48-.39-.59-.4-2.08-1.07-2.34-.68-.27-2.85,1.6-3.37,1.93-.29-.61-.64-.6-1.2-.25-.67.41-1.67-.03-1.77-.4-.2-.71-.56-.34-.86-.41,1.68-1.45,3.57-2.45,5.43-3.63,1.47-.93,1.61-2.5,2.2-4.07Z"/>
  <path class="cls-16" d="M80.74,82.44c-4.61.06-4.43-6.63,0-6.61,4.35.01,4.45,6.56,0,6.61Z"/>
  <path class="cls-4" d="M54.15,67c.2-.08.39-.15.59-.23-.13.94,1.31.86,1.18.3-.12-.53-.7-.07-1.1-.33,1.54-.69,2.92-1.62,4.25-2.65.02.16.04.33.06.49-.11.08-.23.15-.34.23.04.04.08.08.11.11.08-.11.15-.23.23-.34.78.19,1.05-.43,1.27-.93.15-.34-.3-.22-.5-.28.57-.64,1.13-1.29,1.7-1.93.02.03.04.05.07.08-.86,1.27-1.02,2.44.53,3.33-.53.49-1.06.98-1.6,1.46,0-.26-.1-.49-.37-.36-.47.22-.7.63-.69,1.16-.77.14-.4.96-.8,1.33-.49.13-.98.27-1.46.4-.31.04-.62.09-.93.13-1.04.47-1.99,1.18-3.19,1.2-.33-.06-.55-.69-.95-.28-.51.53-1.24.91-1.31,1.78-.05.65-.51.96-1.07,1.16-.21-.61.44-1.4-.4-1.86.36-1.06-.62-.9-1.37-.89.09-.26.23-1.04.6-1.11.39-.08.46.41.72.38.64-.08.48-.31,1.04-.76-.15-.05-.31-.1-.46-.14.4-.09.8-.18,1.2-.27.05.07.11.13.16.2.03-.07.07-.13.1-.2.44-.13.89-.27,1.33-.4.14.19-.35.5.12.63.18-.7,1.03-.62,1.35-1.16-.02-.08-.03-.16-.05-.24ZM54.3,69.05c-.15-.18-.25-.3-.35-.42-.47.61-.16.85.35.42ZM50.62,70.59c-.38-.33-.4-.47-.77-.13.6.4.42.44.77.13ZM58.27,65.63c-.11-.15-.18-.24-.25-.33-.44.47-.27.72.25.33ZM56.17,66.88c.28-.32.39-.44.49-.56-.44-.18-.58.16-.49.56Z"/>
  <path class="cls-16" d="M80.43,40.68c.36.52-5.18,3.64-5.9,4-.96.49-1.61.93-2.4,1.64-.21.18-.35.39-.54.54-.36.28-.82-.18-.94.54,1.11.11,2.21.19,3.33.13.13,0,.8.09.88,0,.39-.48,0-.05.03-.43.01-.1-1.18-.76,0-.77.53,0,.62.62,1.09.88.69.39.91-.14,1.52-.03.31.05.61.48,1,.55.37.07.7-.06,1.06-.1.66-.08,3.45-.58,2.51.76-.47.67-1.23.16-1.76.56-.42.31-.57,1.32-.62,1.8-.07.7.43,1.55.11,2.18-.51,1.03-.54.26-.84-.3-.31-.58-.01-.7-.79-.69-.34,0-.91.37-1.28.44-.54.1-1.08.07-1.63.07-2.36.01-4.73-.07-7.09-.11-.08-.63.18-1.28-.18-1.88-.72.48-.82.57-1.02,1.33-.15.55.03,1.23-.8,1.22-.08-.6-.05-1.16.3-1.7.17-.26.2-.81-.05-.83-1.08-.08-.52-.86-.65-1.33.58.29,1.49.95,2.09.26.12-.14.24-.86.18-1.02-.23-.62-.23-.18-.67-.53,4.58-1.97,8.84-4.52,13.05-7.16ZM77.91,51.54h0c.98-.38,1.01-1.22.85-2.03-.2-1.01-.88-1.66-1.94-1.68-2.67-.04-5.35-.01-8.02-.01-.24,0-.51-.03-.49.36.07,1.25.13,2.51.19,3.76,1.05.04,2.09.13,3.13.09,1.96-.06,3.92.21,5.87-.17.13-.11.27-.22.4-.32Z"/>
  <path class="cls-15" d="M26.21,78.12c.93-.23,1.22.11,1.11,1.06-.16,1.37,1.4,1.66,1.82,2.69-1.12,1.94-2.23,3.88-3.37,5.81-.13.23-.4.38-.6.56-.32-.73-1.34-.78-1.57-1.6-.24-.86.44-2.44.57-3.36.03-.22.07-1.97.29-2.1.34-.19.58.32.8.2,1.2-.63.1-1.2.15-2.21h0c.16,0,.37,0,.15-.25.17-.22.34-.44.51-.65.05-.06.09-.12.14-.17h0Z"/>
  <path class="cls-16" d="M77.89,68.98c2.1-.83,3.21.69,4.82,1.74.39.25,1.51,1.01,2.01.73.24-.13.04-.54.27-.72.2-.16.51.01.66-.1,1.07-.86.79-2.51-.29-3.25-.82-.56-1.95-.88-2.92-1.09-.7-.15-2.77.06-3.25-.32-.61-.49-.09-1.16.19-1.63.44-.75.67-1.21.91-2.09.32-1.17,2.54-4.24,1.79-5.43-.42-.66-.47.68-.66.72-.63.13-.47-.72-.48-1.18-.03-1.4.27-1.98,1.74-1.1.09,0,.18,0,.27,0-.38,3.05-1.27,5.96-2.54,8.75-.21.46-.1.65.32.85,1.61.74,3.21,1.5,4.8,2.27,1.44.7,2,2.08,1.29,3.41-.72,1.36-1.91,1.63-3.28,1.02-1.9-.84-3.77-1.71-5.66-2.57Z"/>
  <path class="cls-1" d="M58.41,60.13c-.87.58-1.71,1.11-2.86.53-.39-.2-.72-.3-.83-.75.09-.13.18-.26.27-.39,1.83-1.49,3.03-3.41,3.86-5.59,0-.09,0-.17,0-.26l.13-.13c.6.86,1.66.68,2.46,1.1-.23,1.63-1.06,2.97-2.06,4.23-.03.06-.06.12-.09.18,0,0,.02-.02.02-.02-.06.08-.12.17-.18.25,0,0,0,0,0,0-.56.02-.76.34-.73.86h0Z"/>
  <path class="cls-5" d="M51,35.76s1.28.57,1.29.62c.14.74-.64.76-1.15.77-1.53,0-2.89-.29-4.46.01-1.45.28-2.68.76-4.16.78-.93,0-2.97,1.02-3.5.05,3.31-2.4,7-3.12,10.99-2.43,0,0,0,0,0,0h.04s.02.02.02.02c.2.13.38.36.65.13.09.02.19.03.28.05Z"/>
  <path class="cls-16" d="M65.56,81.25c.26-.06.44-.45.77-.19.39.32.46.8.47,1.26.03.95.9,1.46,1.17,2.28.81-.54.77.82,1.49.68.18-.04,1.03.14.62.92-.15.29.12.5.44.48.39-.03.64.19.83.46.31.46.69.91,1.22.48.79-.64,1.24-1.66.42-2.4-1.12-1.01-1.37-2.43-2.12-3.6-.28-.44-.33-.81-.99-1-.57-.16-.86-1.06-.71-1.7.13-.55,0-1.36,1-1.5,1.02-.14.27-1.1.52-1.67.48-1.12.89-.91,1.58-.36.13.1.33.1.5.15-.76.75-2.26,1.73-2.74,2.63-.44.84.18,1.47.62,2.21.91,1.5,3.4,4.51,3.06,6.34-.33,1.82-2.83,2.66-4.1,1.36-1.71-1.74-2.82-4.71-4.05-6.81Z"/>
  <path class="cls-16" d="M15.75,19.73c-.02,3.1-4.98,3.15-4.98.01,0-3.23,5-3.24,4.98-.01Z"/>
  <path class="cls-1" d="M29.1,69.68c.03-.15.06-.29.09-.44.49-.22.86-.55,1.04-1.07,0,0,0,0,0,0,.4-.18.8-.35,1.2-.53,1.48-.42,2.13.96,3.19,1.46-.41.31-.91.54-.99,1.14h-.02c-.56.04-.82.41-.97.9h0c-.19-.03-.29.06-.28.26,0,0,0,0,0,0-.05.05-.1.09-.14.14,0,0,0,0,0,0-.07.06-.15.13-.22.19h0c-.06.06-.13.14-.19.21h0s-.09.09-.14.14h0s-.09.09-.14.13c0,0,0,0,0,0-.05.05-.09.09-.14.14-.04.04-.08.08-.12.13-.48.16-.84.43-.91.97l-.04-.03.04.03c-.25-.05-.49-.11-.74-.16,0,0,0,.01,0,.01-.03-.05-.06-.1-.09-.15-.03-.03-.05-.06-.04-.1-.19-.63-.38-1.27-.57-1.9,0-.36.01-.72.02-1.08.04-.11.07-.22.11-.34Z"/>
  <path class="cls-14" d="M33.53,55.19c-.92-2.2-1.08-4.5-.84-6.84.84.7,2.18.3,2.86,1.33.07,1.4-.07,2.84.67,4.13.04.27.09.53.13.8-.72-.03-1.41.45-2.14.14-.49-.21-.7-.07-.68.45Z"/>
  <path class="cls-1" d="M33.53,55.19c-.02-.52.19-.66.68-.45.73.31,1.42-.17,2.14-.14.74,1.7,1.84,3.16,3.07,4.52-1.5-.76-1.69.92-2.54,1.36-1.33-1.22-2.26-2.71-2.94-4.37-.01-.34.17-.77-.39-.85l-.03-.03v-.04Z"/>
  <path class="cls-4" d="M25.42,79.2c-.05,1.01,1.04,1.58-.15,2.21-.22.12-.47-.39-.8-.2-.22.12-.26,1.88-.29,2.1-.13.91-.81,2.5-.57,3.36.23.81,1.25.86,1.57,1.6-2.04,1.39-4.36-.7-3.59-2.9.76-2.16,2.43-4.38,3.84-6.16Z"/>
  <path class="cls-7" d="M34.79,42.48c1.02-1.02,2.19-1.56,3.67-1.21.24.05.42.1.5.34h-.02c-.64.11-1,.47-.98,1.15h0c-.38.03-.65.17-.5.61.2.57.06,1.05-.32,1.48-1.27,1.05-1.49,2.49-1.48,4.01-.28-.38-.4-.89-.22-1.25,1-1.95-.86-2.19-1.75-3,.36-.71.72-1.42,1.08-2.13Z"/>
  <path class="cls-8" d="M57.92,46.06c-.23-.84.13-1.51.8-1.9.86-.49,1.46-1,1.06-2.08,1.37,1.76,2.1,3.77,2.29,5.98-.47-.23.09-1.33-.83-1.09-.7.19-1.34.63-2,.97-.22-.78-.43-1.57-1.32-1.88Z"/>
  <path class="cls-14" d="M61.45,54.63c-.8-.41-1.86-.24-2.46-1.1,0-.05,0-.09,0-.14.05-.35.09-.71.14-1.06.27-.06.34-.18.13-.4,0-.18,0-.35,0-.53,1.52-1.55,2.42-1.59,2.93-.14,0,.09-.01.18-.02.28,0,.13-.01.25-.02.38-.02.18-.05.37-.07.55-.37.2-.38.47-.16.79-.03.14-.06.28-.1.41-.33.14-.39.36-.18.65,0,.14.05.31-.19.31Z"/>
  <path class="cls-9" d="M33.71,44.61c.89.82,2.74,1.05,1.75,3-.19.36-.06.87.22,1.25.19.31.38.61.57.92-.26.12-.41-.39-.7-.11-.68-1.02-2.03-.63-2.86-1.33.15-1.3.41-2.56,1.02-3.73Z"/>
  <path class="cls-16" d="M25.31,62.05c-.22-.35-.46-.7-.4-1.15.14-1.07-.54-1.32-1.24-.89-.65.4-1.7.41-1.71,1.77,0,.67-1.04-.12-1.63-.08,2.19-1.42,4.43-2.74,6.83-3.77.56-.24.59-.49.39-.98-.39-.96-.77-1.93-.81-2.99.37.77,1.64,2.97,1.12,3.82-.28.45-.9.44-1.13,1.1-.28.83.12,1.73.36,2.5,0,0,0,0,0,0-.43-.08-.78-.01-.89.48,0,0-.05.03-.05.03-.28.06-.57.11-.85.17Z"/>
  <path class="cls-9" d="M62.18,51.26c-.51-1.46-1.4-1.41-2.93.14-.04-.88.25-1.78-.08-2.65.02-.27.05-.54.07-.81.66-.33,1.3-.78,2-.97.92-.25.36.86.83,1.09.21,1.06.26,2.13.11,3.2Z"/>
  <path class="cls-15" d="M5.26,62.22c-2.18-.21-2.32-3.46-.05-3.43,2.22.03,2.19,3.13.05,3.43Z"/>
  <path class="cls-16" d="M5.16,40.96c-1.98-.23-2.26-3.15-.18-3.39,2.38-.28,2.51,3.18.18,3.39Z"/>
  <path class="cls-15" d="M63.22,89.44c-.25,1.97-3.1,2.45-3.36.25-.28-2.37,3.05-2.52,3.36-.25Z"/>
  <path class="cls-13" d="M64.31,28.11c1.27,1.21,1.46,2.75,1.33,4.38-.01.04-.02.08-.03.12,0,0,0-.01,0-.01-.27.22-.53.44-.8.67,0,0,0,0,0,0-.42.28-.85.56-1.27.85.13-.87,1.22-.96,1.29-1.95.05-.64-.28-1.17-.81-1.37-.37-.14-1.82,0-2.19.09-.62.16-.95.66-1.54.78,1.34-1.18,2.68-2.36,4.01-3.55Z"/>
  <path class="cls-15" d="M31.95,11.24c.25-2.27,3.54-2.06,3.3.27-.23,2.24-3.05,1.71-3.3-.27Z"/>
  <path class="cls-2" d="M59.87,11.24c.26-2.29,3.62-2.06,3.3.29-.29,2.12-3.17,1.76-3.3-.29Z"/>
  <path class="cls-15" d="M35.31,89.4c-.22,2.13-3.31,2.36-3.34.08-.03-2.25,3-2.18,3.34-.08Z"/>
  <path class="cls-2" d="M91.38,60.52c-.24,2.12-3.3,2.17-3.3-.05,0-2.26,3.14-2.13,3.3.05Z"/>
  <path class="cls-15" d="M89.71,40.92c-1.99-.1-2.33-3.1-.25-3.34,2.3-.27,2.5,3.15.25,3.34Z"/>
  <path class="cls-4" d="M65.78,49.14c.14.47-.43,1.25.65,1.33.24.02.22.57.05.83-.35.54-.38,1.1-.3,1.7-.63,1.17-1.04,2.43-1.54,3.64-.45,1.09-.67,2.4-1.78,3.15-.03-.03-.06-.05-.09-.08,1.8-3.01,2.59-6.3,2.74-9.78.02-.54-.66-1.35.54-1.44-.09.21-.18.43-.27.64Z"/>
  <path class="cls-2" d="M52.46,32.49c.89.39,1.72,1.05,2.8.74.28-.08.32.1.4.3.31.81,1.38,1.01,1.9.37.22-.28.49-.27.77-.11.27.16.28.38.08.61-.42.49.13.61.33.8.7.66,1.16,1.46,1.43,2.37-2.36-2.36-5.19-3.9-8.37-4.84.04-.12.09-.25.13-.37.18.04.36.09.53.13Z"/>
  <path class="cls-2" d="M64.31,28.11c-1.34,1.18-2.68,2.36-4.01,3.55,0,0,0,.01,0,.01-.05.05-.1.09-.15.14,0,0,.01-.01.01-.01-.05.05-.09.1-.14.15,0,0,0-.01,0-.01-.05.05-.1.09-.15.14h0c-.07.05-.15.12-.22.18-.54.32-.52.58,0,.95.74.52,1.41,1.13,2.11,1.7.18.4.37.31.56,0,.04,0,.08,0,.11-.03.05-.03.11-.06.16-.09h-.01s.09-.1.13-.15c0,0,0,0,0,0,.09-.04.19-.09.28-.13,0,0-.01,0-.01,0,.04-.05.09-.1.13-.15h0c.05-.04.1-.08.15-.13.04,0,.08,0,.11-.03.05-.03.1-.07.15-.1h.01c.42-.27.85-.56,1.27-.84-.97,2.44-6.21,1.67-5.71-.9.24-1.24.95-1.33,1.88-1.77,1.35-.63,2.03-2.18,3.46-2.77-.05.09-.09.18-.14.28Z"/>
  <path class="cls-3" d="M27.17,61.33c1-.98,2.35-1.32,3.55-1.95.33-.17.7-.2.43-.79-1.23-2.71-2.21-5.51-2.07-8.54.04-.83-.13-1.73.35-2.52-.15,3.67.04,7.3,1.92,10.58.5.88.37,1.14-.52,1.48-1.25.48-2.43,1.15-3.65,1.73Z"/>
  <path class="cls-2" d="M45.27,14.66c-.89.55-1.91.29-2.86.47-3.26.61-6.37,1.64-9.44,2.85-.2.08-.43.08-.64.12,3.67-1.83,7.54-2.98,11.61-3.44.39-.04.79-.09,1.18-.14.05.05.1.09.14.14Z"/>
  <path class="cls-16" d="M85.08,47.66c-.24.4-1.74.71-2.07.42-.38-.33-.21-2.62-.27-3.06-.14-1.2-.32-2.44-.67-3.6-.49-1.62-.63-.19-1.57-.78,1.34-.96,1.59-.8,2.05,1.43.35,1.69.62,3.4.83,5.12.12.97,1.16.15,1.7.47Z"/>
  <path class="cls-3" d="M37,84.29c1.03-.31,1.86.63,2.9.41,1.89-.41,3.31,1.38,5.17,1.17,0,0,.03.12.05.18-2.76-.32-5.53-.63-8.12-1.75Z"/>
  <path class="cls-3" d="M54.15,67c.02.08.03.16.05.24-.49.18-.98.35-1.46.53-.44.13-.89.27-1.33.4-.09,0-.18,0-.26,0-.4.09-.8.18-1.2.27-.13.04-.27.09-.4.13-.31-.2-.62-.2-.93,0-.69.26-1.33-.03-2-.13-1.85.09-3.58-.54-5.33-.97-.15-.04-.26-.25-.38-.38,4.43,1.57,8.85,1.65,13.26-.09Z"/>
  <path class="cls-3" d="M82.95,55.26c-.09,0-.18,0-.27,0,0-.18,0-.35,0-.53.39-.53.31-1.13.26-1.73,0-.22,0-.44,0-.67.13-.13.27-.27.4-.4.04,0,.09,0,.13,0,2.93-.04,5.86-.09,8.78-.13.02.03.05.05.07.08-.74.54-2.01.32-2.85.33-1.3.02-2.59.07-3.88,0-2.52-.13-2.42.76-2.65,3.05Z"/>
  <path class="cls-16" d="M93.33,49.53c-.78-.71-1.32-1.57-2.42-1.76-1.38-.23-2.83.18-4.24-.13,1.68-.36,3.38-.18,5.07-.1.25.34.61.42,1,.44,0,0,.01.01.01.01.03.03.07.06.1.09.04,0,.05.02.06.05.03.03.06.07.09.1,0,0,.03.03.03.03.11.42.21.84.32,1.26Z"/>
  <path class="cls-15" d="M11.99,80c-.04-.87,2.57-1.33,3.16-1.57.66-.27,3.15-1.84,3.66-1.5-2.15,1.3-4.38,2.41-6.82,3.07Z"/>
  <path class="cls-15" d="M65.78,49.14c.09-.21.18-.43.27-.64.08-.02.17-.04.25-.06.22.25.25.07.27-.12.27-.16.54-.31.81-.47.44.35.44-.09.67.53.06.16-.06.88-.18,1.02-.6.69-1.51.03-2.09-.26Z"/>
  <path class="cls-16" d="M57.52,84.41c.73-.85,2.1-.87,3.08-1.25.51-.2,2.66-1.58,2.95-.88-1.79.97-3.68,1.67-5.64,2.23-.13-.03-.26-.07-.39-.1Z"/>
  <path class="cls-3" d="M45.27,14.66s-.1-.09-.14-.14c0-2.45,0-4.9.01-7.35,0-.56.05-1.1.41-1.56,0,0,.06,0,.06,0h.06c-.09.44-.18.89-.27,1.33,0,.8,0,1.6,0,2.4,0,1.15,0,2.31,0,3.46,0,.22,0,.44,0,.67-.05.4-.09.8-.14,1.2Z"/>
  <path class="cls-3" d="M2.5,51.84c2.76.03,5.52.06,8.28.1.24,0,.55-.14.68.23-2.64.01-5.28.03-7.92.01-.35,0-.7-.22-1.04-.34Z"/>
  <path class="cls-3" d="M45.11,86.03c.65.07.31,3.14.31,3.68,0,1.71-.2,3.45.38,5.1-.43-.4-.66-.89-.66-1.49,0-2.43-.02-4.86-.03-7.28Z"/>
  <path class="cls-15" d="M23.19,73.84c.41-1.55,2.09-1.85,2.94-3,.25-.34.83-.75,1.45-.67-1.46,1.22-2.93,2.45-4.39,3.67Z"/>
  <path class="cls-2" d="M55.87,15.64c-.23.03-1.22.5-1.23.5-.52-.1-.42-.7-1-.95-1.12-.48-2.56.33-3.7-.68,2,.27,4.02.37,5.93,1.13Z"/>
  <path class="cls-15" d="M51.93,32.36c-.04.12-.09.25-.13.37-.35-.08-.71-.16-1.06-.24-.04,0-.09-.01-.13-.02-1.94-.5-3.9-.42-5.86-.24.3-.45.8-.36,1.23-.4,2.01-.15,3.99.15,5.96.53Z"/>
  <path class="cls-3" d="M33.37,82.97c1.57-.73,2.54.23,3.5,1.23-1.28-.08-2.37-.71-3.5-1.23Z"/>
  <path class="cls-2" d="M62.95,41.17c1.04.17,1,1.48,1.48,2.19.72,1.06,1.13.38,2.2.56-2.35,1.91-2.81-1.08-3.68-2.76Z"/>
  <path class="cls-2" d="M49.95,14.51c-.52-.05-.49-7.25-.1-8,.03,2.67.07,5.33.1,8Z"/>
  <path class="cls-16" d="M63.67,82.24c.08-.34.47-.62.49-.96.03-.36-.52-.67-.36-.97.52-1,1.35.67,1.7.92-.61.34-1.23.68-1.84,1.02Z"/>
  <path class="cls-2" d="M45.68,5.61h-.06s-.06,0-.06,0c.51-.91,1.33-1.26,2.31-1.14,1.03.13,1.69.77,1.92,1.8-.59-.04-.92-1.17-1.66-1.37-.97-.25-1.61.34-2.45.71Z"/>
  <path class="cls-16" d="M72.98,75.26c-.15-.34-.51-.82-.19-1.02.56-.34,1.04-.97,1.83-.81-.55.61-1.1,1.22-1.64,1.83Z"/>
  <path class="cls-16" d="M75.57,72.23c-.25-1.04-.1-1.76,1.21-1.63-.4.54-.81,1.08-1.21,1.63Z"/>
  <path class="cls-3" d="M45.8,94.8c.87.17,1.78.17,2.58.63-1.01.39-1.88.22-2.58-.63Z"/>
  <path class="cls-3" d="M53.66,85.21c.13-.04.27-.09.4-.13,1.07.26,2.01-.5,3.06-.41l.02.02c-1.47.54-3.01.77-4.54,1.03.35-.17.71-.34,1.06-.51Z"/>
  <path class="cls-15" d="M21.06,75.44c.37-.91,1.02-1.45,2.02-1.53-.67.51-1.35,1.02-2.02,1.53Z"/>
  <path class="cls-15" d="M59.12,64.58c-.02-.16-.04-.33-.06-.49,0,0,0,0,0,0,.59.21.63-.22.71-.61.04-.04.08-.07.12-.11.2.06.65-.06.5.28-.22.49-.49,1.12-1.27.93h0Z"/>
  <path class="cls-16" d="M14.26,66.19c-.22,1.01-1.11,1.22-1.87,1.58.62-.53,1.25-1.05,1.87-1.58Z"/>
  <path class="cls-15" d="M54.81,66.74c.4.26.97-.2,1.1.33.13.56-1.31.64-1.18-.3.02-.04.04-.05.08-.03Z"/>
  <path class="cls-3" d="M1.71,48.7c-.19.94-.02,1.85.29,2.73-.77-.84-.9-1.75-.29-2.73Z"/>
  <path class="cls-16" d="M53.66,85.21c-.35.17-.71.34-1.06.51-.22,0-.44,0-.67,0,.39-.81,1.06-.67,1.73-.51Z"/>
  <path class="cls-15" d="M19.34,76.59c.26-.78.84-1.08,1.61-1.08-.54.36-1.08.72-1.61,1.08Z"/>
  <path class="cls-3" d="M93.33,49.53c-.11-.42-.21-.84-.32-1.26.63.82.78,1.69.28,2.63-.03-.15-.06-.3-.09-.45.04-.22.09-.44.13-.67,0-.09,0-.18,0-.27Z"/>
  <path class="cls-3" d="M30.59,73.34c-.08.9-.74,1.18-1.48,1.37.29-.3.58-.59.88-.89.14-.14.28-.28.42-.41l-.04-.03s.04.03.04.03c.06-.02.12-.05.18-.07Z"/>
  <path class="cls-2" d="M60.53,37.95c.87-.1,1.2.29,1.02,1.14-.34-.38-.68-.76-1.02-1.14Z"/>
  <path class="cls-4" d="M61.67,61.33c.36-.54.72-1.08,1.09-1.62.03.02.06.05.09.08-.13.68-.4,1.27-1.07,1.6-.03-.02-.07-.04-.11-.05Z"/>
  <path class="cls-16" d="M19.09,62.52c.09.19.3.49.25.55-.35.36-.82.12-1.25.17.33-.24.67-.48,1-.72Z"/>
  <path class="cls-16" d="M74.62,73.42c.02-.62.09-1.21.93-1.18-.31.39-.62.78-.93,1.18Z"/>
  <path class="cls-3" d="M25.31,62.05c.28-.06.57-.11.85-.17-.59.33-1.18.66-1.77.99.31-.27.61-.54.92-.82Z"/>
  <path class="cls-2" d="M57.12,16c-.46.05-1.08.62-1.25-.36.42.12.83.24,1.25.36Z"/>
  <path class="cls-2" d="M58.45,16.41c-.04.25-.18.43-.43.34-.28-.11-.67-.16-.63-.61.35.09.71.19,1.06.28Z"/>
  <path class="cls-10" d="M28.98,71.09c.19.63.38,1.27.57,1.9-.4-.57-.54-1.22-.57-1.9Z"/>
  <path class="cls-16" d="M74.8,24.34c-.09.6-.41.91-1.05.82.35-.27.7-.55,1.05-.82Z"/>
  <path class="cls-10" d="M30.23,68.16c-.18.52-.55.85-1.04,1.07-.01-.05-.03-.09-.04-.14.07-.12.13-.24.2-.36,0,0-.01,0-.01,0,.18-.14.36-.28.54-.42.04-.03.07-.06.11-.08.08-.02.16-.05.24-.07Z"/>
  <path class="cls-16" d="M16.68,64.25c0,.7-.42.86-1.02.77.34-.26.68-.51,1.02-.77Z"/>
  <path class="cls-2" d="M69,42.79c.37-.5.86-.75,1.49-.74-.5.25-.99.49-1.49.74Z"/>
  <path class="cls-3" d="M31.92,82.3c.6-.09,1.09.06,1.37.64-.46-.21-.91-.43-1.37-.64Z"/>
  <path class="cls-2" d="M64.89,19.16c-.49.07-.93.06-1.01-.58.34.19.67.39,1.01.58Z"/>
  <path class="cls-2" d="M61.58,39.12c.79-.12.6.46.63.89-.21-.3-.42-.59-.63-.89Z"/>
  <path class="cls-3" d="M50.6,85.85c.32-.36.65-.62,1.06-.13-.35.04-.71.09-1.06.13Z"/>
  <path class="cls-11" d="M58.41,60.12c-.03-.52.17-.84.73-.86-.24.29-.48.57-.73.86Z"/>
  <path class="cls-2" d="M62.24,40.06c.74-.07.5.49.56.86-.19-.29-.37-.57-.56-.86Z"/>
  <path class="cls-3" d="M22.25,64.19c.16-.53.64-.56,1.07-.67-.36.22-.71.45-1.07.67Z"/>
  <path class="cls-4" d="M59.77,63.48c-.08.39-.12.82-.71.61.24-.2.47-.41.71-.61Z"/>
  <path class="cls-2" d="M60.06,17.02c-.46.26-.76.11-.95-.35.32.12.63.24.95.35Z"/>
  <path class="cls-16" d="M20.08,61.87c0,.56-.37.6-.8.54.27-.18.53-.36.8-.54Z"/>
  <path class="cls-2" d="M67.6,43.49c.06-.62.55-.36.88-.43-.29.14-.58.29-.88.43Z"/>
  <path class="cls-3" d="M26.2,61.85c.11-.5.46-.57.89-.48-.3.16-.59.32-.89.48Z"/>
  <path class="cls-3" d="M29.96,81.24c.42-.17.72-.1.78.41-.26-.14-.52-.27-.78-.41Z"/>
  <path class="cls-10" d="M30.41,73.41c-.14.14-.28.28-.42.41-.1-.19-.21-.39-.31-.58.25.05.49.11.74.16Z"/>
  <path class="cls-3" d="M92.73,47.99c-.39-.02-.75-.1-1-.44.33.15.66.29,1,.44Z"/>
  <path class="cls-3" d="M21.45,64.71c.08-.47.43-.52.81-.53-.27.18-.54.35-.81.53Z"/>
  <path class="cls-14" d="M33.55,55.26c.56.09.38.51.39.85-.13-.28-.26-.57-.39-.85Z"/>
  <path class="cls-2" d="M66.71,43.89c.13-.46.45-.51.85-.39-.28.13-.57.26-.85.39Z"/>
  <path class="cls-1" d="M61.91,53.26c-.22-.32-.21-.59.16-.79-.05.26-.11.53-.16.79Z"/>
  <path class="cls-2" d="M72.19,41.05c.05-.44.36-.43.69-.39-.23.13-.46.26-.69.39Z"/>
  <path class="cls-2" d="M61.26,17.44c-.24-.04-.59.17-.67-.27.22.09.45.18.67.27Z"/>
  <path class="cls-3" d="M29.04,74.78c.2.5-.24.45-.48.57.16-.19.32-.38.48-.57Z"/>
  <path class="cls-3" d="M31.18,81.88c.28.03.66-.13.65.39-.22-.13-.43-.26-.65-.39Z"/>
  <path class="cls-3" d="M3.06,47.63c-.14.31-.35.47-.7.33.23-.11.47-.22.7-.33Z"/>
  <path class="cls-2" d="M71.52,41.44c.05-.43.36-.42.67-.4-.22.13-.45.27-.67.4Z"/>
  <path class="cls-15" d="M28.38,69.52c.02-.27-.05-.66.43-.32-.14.11-.28.22-.43.32Z"/>
  <path class="cls-16" d="M14.77,65.75c.05.32-.09.45-.4.42.02-.25.15-.4.4-.42Z"/>
  <path class="cls-1" d="M61.63,54.32c-.21-.29-.15-.51.18-.65-.06.22-.12.43-.18.65Z"/>
  <path class="cls-3" d="M48.45,95.41c-.12-.6.36-.24.55-.34-.18.11-.37.23-.55.34Z"/>
  <path class="cls-13" d="M50.72,35.71c-.27.23-.45,0-.65-.13.22.04.44.09.65.13Z"/>
  <path class="cls-3" d="M57.52,84.41c.13.03.26.07.39.1-.26.06-.52.12-.78.18,0,0-.02-.02-.02-.02.09-.09.18-.17.27-.26.04,0,.09,0,.13,0Z"/>
  <path class="cls-3" d="M23.32,63.53c.05-.34.28-.4.58-.36-.19.12-.38.24-.58.36Z"/>
  <path class="cls-3" d="M29.34,68.74c-.07.12-.13.24-.2.36-.08,0-.16,0-.24.01.02-.27.15-.42.44-.38Z"/>
  <path class="cls-15" d="M18.89,76.89c-.12-.51.26-.27.46-.31-.15.1-.3.21-.46.31Z"/>
  <path class="cls-3" d="M20.99,65.04c-.09-.45.26-.29.46-.33-.15.11-.31.22-.46.33Z"/>
  <path class="cls-16" d="M17.98,63.29c.01.32-.16.39-.44.32.15-.11.29-.22.44-.32Z"/>
  <path class="cls-2" d="M68.47,43.06c.06-.33.29-.33.54-.27-.18.09-.36.18-.54.27Z"/>
  <path class="cls-2" d="M64.44,27.84c-.02-.3.12-.43.41-.39-.14.13-.27.26-.41.39Z"/>
  <path class="cls-2" d="M62.76,18.03c-.24.08-.49.2-.57-.19.19.06.38.13.57.19Z"/>
  <path class="cls-2" d="M61.95,17.68c-.19.01-.38.02-.57.04-.04-.09-.08-.19-.13-.28l.69.24Z"/>
  <path class="cls-3" d="M2,48.31c0,.21.02.42-.3.39.1-.13.2-.26.3-.39Z"/>
  <path class="cls-16" d="M15.11,65.45c.09.34-.14.32-.35.31.12-.1.24-.2.35-.31Z"/>
  <path class="cls-2" d="M60.16,37.57c.19.01.47-.05.29.31-.1-.1-.2-.21-.29-.31Z"/>
  <path class="cls-3" d="M92.4,51.53c.11.03.21.05.32.08-.13.09-.25.18-.38.27-.03-.03-.05-.05-.07-.08.05-.09.09-.18.14-.26Z"/>
  <path class="cls-3" d="M23.89,63.17c.06-.28.28-.29.5-.32-.17.11-.34.21-.5.32Z"/>
  <path class="cls-2" d="M73.11,40.5c0-.3.2-.29.42-.26-.14.09-.28.18-.42.26Z"/>
  <path class="cls-2" d="M71.1,41.68c.03-.28.22-.27.43-.24-.14.08-.29.16-.43.24Z"/>
  <path class="cls-3" d="M49.57,94.43c.04-.2.08-.41.12-.61.26.26,0,.42-.12.61Z"/>
  <path class="cls-3" d="M93.02,51.32c-.09-.24-.05-.4.25-.37-.08.12-.17.25-.25.37Z"/>
  <path class="cls-3" d="M40.62,66.97c-.26.22-.31.02-.37-.18.12.06.25.12.37.18Z"/>
  <path class="cls-16" d="M17.02,64.01c0,.22-.07.31-.29.2.1-.07.19-.14.29-.2Z"/>
  <path class="cls-4" d="M66.56,48.31c-.03.19-.06.37-.27.12.09-.04.18-.08.27-.12Z"/>
  <path class="cls-4" d="M25.56,78.95c.22.24.01.24-.15.25l.15-.25Z"/>
  <path class="cls-16" d="M17.55,63.61c0,.22-.07.31-.29.2.1-.07.19-.13.29-.2Z"/>
  <path class="cls-3" d="M29.56,81.2c.04-.06.08-.13.13-.19.05.05.1.11.15.16-.09,0-.18.02-.27.03Z"/>
  <path class="cls-2" d="M63.41,18.36c-.15,0-.35.09-.35-.18.12.06.23.12.35.18Z"/>
  <path class="cls-13" d="M59.71,41.82c-.07-.09-.13-.18-.2-.27.07.09.13.18.2.27Z"/>
  <path class="cls-3" d="M20.38,65.45c.09-.07.18-.13.27-.2-.09.07-.18.13-.27.2Z"/>
  <path class="cls-3" d="M29.31,81.5c.08-.1.16-.19.24-.29-.08.1-.16.19-.24.29Z"/>
  <path class="cls-2" d="M44.27,32.47c-.02-.08-.04-.16-.06-.25.15,0,.3.01.46.02-.03.25-.21.24-.4.23Z"/>
  <path class="cls-9" d="M62.15,51.92c0-.13.01-.25.02-.38,0,.13-.01.25-.02.38Z"/>
  <path class="cls-10" d="M29.1,69.68c-.04.11-.07.22-.11.34.04-.11.07-.22.11-.34Z"/>
  <path class="cls-16" d="M77.23,69.92c.07-.1.14-.19.22-.29-.07.1-.14.19-.22.29Z"/>
  <path class="cls-3" d="M2.3,48.01c-.06.06-.12.12-.19.18.06-.06.12-.12.19-.18Z"/>
  <path class="cls-15" d="M28.19,69.7c.07-.06.13-.12.2-.19-.07.06-.13.12-.2.19Z"/>
  <path class="cls-2" d="M62.19,17.84c-.08-.06-.17-.11-.25-.17.08.06.17.11.25.17Z"/>
  <path class="cls-16" d="M17.21,63.84c-.07.06-.13.11-.2.17.07-.06.13-.11.2-.17Z"/>
  <path class="cls-16" d="M15.63,65.04c-.07.06-.14.12-.21.18.07-.06.14-.12.21-.18Z"/>
  <path class="cls-3" d="M49.4,94.66c.06-.08.12-.16.17-.24-.06.08-.12.16-.17.24Z"/>
  <path class="cls-3" d="M2.25,51.67c.09.06.17.12.26.18-.09-.06-.17-.12-.26-.18Z"/>
  <path class="cls-2" d="M32.35,18.09c-.1.05-.2.1-.3.15.1-.05.2-.1.3-.15Z"/>
  <path class="cls-3" d="M40.25,66.8c-.1-.04-.2-.09-.29-.13.1.04.2.09.29.13Z"/>
  <path class="cls-16" d="M20.3,61.71c-.07.06-.15.11-.22.17.07-.06.15-.11.22-.17Z"/>
  <path class="cls-4" d="M9.09,76.26c.04-.12.07-.24.11-.36-.04.12-.07.24-.11.36Z"/>
  <path class="cls-2" d="M63.02,18.16c-.08-.04-.16-.08-.23-.11.08.04.16.08.23.11Z"/>
  <path class="cls-3" d="M20,65.72c.09-.07.17-.14.26-.2-.09.07-.17.14-.26.2Z"/>
  <path class="cls-2" d="M62.79,40.92c.05.09.11.17.16.26-.05-.09-.11-.17-.16-.26Z"/>
  <path class="cls-2" d="M72.87,40.67c.08-.06.17-.11.25-.17-.08.06-.17.11-.25.17Z"/>
  <path class="cls-2" d="M63.67,18.49c-.09-.05-.18-.1-.28-.15.09.05.18.1.28.15Z"/>
  <path class="cls-2" d="M73.51,40.25l.25-.17-.25.17Z"/>
  <path class="cls-11" d="M59.13,59.27c.06-.08.12-.17.18-.25-.06.08-.12.17-.18.25Z"/>
  <path class="cls-3" d="M19.64,65.97c.08-.06.16-.12.24-.19-.08.06-.16.12-.24.19Z"/>
  <path class="cls-3" d="M19.47,66.09c.06-.04.12-.09.18-.13-.06.04-.12.09-.18.13Z"/>
  <path class="cls-11" d="M59.29,59.03c.03-.06.06-.12.09-.18-.03.06-.06.12-.09.18Z"/>
  <path class="cls-4" d="M61.59,61.44s.06-.07.09-.11c.04.01.08.03.11.05-.04.04-.09.09-.13.13-.02-.02-.04-.05-.07-.08Z"/>
  <polygon class="cls-13" points="50.01 35.56 50.01 35.55 50.01 35.53 50.01 35.56"/>
  <path class="cls-2" d="M63.82,18.55c-.05-.02-.11-.04-.16-.06.05.02.11.04.16.06Z"/>
  <path class="cls-3" d="M28.48,75.44c-.05.06-.1.11-.15.17.05-.06.1-.11.15-.17Z"/>
  <path class="cls-16" d="M15.28,65.33c-.05.04-.1.07-.16.11.05-.04.1-.07.16-.11Z"/>
  <path class="cls-10" d="M29.59,73.1c.03.05.06.1.09.15-.03-.05-.06-.1-.09-.15Z"/>
  <path class="cls-2" d="M70.57,41.99s-.03-.03-.04-.04c.02.01.03.02.05.04h0Z"/>
  <path class="cls-2" d="M60.6,17.18s-.1-.07-.15-.11l.15.11Z"/>
  <path class="cls-4" d="M26.22,78.12c-.05.06-.09.12-.14.17.05-.06.09-.12.14-.17Z"/>
  <path class="cls-16" d="M15.44,65.22c-.06.04-.11.08-.17.12.06-.04.11-.08.17-.12Z"/>
  <path class="cls-16" d="M11.85,68.27l-.16.16.16-.16Z"/>
  <path class="cls-3" d="M20.8,65.16c.06-.04.12-.07.18-.11-.06.04-.12.07-.18.11Z"/>
  <path class="cls-16" d="M76.78,70.31s-.06.05-.09.07c.03-.03.06-.05.09-.08,0,0,0,.01,0,.01Z"/>
  <path class="cls-16" d="M76.9,70.41c.04-.06.08-.11.13-.17-.04.06-.08.11-.13.17Z"/>
  <path class="cls-16" d="M19.28,62.4c-.05.03-.1.06-.16.08.05-.03.1-.06.16-.08Z"/>
  <path class="cls-2" d="M65.61,32.61s.01-.08.03-.12c.04-.01.08-.02.12-.02-.05.05-.1.1-.15.15Z"/>
  <path class="cls-16" d="M77.04,70.23c.04-.06.08-.12.12-.18-.04.06-.08.12-.12.18Z"/>
  <path class="cls-3" d="M30.73,81.65c.05.02.11.04.16.06-.05-.02-.11-.04-.16-.06Z"/>
  <path class="cls-16" d="M50.6,32.47s.09.01.13.02c-.04,0-.09-.01-.13-.02Z"/>
  <path class="cls-15" d="M27.85,69.94c.06-.04.11-.09.17-.13-.06.04-.11.09-.17.13Z"/>
  <path class="cls-15" d="M28.01,69.82s.09-.06.14-.09c-.05.03-.09.06-.14.09Z"/>
  <path class="cls-3" d="M92.84,48.1s-.07-.06-.1-.09c.03.03.07.06.1.09Z"/>
  <path class="cls-3" d="M92.99,48.25s-.06-.07-.09-.1c.03.03.06.07.09.1Z"/>
  <path class="cls-3" d="M92.75,51.59s.07-.06.11-.1c-.04.03-.07.06-.11.1Z"/>
  <path class="cls-3" d="M92.89,51.45s.06-.06.09-.09c-.03.03-.06.06-.09.09Z"/>
  <path class="cls-16" d="M67.9,54.06c.98.27,2.4-.54,2.78,1.16.18-.09.44.29.69.22.41-.12-.1-.85.91-.67,1.19.22.81,1.67,2.35,1.32,1.11-.25,2.16-.77,2.85.59.56,1.1.12,2.45-1.09,2.53-.27.02-.9-.26-1.14-.02-.53.54.25.46.42.59.85.62,1.69.55,2.16,1.8.43,1.15.03,2.1-.87,2.88-.5.44-1.03.42-1.53.75-.35.23-.49.76-.99.7-.02-.02-.03-.04-.05-.05.06-.07.11-.15.17-.22h0c.82-.72.91-1.48.15-2.29-.03-.04-.07-.08-.1-.11-.06-.04-.12-.09-.17-.13h0c-.17-.1-.34-.2-.51-.31h.01c-.32-.17-.64-.34-.95-.52h0c-.09-.04-.18-.1-.27-.15h.01c-.13-.09-.25-.18-.38-.28,0,0,0,0,0,0-1.94-1.96-.11-5.01-2.54-6.81-1.22-.9-1.72-.9-2.09.52-.44,1.68-.96,3.31-1.93,4.77.7-2.09,1.41-4.18,2.11-6.27ZM76.02,56.15c-1.6.24-1.86,2.61-.1,2.67,1.77.06,1.77-2.45.1-2.67Z"/>
  <path class="cls-16" d="M57.26,68.84c.49-.13.98-.27,1.46-.4.78,1.03,2.1,1.24,3.06,2-.15.32-.42.62.03.78.08-.26.16-.52.24-.78.32.26.5.57.54,1,.15,1.36.72,2.47,1.99,3.13.02,1.18,1.97.15,1.05,1.57-.3.47-.78.47-1.02.92-.12.23.6,1.3-.46.99-.55-.16-.03-2.21-1.28-.82-.43.48-.02.73-.82.9-.71.15-1.38-.53-1.85.43-.2-.52-.16-1-.09-1.57.19-1.4-.05-2.77-1.23-3.77-.58-1.33-1.16-2.65-1.74-3.98.04-.13.09-.27.13-.4Z"/>
  <path class="cls-15" d="M67.9,54.06c-.7,2.09-1.41,4.18-2.11,6.27,0,0,0,0,0,0-.52.23-.59.71-.68,1.19h0c-.44-.03-.41.27-.38.56h0c-.55.31-.34.49.11.64h0s.08.09.13.14h0s.09.09.13.13h0c.06.04.13.08.19.12.02.05.05.1.07.15.05.04.1.08.15.11h.02c.12.63.6.83,1.15.96-.28,1.19-.14.47-.89.14-.96-.42-.89.13-1.38.92-.52.35-.37-.85-.93-.4-.42-.31-.88-.17-1.33-.13-1.55-.89-1.39-2.05-.53-3.33.04-.04.09-.09.13-.13.66-.33.94-.91,1.07-1.6,1.11-.75,1.33-2.06,1.78-3.15.51-1.22.91-2.48,1.54-3.64.83,0,.65-.67.8-1.22.21-.75.31-.84,1.02-1.33.35.6.1,1.26.18,1.88-.96.44-.52,1.1-.27,1.73Z"/>
  <path class="cls-16" d="M49.8,72.83c.55-.2,1.01-.51,1.07-1.16.07-.87.8-1.25,1.31-1.78.4-.41.62.22.95.28-.71.34-.96.84-.97,1.69-.02,1.39,1.12,1.85,1.77,2.7-1.05.16-1.31-1.45-2.6-.86-.7.32-1.05,1.34-1.53,1.92,0-.93,0-1.86,0-2.8Z"/>
  <path class="cls-3" d="M62.18,64.84c.45-.04.91-.17,1.33.13.21.48.57.78,1.06.93.18.18.35.35.53.53.14.31.27.61.41.92l-.04.04c-1.17-1.37-2.17-2.71-3.89-1.5-1.16.81-2.89,2-1.45,3.18.75.61,1.77.73,2.37,1.54.52.7.45,1.62.89,2.37,1.14,1.91,3.22,1.54,4.93.73-.51-.3-.95-.59-1.39-.99l.05-.04c.53.23,1.06.45,1.58.68.04.13.09.27.13.4-.13.13-.27.27-.4.4-.31.13-.62.27-.93.4-.35.09-.71.18-1.06.27-.58-.09-1.15-.18-1.73-.27-1.27-.66-1.83-1.77-1.99-3.13-.05-.43-.22-.74-.54-1-.09,0-.18,0-.27,0-.96-.76-2.28-.96-3.06-2,.39-.37.03-1.19.8-1.33.36-.27.71-.53,1.07-.8.53-.49,1.06-.98,1.6-1.46Z"/>
  <path class="cls-3" d="M49.8,72.83c0,.93,0,1.86,0,2.8,0,.22,0,.44,0,.67,0,.09,0,.18,0,.27-.13,1.51.28,3.04-.27,4.53-.03.61-.69.65-.93,1.07-1.34.41-2.51.32-3.19-1.13-.03-.06-.1-.11-.1-.17-.01-3.19-.08-6.38.03-9.57.02-.63.92-.19,1.39-.32.89,0,1.78,0,2.66,0,.84.47.19,1.26.4,1.86ZM49.02,81.37c.05-.09.09-.18.14-.27.06-.08.12-.15.18-.23.38-2.38.22-4.78.2-7.18,0-.83.36-2.08-.38-2.45-.44-.21-2.59-.06-3.05.06-1.31.32-.69,3.25-.69,4.39,0,1.51-.69,5.05.9,5.96.78.59,1.55.58,2.32-.02.09-.05.18-.09.26-.14.05-.04.09-.09.14-.13Z"/>
  <path class="cls-3" d="M40.5,74.71c-.49.67-1.18,1.15-1.69,1.8-.21.27-.55.64-.61.98-.07.4.21.42.23.73.07,1.24-.12,2.72-1.6,2.11-2.35-.97-2.58-6.14-.35-7.38l.04.04c-.1.21-.21.42-.31.63-.13.22-.27.44-.4.67-1.15,1.62-.6,4.45,1.06,5.5.17.09.35.19.52.28.14.05.27.1.41.15.11-1.13-.22-2.1.18-3.23.09-.14.17-.27.26-.41.04-.05.08-.1.12-.15.06-.08.12-.15.17-.23.04-.05.07-.11.11-.16.09-.08.19-.17.28-.25.04-.05.09-.09.13-.14.09-.09.17-.18.26-.28.14-.08.27-.17.41-.25.1-.08.2-.15.3-.23.08-.06.16-.12.23-.17.07-.02.14-.04.21-.06.02.02.03.03.05.05Z"/>
  <path class="cls-16" d="M49.4,70.97c-.89,0-1.78,0-2.66,0-.17-.34-.26-.66-.01-1.02.36-.52.3-1.04-.12-1.51.66.1,1.31.39,2,.13h.93c.13-.04.27-.09.4-.13.15.05.31.1.46.14-.56.45-.4.68-1.04.76-.26.03-.33-.46-.72-.38-.37.07-.5.85-.6,1.11.74-.02,1.73-.17,1.37.89Z"/>
  <path class="cls-16" d="M66.71,64.31c-.55-.12-1.03-.33-1.15-.97.07.02.14.03.2.05h0c.08.06.17.11.25.17v-.02s.1.08.15.11c0,0,0,0,0,0,.09.05.17.1.26.15h0c1.15.7,2.53.5,3.75.92h.05c.2.09.4.18.6.27h0c.14.07.27.14.41.22l.03.04h.05c.06.04.13.07.19.11h.01c.09.05.18.1.26.14h.05c.79.64,1.65.73,2.57.34.02.02.03.04.05.05-.54,1.83-6.7-1.23-7.73-1.6Z"/>
  <path class="cls-6" d="M42.04,76.98c1.13-.13,1.61.39,1.49,1.51-.1.14-.2.28-.29.43,0,0,0,0,0,0-.17.09-.34.18-.51.27-.04,0-.08.02-.12.05-.99.01-1.41-.48-1.28-1.45,0,0,0,.02,0,.02.04-.1.08-.2.12-.29,0,0,0,.01,0,.01.06-.07.12-.14.19-.21,0,0,.01-.02.01-.02.04-.04.07-.07.11-.11,0,0,.02-.01.02-.01.1-.06.19-.12.29-.18Z"/>
  <path class="cls-16" d="M68.57,73.36c-.53-.23-1.06-.45-1.58-.68-.25-.92-.95-1.73-.68-2.78.62-.09.89-.13,1.52.04-.18.63-.46,1.29-.16,1.93.25.53,1.36.82.9,1.5Z"/>
  <path class="cls-16" d="M92.4,51.53c-.05.09-.09.18-.14.26-2.93.04-5.86.09-8.78.13,1.28-.9,2.81-.82,4.1-.45,1.19.35,2.37-.67,3.48.27.25.21.78-.68,1.34-.22Z"/>
  <path class="cls-16" d="M65.52,67.36c-.14-.31-.27-.61-.41-.92.43-.29,1.36-.56,1.78-.08.61.7-.32.7-.39,1.33-.06.49.59.68.64,1.18.09.86-.29.61-.82.64,0-.81-.06-1.6-.79-2.14Z"/>
  <path class="cls-3" d="M53.93,74.56c-.65-.85-1.79-1.31-1.77-2.7.01-.86.26-1.35.97-1.69,1.21-.02,2.16-.73,3.19-1.2.13.09.26.17.4.26-1.03.38-3.93.9-4.25,2.01-.37,1.28,1.2,2.69,2.01,3.42-.14.01-.28.02-.42.04-.04-.04-.09-.09-.13-.13Z"/>
  <path class="cls-3" d="M38.21,69.37c.62-.55,1.17.11,1.76.31.65.22,1.88.25,2.43.7,1.32,1.1-.26,4.21-1.9,4.33-.02-.02-.03-.03-.05-.05.03-.05.05-.11.08-.16,0,0,0,0,0,0,.08-.06.16-.12.24-.18,0,0,0,0,0,0,.22-.18.44-.37.66-.55.04-.04.09-.09.13-.13.52-.7,1.5-1.81.98-2.72-.49-.87-3.37-1.22-4.28-1.51l-.05-.04Z"/>
  <path class="cls-16" d="M54.06,74.69c.14-.01.28-.02.42-.04,0,0,0,0,0,0-.01.3.19.29.4.29.04.04.08.07.12.11,0,.37.22.46.54.42h0c0,.28.19.28.39.28h0s.1.08.15.13h-.01c.06.03.11.07.17.11h.02c.07.27.13.55.2.83-.5.17-1.17.81-1.14-.43,0-.07-.08-.2-.1-.2-1.31.21-.93-.88-1.15-1.5Z"/>
  <path class="cls-3" d="M58.87,73.22c1.18,1,1.42,2.38,1.23,3.77-.08.57-.11,1.05.09,1.57-.54-.18-.64.47-1.05.55,0,0-.05-.04-.05-.04,1.18-1.99.89-3.92-.26-5.81l.04-.04Z"/>
  <path class="cls-3" d="M65.52,67.36c.73.54.8,1.33.79,2.14,0,.13,0,.27,0,.4-.27,1.05.43,1.86.68,2.78,0,0-.05.04-.05.04-.72-.58-.92-1.39-.88-2.25.05-1.08-.06-2.12-.58-3.08l.04-.04Z"/>
  <path class="cls-3" d="M57.12,79.22c.1-.46.4-.94-.13-1.33h0c0-.31,0-.61-.01-.92,0,0,.03-.03.03-.03.67.84.39,2.29.37,3.29.85-.12,1.06-.79,1.71-1.17,0,0,.05.04.05.04,0,.13-.01.26-.02.38-.18.18-.35.35-.53.53-.52-.17-1.54,1.62-1.6-.4.04-.13.09-.27.13-.4Z"/>
  <path class="cls-16" d="M57.39,84.41c-.09.09-.18.17-.27.26-1.05-.09-1.98.67-3.06.41.42-.96,1.41-.36,2.08-.7.2-.1.82-.02,1.25.03Z"/>
  <path class="cls-3" d="M36.47,72.95c.41-1.28,1.04-2.45,1.74-3.58,0,0,.05.04.05.04-.38,1.29-.98,2.48-1.74,3.58l-.04-.04Z"/>
  <path class="cls-16" d="M66.31,74.83c.35-.09.71-.18,1.06-.27-.09.81.73.6,1.23.79-.8.35-1.62-.08-2.29-.53Z"/>
  <path class="cls-16" d="M77.75,65.76c-.11.61-.95.72-.91,0,.04-.71.78-.56.91,0Z"/>
  <path class="cls-3" d="M41.33,77.78c-.12.97.3,1.46,1.28,1.45-.29.85-.78.23-1.07.07-.71-.37-.55-.96-.21-1.53Z"/>
  <path class="cls-10" d="M33.81,66.25s.06.05.09.08c.11.09.21.17.32.26,0,0,0,0,0,0,.07.1.13.21.2.31-.66-.36-1.34-.56-2.07-.21l.83-.64s-.01,0-.01,0c.21.06.43.12.64.18Z"/>
  <path class="cls-3" d="M31.31,72.44s.08-.08.12-.13c.05-.05.09-.09.14-.14,0,0,0,0,0,0,.05-.05.09-.09.14-.14,0,0,0,0,0,0,.05-.05.09-.09.14-.14,0,0,0,0,0,0,.06-.07.13-.15.19-.22,0,0,0,0,0,0,.07-.06.15-.13.22-.19,0,0,0,0,0,0,.05-.05.1-.09.14-.14,0,0,0,0,0,0,.09-.09.19-.18.28-.26,0,0,0,0,0,0,.07-.02.14-.05.21-.07.02.02.04.04.06.06-.58.59-.9,1.47-1.82,1.68.08-.12.15-.24.23-.36Z"/>
  <path class="cls-16" d="M58.59,80.02c.18-.18.35-.35.53-.53.05.27.61.41.26.72-.18.16-.62.26-.79-.19Z"/>
  <path class="cls-16" d="M48.6,82.15c.25-.41.91-.46.93-1.07.2.04.49.17.31.35-.33.33-.61.86-1.24.72Z"/>
  <path class="cls-16" d="M93.33,49.8c-.04.22-.09.44-.13.67-.27-.02-.67.06-.62-.36.05-.44.47-.26.75-.3Z"/>
  <path class="cls-16" d="M64.58,65.91c-.5-.15-.86-.45-1.06-.93.56-.45.41.75.93.4.04.18.09.35.13.53Z"/>
  <path class="cls-10" d="M33.63,70.23c.08-.59.58-.83.99-1.14.06.03.12.05.19.08-.11.15-.21.3-.32.44,0,0,0,0,0,0-.06.04-.12.08-.18.13-.08.07-.15.14-.23.22-.15.09-.3.17-.45.26Z"/>
  <path class="cls-3" d="M33.63,70.23c.15-.09.3-.17.45-.26-.15.62-.55.99-1.17,1.15-.02-.02-.04-.04-.06-.06.25-.27.51-.55.76-.82h.02Z"/>
  <path class="cls-16" d="M70.16,72.12c-.48.28-.35.35-.87-.09.44-.27.44-.21.87.09Z"/>
  <path class="cls-16" d="M82.95,53c.05.6.13,1.2-.26,1.73-.19-.62.13-1.16.26-1.73Z"/>
  <path class="cls-16" d="M68.3,74.16c.13-.13.27-.27.4-.4.14.22.55.45.3.7-.25.25-.47-.16-.7-.3Z"/>
  <path class="cls-3" d="M34.48,69.62c.11-.15.21-.3.32-.44,0,0,0-.01,0-.01.07-.06.15-.13.22-.19,0,0,0,0,0,0,.1-.08.19-.17.29-.25h0c.07-.02.13-.04.2-.06.02.02.04.04.07.07-.22.47-.51.87-1.09.9Z"/>
  <path class="cls-3" d="M56.46,76.82c-.07-.28-.13-.56-.2-.84.25.32.5.64.75.96,0,0-.03.03-.03.03-.17-.05-.35-.1-.52-.15Z"/>
  <path class="cls-10" d="M31.31,72.44c-.08.12-.15.24-.23.36-.02.03-.05.07-.07.1-.05.06-.09.12-.14.19,0,0,0,0,0,0-.04.05-.09.09-.13.14,0,0,0,0,0,0-.05.04-.09.09-.14.13,0,0-.02,0-.02-.01-.06.02-.12.05-.18.07.07-.54.43-.81.91-.97Z"/>
  <path class="cls-3" d="M35.03,67.23c.46.1.89.22.94.8,0,0-.03.03-.03.03-.21-.14-.43-.28-.64-.42h0c-.08-.06-.15-.12-.23-.19h0c-.03-.05-.06-.12-.09-.18l.03-.04Z"/>
  <path class="cls-3" d="M33.18,66.06c-.28.21-.55.43-.83.64,0,0,0,0,0,0-.08.02-.16.03-.24.05,0,0-.04-.04-.04-.04.16-.56.63-.6,1.1-.64Z"/>
  <path class="cls-3" d="M30.23,68.16c-.08.02-.16.05-.24.07.05-.55.48-.65.9-.74.02.02.04.05.06.07-.24.2-.48.4-.72.6,0,0,0,0,0,0Z"/>
  <path class="cls-16" d="M75.97,44.99c-.29.25-.28.3-.58.05.31-.34.25-.26.58-.05Z"/>
  <path class="cls-16" d="M70.09,81.76c-.37.1-.36.18-.68-.1.39-.2.35-.12.68.1Z"/>
  <path class="cls-3" d="M31.28,67.23c.09-.43.45-.48.8-.54,0,0,.04.04.04.04-.06.08-.12.15-.17.23,0,0,0,0,0,0-.05.04-.11.08-.16.12h0c-.05.03-.11.07-.16.11,0,0,0,0,0,0-.1.04-.2.08-.29.12-.02-.02-.04-.05-.06-.07Z"/>
  <path class="cls-16" d="M67.49,67.62c.27.15.29.32.06.5-.34-.28-.27-.22-.06-.5Z"/>
  <path class="cls-16" d="M83.35,51.93c-.13.13-.27.27-.4.4,0-.15,0-.3.01-.45.13.02.26.03.39.05Z"/>
  <path class="cls-3" d="M34.42,66.9c-.07-.1-.13-.21-.2-.31.3-.04.51.05.55.38-.02.02-.04.04-.06.06-.1-.04-.19-.08-.29-.12h0Z"/>
  <path class="cls-3" d="M29.88,68.32c-.18.14-.36.28-.54.42-.03-.42.23-.45.54-.42Z"/>
  <path class="cls-3" d="M42.73,79.18c.17-.09.34-.18.51-.27-.03.35-.16.51-.51.27Z"/>
  <path class="cls-16" d="M57.72,83.66c-.25.09-.38.01-.38-.23.19-.1.32-.02.38.23Z"/>
  <path class="cls-3" d="M35.97,68.03c.07.06.13.13.2.19-.11.08-.22.16-.33.24-.02-.02-.04-.04-.07-.07.05-.11.11-.22.16-.33l.03-.03Z"/>
  <path class="cls-3" d="M33.81,66.25c-.21-.06-.43-.12-.64-.18.29-.22.56-.32.64.18Z"/>
  <path class="cls-16" d="M57.12,79.22c-.04.13-.09.27-.13.4-.21-.22-.14-.34.13-.4Z"/>
  <path class="cls-3" d="M30.88,67.49c.13-.09.27-.18.4-.27.02.02.04.05.06.07-.13.09-.27.18-.4.27-.02-.02-.04-.05-.06-.07Z"/>
  <path class="cls-3" d="M43.23,78.92c.1-.14.2-.28.29-.43,0,.22.05.45-.29.43Z"/>
  <path class="cls-16" d="M80.21,44.51c.02-.11.07-.13.15-.06-.01.11-.06.13-.15.06Z"/>
  <path class="cls-16" d="M49.8,76.56c0-.09,0-.18,0-.27.07.05.13.11.2.16l-.2.1Z"/>
  <path class="cls-3" d="M35.83,68.45c-.09.09-.18.18-.27.27-.02-.02-.04-.04-.07-.07.03-.07.05-.13.08-.2h0c.06-.02.13-.04.19-.07.02.02.04.04.07.07Z"/>
  <path class="cls-3" d="M34.21,66.59c-.11-.09-.21-.17-.32-.26.19-.01.32.05.32.26Z"/>
  <path class="cls-3" d="M41.44,77.5c-.04.1-.08.2-.12.29.04-.1.08-.2.12-.29Z"/>
  <path class="cls-3" d="M41.62,77.3c-.06.07-.12.14-.19.21.06-.07.12-.14.19-.21Z"/>
  <path class="cls-3" d="M42.04,76.98c-.1.06-.19.12-.29.18.1-.06.19-.12.29-.18Z"/>
  <path class="cls-3" d="M30.61,73.35s.09-.09.14-.13c-.05.04-.09.09-.14.13Z"/>
  <path class="cls-3" d="M30.75,73.21s.09-.09.13-.14c-.04.05-.09.09-.13.14Z"/>
  <path class="cls-3" d="M30.88,73.08c.05-.06.09-.12.14-.19-.05.06-.09.12-.14.19Z"/>
  <path class="cls-3" d="M41.74,77.18s-.07.07-.11.11c.04-.04.07-.07.11-.11Z"/>
  <path class="cls-16" d="M56.99,77.89s-.02.03-.03.05c0-.02.02-.03.03-.05h0Z"/>
  <path class="cls-3" d="M34.77,66.97s.09.09.13.13c-.02.02-.04.03-.05.05-.05-.04-.09-.08-.14-.12.02-.02.04-.04.06-.06Z"/>
  <path class="cls-3" d="M34.9,67.1s.09.09.13.13c0,0-.03.04-.03.04-.05-.04-.1-.08-.15-.12.02-.02.03-.03.05-.05Z"/>
  <path class="cls-3" d="M34.3,69.75c.06-.04.12-.08.18-.13-.06.04-.12.08-.18.13Z"/>
  <path class="cls-8" d="M23.27,41.83c.26-2.46-1.06-3.82-3.17-4.75-.81-.36-1.01-1.21-.65-2.07.36-.85,1.21-1.42,1.91-.99,2.25,1.38,5,1.28,7.21,2.62.67.4,1.73.8,1.48,2.01,0,0-.01.02-.01.02-.96,1.14-1.47,2.53-2.2,3.8.13-1.96-.79-2.91-2.75-2.79-1.34.08-1.73.99-1.82,2.15Z"/>
  <path class="cls-9" d="M23.27,41.83c.09-1.16.48-2.07,1.82-2.15,1.96-.12,2.88.83,2.75,2.79,0,0,0,0,0,0-.31.04-.26.27-.25.47,0,0,0,.05,0,.05-.13.17-.34.32-.37.51-.19,1.25-.57,2.16-2.11,1.52h-.05s-.03-.03-.03-.03c-.1-.07-.2-.14-.3-.21,0,0,0,0,0,0-.08-.06-.16-.11-.23-.17,0,0-.01,0-.01,0-.04-.04-.08-.08-.12-.12,0,0-.01-.02-.01-.02-.06-.07-.11-.15-.17-.22,0,0,0,0,0,0-.04-.05-.08-.1-.12-.14,0,0,0,0,0,0-.04-.05-.08-.1-.12-.14,0,0,0,0,0,0,.02-.23-.01-.43-.26-.52,0,0,0,0,0,0-.04-.38.03-.79-.34-1.06-.03-.17-.06-.35-.08-.52Z"/>
  <path class="cls-8" d="M31.23,34.91s-.07,0-.07-.05c-.09-.07-.18-.15-.27-.22-.05-.04-.09-.07-.14-.11-.03-.42-.27-.58-.67-.54,0,0,0,0,0,0-.06-.08-.11-.17-.17-.25,0,0,0,.01,0,.01-.03-.19-.05-.39-.08-.58.27-.31.49-.78.83-.89.96-.32,1.76-.9,2.63-1.37.45.13.89.26,1.34.39,0,0,0,0,0,0,.1.43.35.72.81.79,0,0,0,0,0,0,.04.05.08.1.12.14,0,0,0,.01,0,.01.05.08.1.17.15.25,0,0,0,0,0,0,0,.17-.01.34-.02.51-.02.04-.06.06-.11.05-.26.02-.51.06-.55.39,0,0,0,0,0,0-.29-.02-.52.05-.53.4,0,0,0,0,0,0-.08.06-.16.12-.23.18,0,0,.02-.02.02-.02-.1.09-.2.18-.3.27-.04.04-.08.07-.12.11-.05.04-.1.09-.16.13,0,0,0,0,0,0-.08.06-.15.13-.23.19,0,0,0,.02,0,.02-.65.35-1.27.85-2.07.35,0,0,0,0,0,0-.06-.05-.12-.1-.18-.14Z"/>
  <path class="cls-13" d="M34.63,31.29c-.45-.13-.89-.26-1.34-.39-1.07-.72-1.44-1.78-1.64-3.01-.16-1.04-1.07-.57-1.66-.53-.33.02-1.07-.11-.93.62.3,1.67-.14,3.39.39,5.04-.02.01-.03.03-.05.04-.94-1.28-.3-2.79-.52-4.22-.21-1.38-1-1.83-2-2.62,1.4-1.12,3.67-.49,4.64.9.55.78.4,1.74.86,2.51.47.77,1.53,1.21,2.26,1.66Z"/>
  <path class="cls-10" d="M16.28,48.99c1.26-2.04,5.04-1.18,7.02-1.19.65,0,2.56-.36,3.04.21.44.52-.1,3.37-.13,4-2.96-.03-5.93-.06-8.89-.09,0,0,0,0,0,0-.09-.05-.17-.09-.26-.14,0,0,0,0,0,0-.03-.06-.06-.12-.09-.17,2.02.38,4.05.16,6.08.18,3.14.04,3.13.01,3.07-3.13,0-.47-.15-.61-.61-.61-2.11.02-4.22,0-6.32,0-2.59,0-3.27.94-2.42,3.35-.08-.01-.15-.03-.23-.04,0,0,0,.01,0,.01-.05-.08-.1-.17-.15-.25,0,0,0,0,0,0-.04-.08-.09-.17-.13-.25,0,0,0-.01,0-.01-.04-.53-.08-1.05-.11-1.58,0,0,0,0,0,0,.05-.1.1-.19.15-.29Z"/>
  <path class="cls-6" d="M18.76,41.18c1.62.19,1.83,2.6.07,2.69-1.78.08-1.79-2.46-.07-2.69Z"/>
  <path class="cls-6" d="M26.42,31.29c-.1,1.54-2.44,1.4-2.22-.14.19-1.34,2.09-1.18,2.22.14Z"/>
  <path class="cls-2" d="M38.88,31.56c-.13,0-.26,0-.4,0,0-.05,0-.11,0-.16.36-.2.73-.41,1.09-.61h0c.09-.05.19-.09.28-.13h0c.55-.16,1.08-.42,1.64-.5,1.75-.25,1.16-1.26.76-2.22h0c-.1-.17-.19-.35-.29-.52h0c-.09-.13-.18-.26-.27-.39-.04-.05-.08-.1-.13-.15-.05-.04-.09-.09-.14-.13h0c-.26-.22-.53-.45-.79-.67h0c-.1-.12-.21-.23-.31-.35,0,0,.04-.04.04-.04,1.37.05,2.51,2.07,2.55,3.27.06,1.71-2.71,2.06-4.03,2.6Z"/>
  <path class="cls-15" d="M19.98,52.21c-.31.46.17,1.38-.82,1.43-1,.05-1.53-.5-1.71-1.45.84,0,1.68,0,2.53.01Z"/>
  <path class="cls-2" d="M35.68,22.1c.24-1.11,1.14-1.55,2.05-1.94.22-.09.38.17.34.38-.43,2.18.43,3.76,2.24,4.91.05.03.04.17.05.25,0,0-.04.04-.04.04-.07-.02-.14-.04-.22-.06h0c-1.03-.98-2.34-1.82-2.41-3.39-.03-.58.52-1.6-.22-1.7-.68-.09-1.41,1.13-1.74,1.56-.02-.02-.04-.03-.05-.05Z"/>
  <path class="cls-2" d="M49.8,19.98c0,3.02,0,6.03,0,9.05-.09.09-.17.18-.26.27-.02-.03-.05-.05-.07-.08.03-2.82.05-5.63.1-8.45.01-.74-.19-1.34-.75-1.82.02-.02.03-.04.05-.06.31.47.47-.95.66-.09.08.38.3.75.26,1.16Z"/>
  <path class="cls-2" d="M37.28,29.18c-1.65-1.27-2.81-4.85-2.12-6.62.08-.19.34-.31.52-.46.02.02.04.03.05.05-.83,1.73-.68,3.36.47,4.9h0c.36.62.72,1.23,1.08,1.84v.02c.02.08.03.15.04.23-.02.01-.03.03-.05.05Z"/>
  <path class="cls-3" d="M19.98,52.21c-.84,0-1.68,0-2.53-.01-.04-.09-.08-.18-.13-.27,2.96.03,5.93.06,8.89.09,0,.06.01.12.02.18-.09,0-.18,0-.27,0-.04,0-.09,0-.13,0-.18,0-.36,0-.54,0-.26,0-.53,0-.79,0-.84.04-1.69.08-2.53.12-.67-.04-1.33-.08-2-.12Z"/>
  <path class="cls-2" d="M45.4,29.18c-.5-.27-.42-9.29.13-9.47.03.02.05.04.08.06-.4,3.11-.07,6.24-.16,9.35-.02.02-.04.04-.05.05Z"/>
  <path class="cls-2" d="M49.54,29.31c-.15.86-.78.28-1.51.19-.6-.08-2.36.22-2.63-.32.02-.02.04-.04.05-.05,1.34.04,2.68.07,4.02.11.02.03.05.05.07.08Z"/>
  <path class="cls-2" d="M45.53,19.71c0-.63.38-1.02.9-1.2.86-.31,1.76-.52,2.45.4-.02.02-.03.04-.05.06-.99-.48-1.96-.73-2.78.3h-.01c-.14.18-.28.34-.42.5-.03-.02-.05-.04-.08-.06Z"/>
  <path class="cls-8" d="M25.11,45.03c1.53.65,1.92-.27,2.11-1.52.03-.18.24-.34.37-.51-.22.76-.28,1.63-.7,2.25-.55.8-1.19,0-1.78-.22Z"/>
  <path class="cls-5" d="M39.57,30.8c-.36.2-.73.41-1.09.61l-.04-.02s-.04.02-.04.02c-.05-.05-.11-.1-.16-.15,0,0,.02.01.02.01-.22-.53-.45-1.07-.67-1.6,0,0,0,0,0,0-.02-.11-.04-.22-.06-.34.73.42.46,2.23,2.04,1.47Z"/>
  <path class="cls-13" d="M31.41,35.05c.8.5,1.42,0,2.07-.35-.02.06-.04.12-.06.17,0,0,0,0,0,0-.23.21-.46.42-.68.63,0,0-.02,0-.02,0-.63.4-.87-.32-1.31-.46Z"/>
  <path class="cls-2" d="M37.59,29.67c.22.53.44,1.07.67,1.6-.6-.38-.75-.94-.67-1.6Z"/>
  <path class="cls-2" d="M45.41,9.33c0-.8,0-1.6,0-2.4.21.8.22,1.6,0,2.4Z"/>
  <path class="cls-13" d="M35.44,32.07c-.46-.07-.71-.35-.81-.79.27.26.54.52.81.79Z"/>
  <path class="cls-3" d="M16.14,49.28c.04.53.08,1.05.11,1.58-.45-.5-.33-1.04-.11-1.58Z"/>
  <path class="cls-8" d="M23.35,42.35c.38.27.31.68.34,1.06-.11-.35-.23-.71-.34-1.06Z"/>
  <path class="cls-13" d="M29.83,33.16c.03.19.06.39.08.58-.17-.23-.34-.46-.52-.68.02-.01.03-.03.05-.04.13.05.26.1.38.15Z"/>
  <path class="cls-13" d="M30.08,33.98c.4-.04.64.12.67.54-.22-.18-.45-.36-.67-.54Z"/>
  <path class="cls-13" d="M34.5,33.83c.01-.35.24-.42.53-.4-.18.13-.35.26-.53.4Z"/>
  <path class="cls-2" d="M37.53,29.33c.02.11.04.22.06.34-.39.03-.27-.29-.32-.49.02-.02.03-.03.05-.05.07.06.14.13.2.19h0Z"/>
  <path class="cls-13" d="M35.03,33.43c.04-.33.29-.37.55-.39-.18.13-.37.26-.55.39Z"/>
  <path class="cls-13" d="M35.69,32.99c0-.17.01-.34.02-.51.2.18.36.35-.02.51Z"/>
  <path class="cls-8" d="M23.7,43.42c.25.09.28.3.26.52-.09-.17-.18-.35-.26-.52Z"/>
  <path class="cls-2" d="M45.41,13.46c0-.22,0-.44,0-.67.19.22.19.44,0,.67Z"/>
  <path class="cls-8" d="M27.59,42.96c0-.2-.06-.43.25-.47-.08.16-.17.31-.25.47Z"/>
  <path class="cls-8" d="M24.74,44.79c.1.07.2.14.3.21-.1-.07-.2-.14-.3-.21Z"/>
  <path class="cls-3" d="M16.98,51.61c.03.06.06.12.09.17-.1-.08-.2-.15-.3-.23,0,0,.02-.02.02-.02.06.02.13.05.19.07h0Z"/>
  <path class="cls-2" d="M36.3,28.87c-.02.11-.07.13-.15.06.01-.11.06-.13.15-.06Z"/>
  <path class="cls-13" d="M30.89,34.63c.09.07.18.15.27.22-.09-.07-.18-.15-.27-.22Z"/>
  <path class="cls-13" d="M33.97,34.26c.1-.09.2-.18.3-.27-.03.06-.05.13-.08.19,0,0,0,.01,0,.01-.07.02-.15.04-.22.06Z"/>
  <path class="cls-13" d="M35.71,32.49c-.05-.08-.1-.17-.15-.25.05.08.1.17.15.25Z"/>
  <path class="cls-3" d="M16.28,48.99c-.05.1-.1.19-.15.29.05-.1.1-.19.15-.29Z"/>
  <path class="cls-8" d="M24.51,44.62c.08.06.16.11.23.17-.08-.06-.16-.11-.23-.17Z"/>
  <path class="cls-13" d="M29.91,33.73c.06.08.11.17.17.25-.06-.08-.11-.17-.17-.25Z"/>
  <path class="cls-8" d="M24.2,44.25c.06.07.11.15.17.22-.06-.07-.11-.15-.17-.22Z"/>
  <path class="cls-13" d="M34.26,34.01c.08-.06.16-.12.23-.18-.08.06-.16.12-.23.18Z"/>
  <path class="cls-3" d="M17.06,51.79c.09.05.17.09.26.14-.09-.05-.17-.09-.26-.14Z"/>
  <path class="cls-3" d="M16.54,51.37c.08.01.15.03.23.04,0,0,0,0,0,0,0,.04,0,.08.02.12,0,0-.02.02-.02.02-.08-.06-.15-.12-.23-.18Z"/>
  <path class="cls-3" d="M16.26,50.87c.04.08.09.17.13.25-.04-.08-.09-.17-.13-.25Z"/>
  <path class="cls-3" d="M16.4,51.13c.05.08.1.17.15.25-.05-.08-.1-.17-.15-.25Z"/>
  <path class="cls-13" d="M31.23,34.91c.06.05.12.1.18.14-.06-.05-.12-.1-.18-.14Z"/>
  <path class="cls-8" d="M23.97,43.95s.08.1.12.14c-.04-.05-.08-.1-.12-.14Z"/>
  <path class="cls-8" d="M24.08,44.1s.08.1.12.14c-.04-.05-.08-.1-.12-.14Z"/>
  <path class="cls-8" d="M24.38,44.48s.08.08.12.12c-.04-.04-.08-.08-.12-.12Z"/>
  <path class="cls-13" d="M35.55,32.22s-.08-.1-.12-.14c.04.05.08.1.12.14Z"/>
  <path class="cls-2" d="M38.24,31.27c.05.05.11.1.16.15-.05-.05-.11-.1-.16-.15Z"/>
  <path class="cls-6" d="M78.63,25.41c.52-.34,2.69-2.2,3.37-1.93.67.26.68,1.76,1.07,2.34.85,1.29.98,1.29-.14,2.48-1.11,1.18-2.27,2.3-3.41,3.46v.02c-.08.07-.15.14-.22.21-.04,0-.06.02-.06.05-.23.2-.46.39-.68.59-3.66,3.07-7.57,5.75-11.89,7.84-.52.25-.7.13-.95-.32-1.39-2.43-1.34-2.35.76-4.18,3.18-2.78,6.27-5.67,9.4-8.51.26-.23.55-.42.83-.62.41-.31.83-.62,1.24-.94l-.04-.03s.03.04.03.04c.13-.09.26-.19.39-.28,0,0,0,0,0,0,.1-.06.2-.13.3-.19,0,0,.02,0,.02,0Z"/>
  <path class="cls-2" d="M55.92,31.56c-.85-1.3-2.67-.52-3.53-1.53-.7-.83.02-2.55.87-3.01.02.02.03.03.05.05-.02.07-.04.14-.06.21h0c-.64.66-.93,1.47-.8,2.35.06.44.61.3.94.4l1.8.6c.2.09.4.18.6.27,0,0,0,0,0,0,.13.06.25.12.38.19,0,0,0-.01,0-.01.25.06.52.7.74-.03h-.01c.09-.28.18-.55.27-.82h0c.09-.22.18-.45.27-.67h0c.05-.08.09-.18.14-.27h0c.04-.08.09-.18.13-.27h0c.05-.09.1-.17.15-.26h0c.05-.08.1-.17.14-.26h0c.06-.07.11-.16.17-.25l-.02.02c.04-.06.08-.11.12-.17,0,0,0,0,0,0,.06-.08.12-.17.17-.25,0,0-.02.02-.02.02.04-.06.08-.11.12-.17h0c.09-.13.18-.26.27-.39h0c.14-.22.28-.44.42-.66h0c1.39-1.98.78-5.3-1.7-6-.1,1.19.09,2.27-.62,3.33-.78,1.16-2.19,1.97-3.26,2.82l-.05-.04c.38-1.28,2.14-1.72,2.92-2.77.4-.54.64-1.1.71-1.77.05-.47-.47-1.77.04-2.04,1-.52,2.4,1.43,2.64,2.12.37,1.03.05,2.27.31,3.19.03.12-.12.25-.05.4.08.18.64.02.66.08.1.34-.2,1.14-.53,1.28-.3.12-.41-.43-.78-.3-.44.16-.58,1.09-.74,1.45-.18.4-.89,1.13-.84,1.47.06.51.75.47.68,1.1-.04.38-.89,1.08-1.18,1.11-.6.08-.81-.48-1.42-.52h0Z"/>
  <path class="cls-16" d="M77.93,25.88c-.41.31-.83.62-1.24.94.19-.61.56-.97,1.24-.94Z"/>
  <path class="cls-16" d="M78.55,32.61c.23-.2.46-.39.68-.59.33.85-.37.49-.68.59Z"/>
  <path class="cls-2" d="M64.82,33.27c.27-.22.53-.44.8-.67-.07.46-.31.7-.8.67Z"/>
  <path class="cls-2" d="M55.92,31.56c-.06.93-.96.06,0,0h0Z"/>
  <path class="cls-16" d="M78.32,25.6c-.13.09-.26.19-.39.28-.03-.32.17-.31.39-.28Z"/>
  <path class="cls-16" d="M78.61,25.41c-.1.06-.2.13-.3.19,0-.21.08-.31.3-.19Z"/>
  <path class="cls-16" d="M79.29,31.98c.07-.07.14-.14.21-.21.1.24.03.32-.21.21Z"/>
  <path class="cls-2" d="M53.26,27.03s.09-.09.13-.13c0,0,.04.05.04.05-.04.05-.08.09-.12.14-.02-.02-.03-.03-.05-.05Z"/>
  <path class="cls-2" d="M53.39,26.89s.09-.08.13-.13c0,0,.05.04.05.04-.05.04-.09.09-.14.13,0,0-.04-.05-.04-.05Z"/>
  <path class="cls-16" d="M33.97,34.26c.07-.02.15-.04.22-.06-.04.47-.32.69-.78.68.02-.06.04-.12.06-.17,0,0,0-.02,0-.02.08-.06.15-.13.23-.19,0,0,0,0,0,0,.05-.04.1-.09.16-.13.04-.04.08-.07.12-.11Z"/>
  <path class="cls-16" d="M32.73,35.51c.23-.21.46-.42.68-.63.01.47-.18.72-.68.63Z"/>
  <path class="cls-16" d="M24.51,52.21c.26,0,.53,0,.79,0-.26.18-.53.18-.79,0Z"/>
  <path class="cls-16" d="M25.84,52.21s.09,0,.13,0c-.04,0-.09,0-.13,0Z"/>
  <path class="cls-8" d="M59.17,48.75c.33.87.04,1.77.08,2.65,0,.18,0,.35,0,.53-.04.13-.09.27-.13.4-.05.35-.09.71-.14,1.06-.16.04-.33.07-.13.27,0,.09,0,.17,0,.26-1.32.57-.87-.23-1.22-.94-.48-.97-1.05-.65-2.09-.81-2.12-.32-5.08-1.02-7.2-.32-.82.27-1.25,1-2.18,1.18-1.06.2-2.23,0-3.29-.1-2.28-.22-4.62-.45-6.65.86-.74-1.29-.6-2.73-.67-4.13.28-.27.44.23.7.11.08.02.16.03.24.05l.16.09h.05s.05.01.05.01c.04.09.09.18.13.27-.03,1.44,3.17-.78,3.76-.8.8-.03,1.31.43,2.01.69.95.34,1.59.2,2.53-.16,1.9-.74,3.62-.84,5.64-.96,1.04-.06,1.95-.37,2.96-.51.75-.1,1.57.35,2.29.02.27.76.59,1.46,1.57,1.48.86.02,1.19-.58,1.53-1.2Z"/>
  <path class="cls-12" d="M38.96,41.61c4.89-4.24,10.09-4.52,15.57-1.22,0,0,.02,0,.02,0,.15.12.3.24.45.35,0,0,0,0,0,0,.22.19.43.37.65.56.04.04.09.08.13.12.13.14.27.27.4.41,0,0,0,0,0,0,.05.05.09.1.14.15,0,0-.01,0-.01,0,.3.44.62.87.02,1.32-.05.04-.09.07-.14.11-1.08.88-1.9.55-2.93-.29-3.68-3.01-9.44-2.56-12.48.85-.39.44-.77.89-1.39.52-.66-.39-1.5-.69-1.41-1.72,0,0,0,0,0,0,.33-.39.65-.77.98-1.16h.02Z"/>
  <path class="cls-13" d="M37.97,42.76c-.09,1.03.75,1.33,1.41,1.72.62.36,1-.09,1.39-.52,3.05-3.41,8.8-3.86,12.48-.85,1.03.84,1.85,1.17,2.93.29-.33,1.41-3.18,1.02-4.2,1.05-.27,0-1.74-.15-1.85.27-.05.21.43.43.57.65-2.39.98-5.29-.83-7.69-.1-.94.28-1.92.53-2.85.8-1.15.34-.53.87-1.38,1.48.54-1.55-.23-2.31-1.63-2.68.39-.43.52-.91.32-1.48-.16-.45.12-.58.5-.62Z"/>
  <path class="cls-12" d="M37.15,44.85c1.4.37,2.17,1.13,1.63,2.68-.01.09-.03.18-.04.26-.13.49-.25.98-.38,1.47-.05.08-.11.15-.16.23-.43.33-.92.46-1.45.43l-.05-.03s-.05.01-.05.01c-.05-.03-.11-.06-.16-.09-.08-.02-.16-.03-.24-.05-.19-.31-.38-.61-.58-.92-.02-1.52.21-2.96,1.48-4.01Z"/>
  <path class="cls-12" d="M59.17,48.75c-.34.62-.67,1.22-1.53,1.2-.98-.03-1.3-.72-1.57-1.48,0-.37,0-.74,0-1.11.04-.07.07-.14.11-.21.37-.71.91-1.13,1.74-1.09.89.31,1.1,1.1,1.32,1.88-.02.27-.05.54-.07.81Z"/>
  <path class="cls-13" d="M56.32,43.28c.6-.45.28-.88-.02-1.32.42.07.7.3.66.73-.03.34-.21.62-.64.58Z"/>
  <path class="cls-13" d="M38.36,49.27c.13-.49.25-.98.38-1.47.32.6.1,1.07-.38,1.47Z"/>
  <path class="cls-13" d="M36.76,49.93c.53.02,1.02-.1,1.45-.43-.2.69-.76.68-1.32.7-.04-.09-.09-.18-.13-.27Z"/>
  <path class="cls-13" d="M55.65,41.3c-.22-.19-.43-.37-.65-.56.37,0,.62.16.65.56Z"/>
  <path class="cls-13" d="M55,40.74c-.15-.12-.3-.24-.45-.35.29-.05.41.09.45.35Z"/>
  <path class="cls-13" d="M56.18,41.82c-.13-.14-.27-.27-.4-.41.3-.03.44.1.4.41Z"/>
  <path class="cls-13" d="M56.31,41.97s-.09-.1-.14-.15c.05.05.09.1.14.15Z"/>
  <path class="cls-8" d="M56.18,47.14c-.04.07-.07.14-.11.21.04-.07.07-.14.11-.21Z"/>
  <path class="cls-4" d="M9.5,71.24c.68.22.52,1.19.38,1.59-.07.2-.36.49-.45.72-.11.27.12.56-.1.84-.44.57-1.85.47-2.44.28.28-.61.99-.83,1.38-1.47.46-.76.53-1.35,1.24-1.95Z"/>
  <path class="cls-9" d="M36.22,53.8c2.03-1.31,4.37-1.08,6.65-.86,1.06.1,2.23.3,3.29.1.93-.18,1.36-.91,2.18-1.18,2.12-.7,5.08,0,7.2.32,1.04.16,1.61-.16,2.09.81.35.71-.1,1.51,1.22.94-.82,2.18-2.02,4.11-3.86,5.59-.73-.02-.6-.98-1.1-1.09-1.29-.28-2.64-.44-3.92-.59-1.47-.18-3.13.17-4.7.44-1.79.31-3.47,1.23-5.34,1.13-.18-.09-.35-.19-.53-.28-1.23-1.37-2.33-2.82-3.07-4.52-.04-.27-.09-.53-.13-.8Z"/>
  <path class="cls-14" d="M39.95,59.39c1.86.1,3.54-.82,5.34-1.13,1.57-.27,3.23-.61,4.7-.44,1.28.15,2.63.31,3.92.59.49.11.37,1.07,1.1,1.09-.09.13-.18.26-.27.39-1.77,1.01-3.55,1.98-5.62,2.21-3.43.39-6.53-.4-9.16-2.72Z"/>
  <path class="cls-5" d="M42.61,38.37c.1.26.13.23.03.51-.23-.17-.11-.24-.03-.51Z"/>
  <path class="cls-15" d="M60.58,66.31c-.36.27-.71.53-1.07.8-.01-.53.22-.95.69-1.16.28-.13.38.1.37.36Z"/>
  <path class="cls-15" d="M52.73,67.77c.49-.18.98-.35,1.46-.53-.32.53-1.16.46-1.35,1.16-.47-.13.03-.44-.12-.63Z"/>
  <path class="cls-15" d="M54.3,69.05c-.5.43-.82.2-.35-.42.1.12.2.24.35.42Z"/>
  <path class="cls-16" d="M50.62,70.59c-.35.31-.17.27-.77-.13.37-.34.39-.2.77.13Z"/>
  <path class="cls-15" d="M56.72,69.23c-.13-.09-.26-.17-.4-.26.31-.04.62-.09.93-.13-.04.13-.09.27-.13.4-.1,0-.2.01-.3.02-.04.01-.07,0-.1-.03Z"/>
  <path class="cls-15" d="M58.27,65.63c-.52.39-.68.13-.25-.33.07.09.13.18.25.33Z"/>
  <path class="cls-15" d="M56.17,66.88c-.09-.4.05-.74.49-.56-.1.12-.21.24-.49.56Z"/>
  <path class="cls-15" d="M59.12,64.58c-.08.11-.15.23-.23.34-.04-.04-.08-.08-.11-.11.11-.08.23-.15.34-.23,0,0,0,0,0,0Z"/>
  <path class="cls-16" d="M51.13,68.17c.09,0,.18,0,.26,0-.03.07-.07.13-.1.2-.05-.07-.11-.13-.16-.2Z"/>
  <path class="cls-9" d="M68.5,51.94c-.06-1.25-.12-2.51-.19-3.76-.02-.39.24-.36.49-.36,2.67,0,5.35-.02,8.02.01,1.06.02,1.74.67,1.94,1.68.16.81.13,1.65-.85,2.03.27-2.2-4.73-1.28-5.8-1.4-.74-.08-2.33-1.15-2.99-.93-.67.23-.56,2.17-.62,2.72Z"/>
  <path class="cls-14" d="M68.5,51.94c.06-.55-.06-2.49.62-2.72.66-.22,2.25.85,2.99.93,1.08.12,6.08-.8,5.8,1.4,0,0,0,0,0,0-.13.11-.27.22-.4.32-1.95.38-3.91.1-5.87.17-1.04.03-2.09-.06-3.13-.09Z"/>
  <path class="cls-9" d="M77.51,51.86c.13-.11.27-.22.4-.32-.13.11-.27.22-.4.32Z"/>
  <path class="cls-9" d="M58.86,53.66c-.21-.2-.03-.23.13-.27,0,.05,0,.09,0,.14-.04.04-.09.09-.13.13Z"/>
  <path class="cls-14" d="M34.8,69.17c-.06-.03-.12-.05-.19-.08-1.06-.5-1.71-1.88-3.19-1.46.07-.15.14-.31.22-.46,0,0,0,0,0,0,.05-.04.11-.08.16-.12,0,0,0,.01,0,.01.05-.04.11-.08.16-.12,0,0,0,0,0,0,.14-.09.27-.18.41-.27,0,0,0,0,0,0,.73-.36,1.41-.15,2.07.21,0,0,0,0,0,0,.04.4.33.5.67.55,0,0,0,0,0,0,.08.06.15.13.23.19,0,0,0,0,0,0,.09.28.19.55.28.83,0,0,0,0,0,0-.19-.02-.29.07-.28.27,0,0,0,0,0,0-.1.08-.19.17-.29.25,0,0,0,0,0,0-.07.06-.15.13-.22.19h0Z"/>
  <path class="cls-10" d="M31.64,67.18c-.07.15-.14.31-.22.46-.4.18-.8.35-1.2.53.24-.2.48-.4.72-.6.13-.09.27-.18.4-.27.1-.04.2-.08.29-.12Z"/>
  <path class="cls-10" d="M33.61,70.23c-.25.27-.51.55-.76.82-.07.02-.14.05-.21.07.15-.49.4-.86.97-.9Z"/>
  <path class="cls-10" d="M32.65,71.12c-.09.09-.19.18-.28.26,0-.19.08-.28.28-.26Z"/>
  <path class="cls-10" d="M32.24,71.51c-.08.06-.15.13-.22.19.08-.06.15-.13.22-.19Z"/>
  <path class="cls-10" d="M32.03,71.69c-.06.07-.13.15-.19.22.06-.07.13-.15.19-.22Z"/>
  <path class="cls-10" d="M31.57,72.17s-.09.09-.14.14c.05-.05.09-.09.14-.14Z"/>
  <path class="cls-10" d="M31.71,72.04s-.09.09-.14.14c.05-.05.09-.09.14-.14Z"/>
  <path class="cls-10" d="M31.84,71.9s-.09.09-.14.14c.05-.05.09-.09.14-.14Z"/>
  <path class="cls-10" d="M32.38,71.37s-.1.09-.14.14c.05-.05.1-.09.14-.14Z"/>
  <path class="cls-13" d="M38.94,41.6c-.33.39-.65.77-.98,1.16-.03-.68.33-1.04.98-1.16Z"/>
  <path class="cls-9" d="M59.12,52.33c.04-.13.09-.27.13-.4.21.22.14.34-.13.4Z"/>
  <path class="cls-8" d="M62.45,34.87s-.07.04-.11.03c-.19-.07-.37-.25-.56,0-.7-.57-1.38-1.18-2.11-1.7-.52-.37-.54-.63,0-.95.22.1.21-.06.22-.19,0,0,0,.01,0,.01.05-.05.1-.09.15-.14,0,0,0,.01,0,.01.05-.05.09-.1.14-.15,0,0-.01.01-.01.01.05-.05.1-.09.15-.14,0,0,0-.01,0-.01.59-.12.92-.62,1.54-.78.37-.1,1.82-.23,2.19-.09.53.2.86.74.81,1.37-.07.99-1.16,1.08-1.29,1.95,0,0-.01,0-.01,0-.05.03-.1.07-.15.1-.03.02-.07.03-.11.03-.05.05-.1.09-.15.14,0,0,0,0,0,0-.04.05-.09.1-.13.15,0,0,.01,0,0,0-.09.04-.19.09-.28.13,0,0,0,0,0,0-.04.05-.09.11-.13.16,0,0,.01-.01.01-.01-.05.03-.11.06-.16.09Z"/>
  <path class="cls-13" d="M61.78,34.9c.19-.24.38-.07.56,0-.19.31-.38.39-.56,0Z"/>
  <path class="cls-13" d="M59.88,32.05c-.02.13,0,.3-.22.19.07-.06.15-.13.22-.19Z"/>
  <path class="cls-13" d="M62.72,34.64c.09-.04.19-.09.28-.13-.09.04-.19.09-.28.13Z"/>
  <path class="cls-13" d="M62.45,34.87c.05-.03.11-.06.16-.09-.05.03-.11.06-.16.09Z"/>
  <path class="cls-13" d="M62.6,34.79c.04-.05.09-.11.13-.16-.04.05-.09.11-.13.16Z"/>
  <path class="cls-13" d="M62.99,34.52c.04-.05.09-.1.13-.15-.04.05-.09.1-.13.15Z"/>
  <path class="cls-13" d="M63.12,34.37c.05-.05.1-.09.15-.14-.05.05-.1.09-.15.14Z"/>
  <path class="cls-13" d="M63.38,34.21c.05-.03.1-.07.15-.1-.05.03-.1.07-.15.1Z"/>
  <path class="cls-13" d="M60.03,31.93s-.1.09-.15.14c.05-.05.1-.09.15-.14Z"/>
  <path class="cls-13" d="M60.16,31.79s-.09.1-.14.15c.05-.05.09-.1.14-.15Z"/>
  <path class="cls-13" d="M60.3,31.67c-.05.05-.1.09-.15.14.05-.05.1-.09.15-.14Z"/>
  <path class="cls-4" d="M49.53,68.57h-.93c.31-.2.62-.2.93,0Z"/>
  <path class="cls-1" d="M71.82,65.53s-.05,0-.05,0c-.09-.05-.18-.09-.26-.14,0,0-.01,0-.01,0-.06-.04-.13-.08-.19-.12h-.05s-.03-.04-.03-.04c-.04-.26-.22-.24-.41-.22,0,0,0,0,0,0-.1-.31-.35-.29-.6-.28,0,0-.05,0-.05,0-1.15-.72-2.51-.58-3.75-.93,0,0,0,0,0,0-.09-.05-.17-.1-.26-.15,0,0,0,0,0,0-.05-.04-.11-.08-.16-.11,0,0,0,.02,0,.02-.08-.06-.17-.11-.25-.17,0,0,0,0,0,0-1.49-2.04.91-2.49,2.55-3.06,1.18-.41,1.51-.52,2.3.43.63.76.81.81,1.74,1.09,0,0,0,0,0,0-.07.36.15.32.38.29,0,0-.01,0-.01,0,.09.05.18.11.27.16,0,0,0-.01,0,0,.22.35.5.59.95.52,0,0-.01,0-.01,0,.05.3.28.31.51.3,0,0,0,0,0,0,.06.04.12.09.17.13.03.04.07.08.1.11.4.79.23,1.55-.15,2.29,0,0,0,0,0,0-.94.53-1.83.09-2.74-.12Z"/>
  <path class="cls-14" d="M72.35,61.85c-.93-.28-1.1-.33-1.74-1.09-.79-.95-1.12-.85-2.3-.43-1.65.58-4.05,1.02-2.55,3.06-.07-.02-.14-.03-.2-.05,0,0-.02.01-.02.01-.05-.04-.1-.08-.15-.11-.02-.05-.05-.1-.08-.15-.06-.04-.13-.08-.19-.12,0,0,0,0,0,0-.04-.04-.09-.09-.13-.13,0,0,0,0,0,0-.04-.04-.08-.09-.13-.13,0,0,0,0,0,0-.04-.21-.07-.43-.11-.64,0,0,0,0,0,0,.13-.18.25-.37.38-.55,0,0,0,0,0,0,.23-.4.45-.79.68-1.19,0,0,0,0,0,0,.97-1.46,1.49-3.09,1.93-4.77.37-1.42.87-1.43,2.09-.52,2.43,1.8.6,4.85,2.54,6.81Z"/>
  <path class="cls-6" d="M76.02,56.15c1.68.22,1.68,2.73-.1,2.67-1.77-.06-1.51-2.43.1-2.67Z"/>
  <path class="cls-14" d="M71.82,65.53c.91.21,1.8.65,2.74.12-.06.07-.11.15-.17.22-.92.39-1.78.3-2.57-.34Z"/>
  <path class="cls-14" d="M74.56,65.64c.38-.74.54-1.5.15-2.29.76.81.67,1.57-.15,2.29Z"/>
  <path class="cls-14" d="M73.93,62.81c-.45.07-.73-.17-.95-.52.32.17.64.35.95.52Z"/>
  <path class="cls-14" d="M74.43,63.1c-.24,0-.46,0-.51-.3.17.1.34.2.51.3Z"/>
  <path class="cls-14" d="M72.73,62.14c-.23.04-.45.07-.38-.29.13.1.25.19.38.29Z"/>
  <path class="cls-14" d="M74.61,63.24c-.06-.04-.12-.09-.17-.13.06.04.12.09.17.13Z"/>
  <path class="cls-14" d="M72.99,62.29c-.09-.05-.18-.11-.27-.16.09.05.18.11.27.16Z"/>
  <path class="cls-3" d="M56.82,69.26c.1,0,.2-.01.3-.02.58,1.33,1.16,2.65,1.74,3.98,0,0-.04.04-.04.04-.94-1.19-1.55-2.56-2-4Z"/>
  <path class="cls-4" d="M61.78,70.43c.09,0,.18,0,.27,0-.08.26-.16.52-.24.78-.45-.17-.19-.47-.03-.78Z"/>
  <path class="cls-16" d="M65.79,60.33c-.23.4-.45.79-.68,1.19.08-.48.16-.96.68-1.19Z"/>
  <path class="cls-16" d="M64.74,62.07c.04.21.07.43.11.64-.45-.14-.66-.33-.11-.64Z"/>
  <path class="cls-16" d="M65.11,61.52c-.13.18-.25.37-.38.55-.03-.29-.06-.58.38-.55Z"/>
  <path class="cls-16" d="M64.85,62.71s.08.09.13.13c-.04-.04-.08-.09-.13-.13Z"/>
  <path class="cls-16" d="M64.98,62.85s.09.09.13.13c-.04-.04-.09-.09-.13-.13Z"/>
  <path class="cls-16" d="M65.11,62.98c.06.04.13.08.19.12-.06-.04-.13-.08-.19-.12Z"/>
  <path class="cls-16" d="M65.38,63.24c.05.04.1.08.15.11-.05-.04-.1-.08-.15-.11Z"/>
  <path class="cls-1" d="M65.48,67.39c.52.96.63,2,.58,3.08-.04.86.16,1.67.88,2.25.44.4.88.69,1.39.99-1.71.8-3.78,1.18-4.93-.73-.45-.75-.37-1.67-.89-2.37-.6-.81-1.63-.93-2.37-1.54-1.44-1.18.29-2.37,1.45-3.18,1.73-1.21,2.72.14,3.89,1.5Z"/>
  <path class="cls-10" d="M46.3,81.65c-1.59-.9-.9-4.44-.9-5.96,0-1.14-.62-4.07.69-4.39.47-.12,2.62-.27,3.05-.06.74.37.38,1.61.38,2.45.02,2.39.18,4.8-.2,7.18-.02-.02-.05-.04-.07-.05,0-1.37,0-2.75,0-4.12,0-1.2.43-3.27-.05-4.39-.25-.59-2.8-1.33-3.38-.76-.45.44-.14,3.51-.14,4.08-.01,1.6.06,3.2.1,4.79.19.39.38.78.56,1.17-.02.02-.04.04-.06.06Z"/>
  <path class="cls-10" d="M48.62,81.64c-.77.6-1.54.61-2.32.02.02-.02.04-.04.06-.06.74.33,1.48.3,2.23.01l.03.03Z"/>
  <path class="cls-10" d="M48.88,81.5c-.09.05-.18.09-.26.14,0,0-.03-.03-.03-.03.09-.04.18-.09.26-.13l.02.03Z"/>
  <path class="cls-10" d="M49.15,81.1c-.05.09-.09.18-.14.27,0,0-.03-.02-.03-.02.04-.09.09-.18.13-.26l.03.02Z"/>
  <path class="cls-10" d="M49.33,80.87c-.06.08-.12.15-.18.23,0,0-.03-.02-.03-.02.05-.09.09-.17.14-.26.02.02.05.04.07.05Z"/>
  <path class="cls-10" d="M49.02,81.37s-.09.09-.14.13c0,0-.02-.03-.02-.03.04-.04.09-.09.13-.13l.03.02Z"/>
  <path class="cls-10" d="M36.52,72.99c.77-1.1,1.36-2.29,1.74-3.58.91.29,3.78.64,4.28,1.51.52.91-.47,2.02-.98,2.72.2-.43.89-1.52.86-1.98-.06-.96-1.58-1.18-2.32-1.41-1.3-.42-1.52-.59-2.07.62-.47,1.03-.9,2.04-1.78,2.8l-.04-.04c.1-.21.21-.42.31-.63Z"/>
  <path class="cls-10" d="M36.87,79.77c-1.66-1.04-2.21-3.88-1.06-5.5,0,0,.04.04.04.04-.81,2.03-.35,3.82,1.06,5.42l-.04.04Z"/>
  <path class="cls-10" d="M37.98,76.98c-.4,1.13-.07,2.11-.18,3.23-.14-.05-.27-.1-.41-.15.01-.02.03-.04.04-.06.04-.31.06-.63.13-.94.15-.7-.37-1.53.38-2.12l.04.04Z"/>
  <path class="cls-10" d="M35.81,74.28c.13-.22.27-.44.4-.67,0,0,.04.04.04.04-.02.29-.01.59-.4.67l-.04-.04Z"/>
  <path class="cls-10" d="M37.39,80.06c-.17-.09-.35-.19-.52-.28,0,0,.04-.04.04-.04.2.04.46-.04.52.27-.01.02-.02.04-.04.06Z"/>
  <path class="cls-10" d="M39.71,75.12c-.14.08-.27.17-.41.25,0,0-.03-.03-.03-.03.13-.09.27-.18.4-.27l.04.04Z"/>
  <path class="cls-10" d="M38.23,76.57c-.09.14-.17.27-.26.41,0,0-.04-.04-.04-.03.09-.13.18-.27.27-.4l.03.03Z"/>
  <path class="cls-10" d="M40.53,74.5c-.03.05-.05.11-.08.16-.07.02-.14.04-.21.06,0,0-.04-.04-.04-.04.04-.18.14-.26.32-.18Z"/>
  <path class="cls-10" d="M40,74.89c-.1.08-.2.15-.3.23,0,0-.04-.04-.04-.04.09-.08.19-.17.28-.25.02.02.04.05.06.07Z"/>
  <path class="cls-10" d="M39.3,75.38c-.09.09-.17.18-.26.28,0,0-.04-.04-.04-.04.09-.09.18-.18.26-.27,0,0,.03.03.03.03Z"/>
  <path class="cls-10" d="M38.91,75.79c-.09.08-.19.17-.28.25,0,0-.03-.03-.03-.03.09-.09.18-.18.27-.27l.04.05Z"/>
  <path class="cls-10" d="M38.53,76.2c-.06.08-.12.15-.17.23h-.02c.05-.1.1-.19.14-.27.02.02.03.03.05.05Z"/>
  <path class="cls-10" d="M40.24,74.72c-.08.06-.16.12-.23.17-.02-.02-.04-.05-.06-.07.09-.05.17-.09.26-.14l.04.04Z"/>
  <path class="cls-10" d="M39.04,75.65s-.09.09-.13.14c0,0-.04-.05-.04-.05.04-.04.09-.09.13-.13l.04.04Z"/>
  <path class="cls-10" d="M38.63,76.04c-.04.05-.07.11-.11.16-.02-.02-.03-.03-.05-.05.04-.05.08-.09.13-.14,0,0,.03.03.03.03Z"/>
  <path class="cls-10" d="M38.35,76.43s-.08.1-.12.15c0,0-.03-.03-.03-.03.04-.04.09-.08.13-.13h.02Z"/>
  <path class="cls-14" d="M66.42,63.8c1.24.35,2.6.21,3.75.93-1.22-.42-2.6-.22-3.75-.93Z"/>
  <path class="cls-14" d="M70.22,64.73c.25-.01.5-.04.6.28-.2-.09-.4-.18-.6-.28Z"/>
  <path class="cls-14" d="M70.82,65c.19-.02.37-.04.41.22-.14-.07-.27-.15-.41-.22Z"/>
  <path class="cls-14" d="M65.77,63.39c.08.06.17.11.25.17-.08-.06-.17-.11-.25-.17Z"/>
  <path class="cls-14" d="M66.17,63.66c.09.05.17.1.26.15-.09-.05-.17-.1-.26-.15Z"/>
  <path class="cls-14" d="M71.5,65.38c.09.05.18.09.26.14-.09-.05-.18-.09-.26-.14Z"/>
  <path class="cls-14" d="M71.3,65.26c.06.04.13.08.19.12-.06-.04-.13-.08-.19-.12Z"/>
  <path class="cls-14" d="M66,63.54c.05.04.11.08.16.11-.05-.04-.11-.08-.16-.11Z"/>
  <path class="cls-1" d="M56.82,69.26c.46,1.44,1.06,2.8,2,4,1.15,1.89,1.44,3.81.26,5.81-.65.38-.87,1.06-1.71,1.17.02-1,.3-2.45-.37-3.29-.25-.32-.5-.64-.75-.96,0,0-.02.01-.02.01-.06-.04-.11-.08-.17-.12,0,0,.01.01.01.01-.05-.04-.1-.09-.15-.13,0,0,0,0,0,0-.13-.09-.26-.19-.39-.28,0,0,0,0,0,0-.18-.14-.36-.28-.54-.42-.04-.04-.08-.07-.12-.11-.13-.1-.27-.19-.4-.29,0,0,0,0,0,0-.81-.73-2.38-2.14-2.01-3.42.32-1.11,3.22-1.63,4.25-2.01.03.03.06.04.1.03Z"/>
  <path class="cls-1" d="M38.34,76.41s-.09.09-.13.13c-.09.13-.18.27-.27.4-.76.59-.23,1.42-.38,2.12-.07.31-.09.63-.13.94-.06-.31-.32-.23-.52-.27-1.42-1.6-1.87-3.38-1.06-5.42.38-.07.37-.38.4-.67.88-.76,1.31-1.77,1.78-2.8.55-1.21.77-1.04,2.07-.62.74.24,2.25.45,2.32,1.41.03.47-.66,1.56-.86,1.98-.04.04-.09.09-.13.13-.38,0-.62.15-.66.55,0,0,0,0,0,0-.08.06-.16.12-.24.18,0,0,0,0,0,0-.19-.08-.28,0-.32.18-.09.05-.17.09-.26.14-.09.08-.19.17-.28.25-.13.09-.27.18-.4.27-.09.09-.18.18-.26.27-.04.04-.09.09-.13.13-.09.09-.18.18-.27.27-.04.05-.08.09-.13.14-.05.09-.1.17-.14.26Z"/>
  <path class="cls-10" d="M40.76,74.31c.03-.4.28-.56.66-.55-.22.18-.44.37-.66.55Z"/>
  <path class="cls-10" d="M40.52,74.49c.08-.06.16-.12.24-.18-.08.06-.16.12-.24.18Z"/>
  <path class="cls-3" d="M55.01,75.06c.18.14.36.28.54.42-.32.04-.54-.05-.54-.42Z"/>
  <path class="cls-3" d="M55.54,75.47c.13.09.26.19.39.28-.2,0-.4,0-.39-.28Z"/>
  <path class="cls-3" d="M54.48,74.67c.13.1.27.19.4.29-.21,0-.41.02-.4-.29Z"/>
  <path class="cls-3" d="M55.93,75.75s.1.09.15.13c-.05-.04-.1-.09-.15-.13Z"/>
  <path class="cls-3" d="M56.07,75.87c.06.04.11.08.17.12-.06-.04-.11-.08-.17-.12Z"/>
  <path class="cls-10" d="M35.02,68.97c.1-.08.19-.17.29-.25-.1.08-.19.17-.29.25Z"/>
  <path class="cls-10" d="M35.3,68.72c0-.19.08-.28.28-.27-.03.07-.05.13-.08.2-.07.02-.14.05-.2.07Z"/>
  <path class="cls-10" d="M34.8,69.16c.07-.06.15-.13.22-.19-.07.06-.15.13-.22.19Z"/>
  <path class="cls-10" d="M35.57,68.46c-.09-.28-.19-.55-.28-.83.21.14.43.28.64.42-.05.11-.11.22-.16.33-.07.03-.13.05-.19.08Z"/>
  <path class="cls-10" d="M35.08,67.45c-.34-.04-.62-.14-.67-.55.1.04.19.08.29.12.05.04.09.08.14.12.05.04.1.08.15.12.03.06.06.12.09.19Z"/>
  <path class="cls-10" d="M35.3,67.64c-.08-.06-.15-.13-.23-.19.08.06.15.13.23.19Z"/>
  <path class="cls-10" d="M32.36,66.69c-.14.09-.27.18-.41.27.06-.08.12-.15.17-.23.08-.02.16-.03.24-.05Z"/>
  <path class="cls-10" d="M31.96,66.96c-.05.04-.11.08-.16.12.05-.04.11-.08.16-.12Z"/>
  <path class="cls-10" d="M31.8,67.07c-.05.04-.11.08-.16.12.05-.04.11-.08.16-.12Z"/>
  <path class="cls-7" d="M29.83,33.16c-.13-.05-.26-.1-.38-.15-.54-1.65-.09-3.37-.39-5.04-.13-.73.6-.59.93-.62.59-.04,1.5-.51,1.66.53.19,1.23.57,2.29,1.64,3.01-.87.47-1.67,1.05-2.63,1.37-.34.11-.56.59-.83.89Z"/>
  <path class="cls-13" d="M33.7,34.5c-.08.06-.15.12-.23.19.08-.06.15-.12.23-.19Z"/>
  <path class="cls-13" d="M33.85,34.37c-.05.04-.1.09-.16.13.05-.04.1-.09.16-.13Z"/>
  <path class="cls-9" d="M16.77,51.41c-.85-2.42-.18-3.36,2.42-3.35,2.11,0,4.22.01,6.32,0,.46,0,.6.14.61.61.06,3.14.07,3.17-3.07,3.13-2.03-.03-4.06.2-6.08-.18,0,0,0,0,0,0-.07-.06-.14-.13-.21-.19,0,0,0,0,0,0Z"/>
  <path class="cls-13" d="M39.57,30.8c-1.58.76-1.31-1.05-2.04-1.47,0,0,0,0,0,0,.02-.2.04-.39-.24-.42,0,0,0-.02,0-.02-.15-.74-.34-1.44-1.08-1.83,0,0,0,0,0,0-.15-.47-.32-.94-.46-1.41-.05-.18-.02-.39-.01-.58,0-.01.2-.06.26-.02,1.26.91,2.71.6,4.1.64,0,0,0,0,0,0-.01.38.22.44.53.4,0,0,0,0,0,0,.06.46.33.69.79.67,0,0,0,0,0,0,.05.04.09.09.14.13.04.05.08.1.13.15,0,.2,0,.39.28.38,0,0,0,0,0,0-.02.24,0,.46.29.52,0,0,0,0,0,0,.31,1.23.08,2.09-1.4,2.2-.37.03-.8.12-1,.53,0,0,0-.01,0-.01-.09.04-.19.09-.28.13h0Z"/>
  <path class="cls-5" d="M39.84,30.68c.21-.41.63-.5,1-.53,1.48-.11,1.71-.97,1.4-2.2.4.96.98,1.97-.76,2.22-.56.08-1.09.34-1.64.51Z"/>
  <path class="cls-5" d="M41.43,26.76c-.47.01-.73-.21-.79-.67.26.22.53.45.79.67Z"/>
  <path class="cls-5" d="M40.63,26.08c-.31.04-.54-.02-.53-.4.07.02.14.04.22.06.1.12.21.23.31.35Z"/>
  <path class="cls-5" d="M42.25,27.94c-.3-.06-.31-.28-.29-.52.1.17.19.35.29.52Z"/>
  <path class="cls-5" d="M41.96,27.42c-.28,0-.28-.18-.28-.38.09.13.18.26.28.38Z"/>
  <path class="cls-5" d="M39.56,30.8c.09-.04.19-.09.28-.13-.09.04-.19.09-.28.13Z"/>
  <path class="cls-5" d="M41.56,26.89s-.09-.09-.14-.13c.05.04.09.09.14.13Z"/>
  <path class="cls-5" d="M40.1,25.68c-1.39-.04-2.84.26-4.1-.64-.06-.04-.26,0-.26.02-.01.19-.04.4.01.58.13.48.3.94.46,1.41-1.16-1.54-1.3-3.17-.47-4.9.33-.42,1.07-1.65,1.74-1.56.74.1.19,1.12.22,1.7.07,1.57,1.38,2.41,2.41,3.39Z"/>
  <path class="cls-13" d="M45.61,19.77c.14-.16.28-.33.42-.49-.46,1.18-.4,2.43-.35,3.65.03.71-.55,1.93,1.1,1.57.85-.19,1.77-.15,2.56-.48.41-.17-.06-4.18-.42-4.59-.91-1.03-1.89-.58-2.88-.16.83-1.03,1.79-.79,2.78-.3.55.48.76,1.09.75,1.82-.05,2.82-.07,5.63-.1,8.45-1.34-.04-2.68-.07-4.02-.11.09-3.12-.25-6.24.16-9.35Z"/>
  <path class="cls-5" d="M36.2,27.05c.74.39.93,1.1,1.08,1.83-.36-.61-.72-1.22-1.08-1.83Z"/>
  <path class="cls-5" d="M37.29,28.91c.28.03.26.22.24.42-.07-.06-.14-.13-.2-.19-.01-.08-.02-.15-.03-.23Z"/>
  <path class="cls-10" d="M16.77,51.41c.07.06.14.13.21.19-.06-.02-.13-.05-.19-.07,0-.04-.01-.08-.02-.12Z"/>
  <path class="cls-13" d="M55.18,30.65c-.6-.2-1.2-.4-1.8-.6-1.05-.44-.82-1.12-.4-1.88.14-.26.18-.57.26-.86,0,0,0,0,0,0,1.14-.57,1.8-1.42,3.16-1.69,1.04-.2,2.64-.4,2.73,1.06,0,0,0,0,0,0-.42.04-.41.36-.42.66,0,0,0,0,0,0-.28,0-.28.2-.27.4,0,0,0,0,0,0-.04.06-.08.11-.12.17,0,0,.02-.02.02-.02-.06.08-.12.17-.17.25,0,0,0,0,0,0-.04.06-.08.11-.12.17,0,0,.02-.02.02-.02-.06.09-.11.17-.17.26,0,0,0-.01,0-.01-.05.09-.1.18-.14.28,0,0,0-.01,0-.01-.05.09-.1.18-.15.27,0,0,0,0,0,0-.04.09-.09.18-.13.28,0,0,0,0,0,0-.05.09-.09.18-.14.28,0,0,0,0,0,0-.34.12-.28.4-.27.67,0,0,0,0,0,0-.4.17-.26.51-.27.8,0,0,.01.01.01.01-.25,0-.49.02-.74.03,0,0,0,.01,0,.01-.13-.06-.25-.12-.38-.19,0,0,0,0,0,0-.11-.29-.35-.28-.6-.27Z"/>
  <path class="cls-5" d="M59.14,26.66c-.09-1.46-1.69-1.27-2.73-1.06-1.36.27-2.02,1.12-3.16,1.69.02-.07.04-.14.06-.21.04-.05.08-.09.12-.14.05-.04.09-.09.14-.13,1.07-.85,2.48-1.66,3.26-2.82.7-1.05.52-2.13.62-3.33,2.47.7,3.09,4.02,1.7,6.01Z"/>
  <path class="cls-5" d="M53.25,27.29c-.08.29-.12.61-.26.86-.42.76-.65,1.45.4,1.88-.33-.1-.88.04-.94-.4-.12-.88.16-1.69.8-2.35Z"/>
  <path class="cls-5" d="M56.15,31.08c.25,0,.49-.02.74-.03-.22.72-.49.08-.74.03Z"/>
  <path class="cls-5" d="M58.73,27.31c.01-.3,0-.62.42-.66-.14.22-.28.44-.42.66Z"/>
  <path class="cls-5" d="M56.87,31.05c0-.3-.13-.64.27-.8-.09.27-.18.54-.27.8Z"/>
  <path class="cls-5" d="M57.13,30.24c0-.26-.06-.55.27-.67-.09.22-.18.44-.27.67Z"/>
  <path class="cls-5" d="M55.18,30.65c.25-.02.49-.03.6.27-.2-.09-.4-.18-.6-.27Z"/>
  <path class="cls-5" d="M58.46,27.72c-.01-.2-.01-.4.27-.4-.09.13-.18.27-.27.4Z"/>
  <path class="cls-5" d="M55.78,30.91c.13.06.25.12.38.19-.13-.06-.25-.12-.38-.19Z"/>
  <path class="cls-5" d="M57.67,29.04c.05-.09.1-.18.15-.27-.05.09-.1.18-.15.27Z"/>
  <path class="cls-5" d="M57.8,28.79c.05-.09.1-.18.14-.28-.05.09-.1.18-.14.28Z"/>
  <path class="cls-5" d="M57.4,29.58c.05-.09.09-.18.14-.28-.05.09-.09.18-.14.28Z"/>
  <path class="cls-5" d="M57.54,29.32c.04-.09.09-.18.13-.28-.04.09-.09.18-.13.28Z"/>
  <path class="cls-5" d="M57.94,28.52c.06-.09.11-.17.17-.26-.06.09-.11.17-.17.26Z"/>
  <path class="cls-5" d="M58.2,28.12c.06-.08.12-.17.17-.25-.06.08-.12.17-.17.25Z"/>
  <path class="cls-5" d="M58.09,28.28c.04-.06.08-.11.12-.17-.04.06-.08.11-.12.17Z"/>
  <path class="cls-5" d="M58.35,27.88c.04-.06.08-.11.12-.17-.04.06-.08.11-.12.17Z"/>
  <path class="cls-13" d="M36.49,49.83c.05.03.11.06.16.09-.05-.03-.11-.06-.16-.09Z"/>
  <path class="cls-1" d="M45.8,80.42c-.05-1.6-.12-3.19-.1-4.79,0-.57-.31-3.64.14-4.08.58-.57,3.13.16,3.38.76.48,1.12.05,3.19.05,4.39-1.84-.85-2.34.4-2.91,1.74-.28.66.21,1.5-.56,1.99Z"/>
  <path class="cls-11" d="M45.8,80.42c.77-.49.28-1.33.56-1.99.57-1.34,1.07-2.59,2.91-1.74,0,1.37,0,2.75,0,4.12-.05.09-.09.17-.14.26-.04.09-.09.18-.13.26-.04.04-.09.09-.13.13-.09.04-.18.09-.26.13-.75.29-1.49.32-2.23-.01-.19-.39-.37-.78-.56-1.17Z"/>
  <path class="cls-5" d="M46.04,19.27c.99-.42,1.97-.86,2.88.16.37.42.83,4.42.42,4.59-.79.32-1.71.29-2.56.48-1.66.36-1.07-.86-1.1-1.57-.05-1.23-.11-2.47.35-3.65,0,0,.01-.01.01-.01Z"/>
</svg>