<?xml version="1.0" encoding="UTF-8"?>
<svg id="Layer_1" data-name="Layer 1" xmlns="http://www.w3.org/2000/svg" viewBox="0 0 100 100">
  <defs>
    <style>
      .cls-1 {
        fill: #f9ae02;
      }

      .cls-1, .cls-2, .cls-3, .cls-4, .cls-5, .cls-6, .cls-7, .cls-8, .cls-9, .cls-10, .cls-11, .cls-12, .cls-13, .cls-14, .cls-15, .cls-16 {
        stroke-width: 0px;
      }

      .cls-2 {
        fill: #8b1209;
      }

      .cls-3 {
        fill: #666a6e;
      }

      .cls-4 {
        fill: #009ed6;
      }

      .cls-5 {
        fill: #feb501;
      }

      .cls-6 {
        fill: #fe7603;
      }

      .cls-7 {
        fill: #fcfbf7;
      }

      .cls-8 {
        fill: #fd9701;
      }

      .cls-9 {
        fill: #fafafa;
      }

      .cls-10 {
        fill: #fd5b02;
      }

      .cls-11 {
        fill: #fefefe;
      }

      .cls-12 {
        fill: #fcfcfc;
      }

      .cls-13 {
        fill: #030404;
      }

      .cls-14 {
        fill: #0187b5;
      }

      .cls-15 {
        fill: #033d57;
      }

      .cls-16 {
        fill: #020102;
      }
    </style>
  </defs>
  <path class="cls-11" d="M.1,99.1c-.03-.15-.1-.3-.1-.46"/>
  <g>
    <path class="cls-16" d="M61.44,92.49c-1.6-.14-3.23,2.1-4.34,3.03-1.58,1.33-3.42,2.28-5.51,2.47-2.08.19-4.05-.49-5.75-1.65-1.56-1.06-3.34-3.65-5.31-3.85-9.34-5.44-21.97-4.49-31.49,0-1.58.21-3.67.39-3.73-1.86-.05-1.73,1.7-4.12,2.45-5.66,1.4-2.84,2.85-5.66,4.24-8.51.38-.76,1.33-2.02,1.37-2.88.07-1.42-1.76-3.53-2.4-4.8C-8.09,29.36,31.54-10.75,71.1,8.14c23.18,11.07,31.44,40.44,18.86,62.52-2.21,3.12-1.76,2.95.02,6.06,1.09,2.22,2.19,4.45,3.29,6.67,1.23,2.85,6.73,9.88-.02,9.11-7.61-3.19-16.35-4.61-24.48-2.9-1.08.23-7.45,1.55-7.33,2.9ZM67.33,74.18s-.1,0-.14,0c-.34-.23-.77-.48-.72-.92.74.19.09-.39.28-.51,5.96-2.67,12.13-2.65,18.43-1.41-1.15-2.9-2.7-5.59-4.09-8.38-.28-.55-.58-.62-1.11-.48-10.29,2.38-21.13,6.32-27.28,15.45-.08.02-.03.06,0,.11-.02,3.3-.03,6.61-.05,9.91-.27,0-.62-.26-.7.28-.01.09-.16-.17-.29-.16,0-.12,0-.23,0-.35-.31.24-.8.64-1.17.73-.4.1-.85-.27-1.21-.09-.37-.94-.11-2.5-.12-3.49,0-1.13-.02-2.27-.01-3.4.01-2.54-.05-4-1.77-5.97-5.88-6.65-14.35-10.37-22.85-12.37-.69-.17-2.63-.92-3.32-.67-.76.27-1.12,1.72-1.48,2.45-1.06,2.17-2.12,4.34-3.18,6.52,5.88-1.17,12.74-1.63,18.28,1.16-.1.33-.93,0-1.18.52.59.1.35-.6.77.3.2.43-.63.97.26,1.06-.11.49-.58.24-.85.41-.02-.02-.04-.04-.06-.06.02.02.04.05.06.07,0,.07,0,.13.01.2-5.35-1.23-11-1.29-16.32.19-.25.07-.52.09-.65.37-.87,1.79-1.75,3.58-2.62,5.35,9.67-3.42,22.12-3.99,30.21,3.49-.21.6-.75.36-.81.95-.04.43.65.73.41,1.12-6.46-3.78-14.05-4.98-21.4-3.82-.23.01-.47-.02-.67.15-.06,0-.13.01-.19.02-.5,0-.97.14-1.44.3-1.96.37-3.87.97-5.69,1.77-1.04.45-3.93,1.37-4.08,2.75,1.38,0,3.11-1.05,4.51-1.39,1.69-.42,3.42-.67,5.13-.98l.28-.04s.09,0,.14,0c.11-.02.22-.04.33-.06.09.06.18.04.26-.02.43.03.86.01,1.28-.09.16-.01.32-.03.47-.04l.05.03.05-.04.06.02.06-.02c.24.06.48.05.72-.01.1,0,.19,0,.29,0,.57.05,1.14.05,1.71-.01h.87c.19.01.38.02.57.03.1,0,.19,0,.29,0,.17.06.34.08.51.03.1.07.21.09.33.03,6.11.91,11.67,2.16,16.8,5.81,4.69,4.61,6.85,4.59,11.36-.21,6.15-4.31,13.73-5.99,21.18-5.66.41.11.83.13,1.25.09.48.03.95.07,1.43.1.19.03.39.06.58.08,1.74.39,3.52.57,5.26.97,1.51.35,3.17,1.34,4.7,1.41-.56-1.29-2.06-1.82-3.28-2.38-1.73-.8-3.54-1.39-5.4-1.82-.05,0-.1,0-.15-.01-.57-.14-1.14-.28-1.72-.42-7.66-1.73-15.84-.37-22.68,3.5-.23-.22.14-.42.06-.64-.37.05-.37.89-.72.46l.27-.75c.15,0,.31-.04.27-.23-.06-.25-.29-.16-.46-.19.13-.23.26-.46.18-.74,6.19-5.43,14.83-6.72,22.77-5.4.78.13,7.34,2.11,7.43,1.95-.78-1.58-1.48-4.17-2.71-5.41-1.07-1.07-4.04-1.1-5.49-1.25-4.43-.62-8.79.38-13.1,1.09.02-.56.61-.28.83-.56.55.28.48-.12.48-.44l.03-.02-.02.03h-.16c0-.11-.01-.22-.15-.27ZM41.27,55.68s.1.1.14.14c1.21.77,2.48,1.42,3.84,1.9,1.41.68,2.92.84,4.46.85.67.17,1.33.16,2,0,.09,0,.19-.01.28-.02.74.05,1.47.03,2.16-.26.04,0,.09,0,.13-.02.41.04.81-.02,1.15-.27.09-.01.18-.03.28-.04,1.45-.18,3.03-1.09,4.23-1.89.39-.26,1.64-.93,1.78-1.36.21-.67.04-.28-.27-.4-.17-.07-.19-1.22-.56-1.48,2.6-1.44,5.13-3.35,6.08-6.29,1.13-3.51.6-7.7-.94-11-2.33-5.01-7.1-8.53-12.55-9.36-5.49-.83-11.38,1.16-15.08,5.35-3.93,4.45-5.89,12.52-2.06,17.58-.49-.01,1.44,3.64,2.19,4.03h0c0,.13.04.23.19.25.42.44.85.87,1.27,1.31.42.35.71.86,1.29,1h0ZM85.84,46.98l-.03.04c-.79.17-1.58.3-2.31.68-.35.12-.79.08-1.01.49.86.58,2.47.61,3.18,1.32.55.56.36,2.56.95,2.87.69.37.69-.45.92-1.23.33-1.15.33-1.56,1.37-2.05.36-.16,2.26-.47,2.34-.92.09-.5-2.23-.77-2.54-.94-.89-.49-.85-1.05-1.16-2.01-.09-.27-.57-1.98-.9-1.12-.08.05-.08.11-.04.19,0,.05-.02.09-.03.14-.12.1-.2.22-.16.39l-.19.71c-.11.07-.13.17-.08.29-.02.09-.04.19-.06.28-.18.26-.26.56-.26.87ZM24.24,27.59c.06-.05,0-.09-.02-.14l-.06-.27c-.64-4.2-7.05-4.68-8.32-.81-.1.06-.14.15-.13.27,0,0,0,.04,0,.04-1.25,3.05,1.49,6.58,4.81,5.91,1.82-.28,3.15-1.39,3.54-2.97.23-.4.2-.84.22-1.28.08-.25.04-.5-.03-.74ZM34.55,19.7c.13-.11.12-.22,0-.33.02-.48-.06-.93-.29-1.36-1.34-3.83-7.53-4-8.93-.07-.14.09-.2.22-.17.38-.04.12-.08.24-.12.37-.15.22-.14.48-.14.73-.24,1.17.06,2.23.69,3.21,1.79,3.29,7.32,3.01,8.57-.59.34-.68.52-1.4.44-2.16.04-.07-.02-.12-.05-.17ZM78.65,19.97c-.08-7.76-11.94-7.77-12,.04-.05,7.83,11.79,7.67,12-.04ZM90.43,58.31c-.02-1.77-3.45-2.51-4.71-3.05-4.41-1.88-8.82-3.75-13.24-5.62-1.19-.5-3.51-1.04-3.29,1.15.17,1.7,3.12,2.28,4.39,2.83,2.15.92,4.29,1.85,6.44,2.77,1.49.64,10.43,5.71,10.4,1.92ZM13.06,59.9c4.08-1.45,8.06-3.43,12.09-5.06,2.07-.88,4.16-1.73,6.25-2.59.94-.39,1.37-.91,1.35-1.63-.03-1.04-1.04-2-2.4-1.41-5.94,2.57-11.93,5-17.87,7.55-1.7.63-1.36,3.21.58,3.13ZM87.75,28.74c.04-3.85-7.58.54-9.09,1.15-1.73.7-3.46,1.4-5.19,2.1-1.18.48-3.92,1.03-4.23,2.55-.54,2.63,2.7,1.49,3.85,1.03,3.62-1.45,7.24-2.91,10.87-4.36,1.22-.49,3.68-.85,3.8-2.48ZM49.41,14.72s-.02.69-.02.69c0,1.51-.98,6.94,1.45,7.05,2.65.12,1.61-6.21,1.61-7.72,0-1.51,1.05-7.82-1.61-7.72-2.47.09-1.44,6.19-1.44,7.71ZM49.43,67.18h0c0,1.36-.67,5.31,1.74,4.95,2.04-.3,1.29-3.86,1.28-5.25,0-1.32.61-4.61-1.52-4.58-2.14.03-1.49,3.52-1.49,4.87ZM66.37,55.8c-2.07-.09-2.24,2.19-.75,3.1,1.44.88,3.87,2.22,5.55,2.43.78.1,1.56-.19,1.84-1,.36-1.06-.46-1.63-1.26-2.1-1.48-.89-3.68-2.05-5.38-2.42ZM37.14,57.36c0-2.35-2.5-1.26-3.7-.71-1.25.58-4.22,1.33-4.67,2.77-.23.73.13,1.56.87,1.83.97.36,2.35-.57,3.2-.95,1.27-.56,4.33-1.19,4.3-2.94ZM18.86,42.4c.84.31,2.45.59,3.15,1.15.84.67,1.03,2.37,1.52,3.35.88-.64.51-1.88,1.08-2.75.35-.53.77-.81,1.37-1.02.34-.12,1.59-.09,1.77-.47.5-1.05-1.96-1-2.55-1.45-1.12-.87-.76-2.42-1.63-3.41-.42.86-.67,2.85-1.45,3.42-.86.63-2.28.65-3.25,1.19ZM62.62,17.61c.02-1.9-1.96-2.21-2.88-.83-.87,1.3-2.31,4.05-2.43,5.62-.15,2.08,2.02,2.07,2.93.66.53-.82.88-1.86,1.29-2.75.3-.65,1.21-1.95,1.09-2.7ZM78.13,37.82c-.62,1.23-.49,2.83-1.72,3.53-.52.3-3.08.39-2.57,1.21.43.69,2.43.55,3.05,1.18.56.57.45,2.84,1.15,3.17.57.26.87-2.44,1.09-2.81.65-1.05,2.41-.69,3.03-1.52.61-.8-2.16-1.05-2.61-1.4-.76-.6-.94-2.49-1.43-3.37ZM44.54,22.65c-.31-1.32-1.29-3.67-2.35-4.57-1.05-.9-2.56-.11-2.44,1.29.09,1.05,1.5,4.08,2.4,4.68,1.02.67,2.41-.18,2.39-1.4ZM32.68,34.78c.2-2.08-6.76-4.9-6.42-1.48.17,1.74,6.41,4.68,6.42,1.48ZM43.31,60.15c-1.91-.12-5.08,5.6-2.38,6.3,2.11.55,5.38-6.16,2.38-6.3ZM14.75,45.26c-.59.25-.63,1.77-1.37,2.26-.24.16-1.86.46-1.84.84.02.43,1.86.93,2.21,1.31.28.3.76,1.99,1.02,2.03.2.03.73-1.73,1.02-2.04.39-.41,2.16-.81,2.16-1.24,0-.47-1.72-.75-2.12-1.14-.37-.36-.69-1.96-1.09-2.02ZM40.13,11.51c.72.34,1.62.55,2.13,1.19.29.37.36,1.54.84,1.4.32-.1.44-1.27.75-1.59.36-.38,1.41-.42,1.61-.8.4-.76-.73-.64-1.25-1-.46-.32-.83-1.74-1.19-1.8-.35-.07-.6,1.34-.8,1.54-.54.55-1.47.53-2.08,1.06ZM59.71,62.24c-1.99-.01-1.88,3.14.09,3.08,1.93-.06,1.83-3.07-.09-3.08ZM14.51,38.98c2,.11,2.2-2.83.22-2.93-1.89-.09-2.09,2.83-.22,2.93ZM85.8,37.55c-.03,2.05,3.11,1.72,2.9-.2-.2-1.8-2.87-1.6-2.9.2ZM67.21,30.2c2.08-.02,1.42-3.19-.42-2.58-1.42.47-1.1,2.6.42,2.58ZM34.68,30.08c1.83-.02,1.41-2.91-.33-2.53-1.46.32-1.12,2.54.33,2.53ZM34.81,13.2c1.52.04,1.65-2.26.12-2.32-1.5-.07-1.65,2.29-.12,2.32ZM65.29,10.89c-1.44-.02-1.51,2.3-.03,2.33,1.52.03,1.55-2.31.03-2.33ZM14.66,62.94c-1.42.02-1.4,2.29.04,2.29,1.51,0,1.42-2.31-.04-2.29ZM87.09,62.96c-1.42.03-1.41,2.32.04,2.28,1.45-.04,1.42-2.32-.04-2.28ZM58.7,10.85c1.33.01,1.46-1.92.18-2.15-1.49-.27-1.72,2.14-.18,2.15ZM11.67,41.93c-.36-.09-.83-1.12-1.18-.23-.12.32.01.66.29.82.49.27.62-.26.88-.58ZM91.52,41.11c-.24-.57-1.19-.89-1.1.04.09.88.88.51,1.1-.04ZM46.3,68.11c.15-.26.78-1.75-.24-1.16-.76.44.1.78.24,1.16ZM37.1,63.02c.38-.17.78-1.06.05-1.07-.75-.01-.39.85-.05,1.07ZM10.16,52.52c-.59.02-.37.93-.05.81.49-.17.65-.67.05-.81ZM55.89,17.25c-.14-.55-.93-.59-.88.05.05.6.83.49.88-.05ZM84.21,24.02c-.07-.69-.69-.27-.84.07-.14.32.8.61.84-.07ZM64.14,26.31c.8-.2-.06-.66-.06-.68,0,.05-.69.64.06.68ZM65.59,62.7c-.15-.7-.57.01-.64.01.06,0,.61.68.64-.01ZM91.52,53.13c-.59.18-.04.44-.04.6,0-.05.77-.39.04-.6Z"/>
    <path class="cls-16" d="M89.05,16.34c-7.67.12-7.76-11.54-.19-11.85,7.79-.32,8.01,11.73.19,11.85Z"/>
    <path class="cls-15" d="M9.03,92.49c9.52-4.49,22.15-5.44,31.49,0-10.5,0-20.99.01-31.49,0Z"/>
    <path class="cls-15" d="M61.44,92.49c-.12-1.34,6.25-2.67,7.33-2.9,2.77-.59,5.62-.78,8.45-.71,5.33.13,11.11,1.54,16.03,3.61-10.6,0-21.21.06-31.81,0Z"/>
    <path class="cls-13" d="M12.03,18.06c-1.25-.02-1.37-4.31-2.4-5.17-.91-.76-4.69-.7-4.84-2.04-.1-.9,4.43-1.68,5.09-2.44.72-.82,1.07-5.56,2.39-5.14,1.06.33,1.1,4.14,1.86,5.07.97,1.19,4.54,1.11,4.99,2.32.45,1.22-4.11,1.57-4.87,2.29-.98.92-.88,4.97-2.21,5.11Z"/>
    <path class="cls-13" d="M7.89,22.56c-.1,2.54-3.94,2.33-3.86-.15.08-2.56,3.96-2.36,3.86.15Z"/>
    <path class="cls-13" d="M95.87,24.4c-2.56.03-2.35-4.15.23-3.86,2.37.26,2.17,3.84-.23,3.86Z"/>
    <path class="cls-13" d="M97.94,74.89c0,2.32-3.62,2.37-3.71.08-.1-2.42,3.7-2.49,3.71-.08Z"/>
    <path class="cls-13" d="M5.76,73.05c2.4.05,2.27,3.96-.17,3.66-2.16-.27-2.04-3.71.17-3.66Z"/>
    <path class="cls-13" d="M4.27,66.26c-.03,1.55-2.43,1.48-2.37-.1.06-1.54,2.4-1.4,2.37.1Z"/>
    <path class="cls-13" d="M19.9,7.83c-1.44,0-1.51-2.31-.05-2.38,1.56-.08,1.57,2.38.05,2.38Z"/>
    <path class="cls-13" d="M100,66.18c0,1.55-2.31,1.55-2.33.04-.02-1.52,2.32-1.58,2.33-.04Z"/>
    <path class="cls-13" d="M72.8,2.06c.03,1.59-2.38,1.47-2.35-.04.04-1.51,2.32-1.48,2.35.04Z"/>
    <path class="cls-12" d="M56.64,90.71c-1.58,1.51-3.35,3.64-5.72,3.65-2.27.01-4.03-2.09-5.64-3.44.4-.48,2.14-.96,2.2-1.58.06-.64-1.37-.9-1.38-1.67.18-.33.05-.81.46-1.04,0,0,.01-.02.01-.02l-.02.03c-.22.08-.28-.08-.43-.2-.38-.29-.42-.86-.89-1.05-.19-.36-.33-.78-.79-.91-1.85-1.79-4.04-3.06-6.41-4.01-4.14-1.67-8.48-2.1-12.89-1.79-3.65.26-7.23.88-10.61,2.35-.09.04-.18.08-.3-.03.87-1.77,1.74-3.56,2.62-5.35.13-.27.4-.29.65-.37,3.8-1.12,7.69-1.22,11.61-.97,1.6.1,3.16.44,4.71.78.37.1.74.2,1.11.3.16.04.43.15.45.11.39-.71.29.13.44.13.5.32.69.05.82-.45.23-.87,0-.51-.46-.9-.13-.41.33-.43.49-.69-.6-.39-1.19-.76-1.85-1.01-5.54-2.79-12.4-2.34-18.28-1.16,1.06-2.17,2.12-4.35,3.18-6.52.36-.73.73-2.19,1.48-2.45.69-.24,2.63.51,3.32.67,4.47,1.07,8.85,2.52,12.9,4.7,3.71,1.99,7.17,4.49,9.95,7.67,1.72,1.97,1.78,3.43,1.77,5.97,0,1.13,0,2.27.01,3.4,0,.98-.25,2.55.12,3.49-.25.45-.03,1.06.28,1.02.48-.07.37.52.71.41h0c.1.21-.35.09-.19.33.12-.16,1.35-.33,1.6-.47.59-.33-.07.45.65-.3.28-.29.47-.78.32-1.17,0-.08-.01-.16-.02-.24.02-3.3.03-6.61.05-9.91.03-.03.04-.07,0-.11,1.64-2.5,3.76-4.55,6.06-6.42,4.04-3.27,8.68-5.35,13.59-6.93,2.52-.81,5.08-1.43,7.63-2.1.53-.14.83-.07,1.11.48,1.29,2.55,2.66,5.06,3.82,7.67.1.22.17.44.27.71-6.31-1.24-12.48-1.26-18.43,1.41-.84.4-1.78.72-1.81,1.76-.02.6.93,2.25,1.38.94,2.12-.18,4.19-.87,6.32-1.08,2.25-.22,4.53-.23,6.78,0,1.45.15,4.43.18,5.49,1.25,1.24,1.24,1.93,3.83,2.71,5.41-.1.16-6.66-1.82-7.43-1.95-2.88-.49-5.81-.6-8.71-.33-5.3.49-10.01,2.25-14.06,5.73-.59.42-1.03.98-1.5,1.52-.24.28-.35.47-.21.79-.55-.08-.93.01-.71.71-.05.05-.09.09-.14.14-.06.02-.12.05-.18.07.05.09.12.08.2-.05.05-.05.09-.09.14-.14.18.03.49.11.26.29-.3.25-.22.6-.41.86-.05.15-.14.24-.29.28-.05.04-.1.07-.15.11l-.03.02c-.44.26-.27.43.09.57l.23.16c.06.04.12.09.18.13.05-.01.09,0,.11.05.06.03.12.06.18.09.56.04.93.51,1.45.65Z"/>
    <path class="cls-10" d="M39.98,54.68c-.42-.44-.85-.87-1.27-1.31,0-.13-.03-.24-.19-.25,0,0,0,0,0,0,.47-.31.54.44.91.64.55.29.6.13,1.15.03,1.64-.3.36-.52.22-1.47-.17-.53-.63-.86-.95-1.29-2.83-3.84-3.3-8.05-2.05-12.54.38,1.33.72,2.68,1.45,3.88.08.71-.09,1.57,1.01,1.68.17.02.27.18.27.37,0,.21.05.37.3.4.32.04.39.36.36.53-.07.42.07.61.45.77.26.1.96.35,1.17.28.05,0,.1,0,.15,0,.18.36-.4.38-.17.84.35.7.28-.04.72.24.61.4,1.19,1.91,1.7.68.38.47.73,1,1.56.26-.58,1.09,1.32,1.79,2.1,1.15.06-.31-.59-.37-.18-.75.05,0,.1,0,.14,0,.18.54.37.26.57.02h.29c0,.14,0,.28,0,.42-.15-.04-.26,0-.35.12-.03.08.31.21.35-.13.1,0,.2,0,.3,0,.04,0,.08,0,.12,0,.05.18-.19.35,0,.55.37-.04.33-.65.79-.6.12.18-.16.37.03.54.57-.07.77-.15,1.28-.16.06,0,.42-.25.53-.29.65-.29.63.31,1.05-.55.26.09.12.35.3.45-.41-.25,1.1,0,.87,0-.1-.25-.17-.44-.25-.64.46-.65,1.04-.17,1.57-.16.95.3.41-.55.89-.67.33-.08.15.31.34.4.2-.21.39-.42.33-.74v-.28c.5.21,1.04-.5,1.34.07.18-.13.76-.43.86-.61-.38.07-.6-.21-.9-.31.04-.54,1.12-.26,1.28-1.44h0c.19,0,.29-.09.3-.28.1-.14.19-.28.29-.42.32-.06.52-.25.57-.58h0c.27-.02.41-.16.41-.44.84-1.35,1.61-2.73,1.75-4.37.02-.18.14-.29.29-.38.49,1.51.65,3.06.63,4.64-.03,3.23-.91,6.14-3.06,8.62-.35.4-.81.73-1.03,1.24h.02c-.14-.03-.21.07-.28.15-.43.51-1.18.58-1.59,1.13-.34.03-.24.41-.17.4.11-.1.17-.23.18-.38.82.16-.08.73.28,1.02-1.53-.52-.14.19-.43,1.08-.29.89-2.11,1.37-2.87,1.73-.09.01-.18.03-.28.04-.42-.09-.8.03-1.15.27-.04,0-.09.01-.13.02-.73,0-1.45.1-2.16.26-.09,0-.19.01-.28.02-.67-.18-1.33-.15-2,0-.14,0-.29,0-.43-.01-1.34-.28-2.69-.56-4.03-.84-1.35-.48-2.63-1.13-3.84-1.9-.05-.05-.1-.1-.14-.14,0,0,0,0,0,0-.4-.38-.56-1.05-1.29-1ZM40.7,45.51c-.11-.12-.19-.1-.24.05.05.1.32.14.24-.05ZM49.79,49.79c-.1-.08-.16-.06-.17.07.1.08.16.06.17-.07Z"/>
    <path class="cls-7" d="M37.81,38.49c-1.24,4.5-.77,8.71,2.05,12.54.32.43.77.76.95,1.29-.29-.07-.59-.1-.85-.28-1.31-.85-2.58-1.76-3.62-2.95-3.83-5.06-1.87-13.13,2.06-17.58,3.69-4.19,9.59-6.17,15.08-5.35,5.46.82,10.22,4.35,12.55,9.36,1.54,3.3,2.07,7.49.94,11-.95,2.94-3.48,4.85-6.08,6.29-.1,0-.2.01-.3.02.23-.51.68-.83,1.03-1.24,2.15-2.48,3.03-5.39,3.06-8.62.02-1.58-.14-3.13-.63-4.64.02-.27-.11-.51-.21-.75-2.78-7.06-10.78-10.55-17.9-7.8-4.11,1.59-6.82,4.51-8.14,8.71Z"/>
    <path class="cls-9" d="M78.65,19.97c-.2,7.71-12.05,7.87-12,.04.05-7.81,11.92-7.8,12-.04ZM72.65,16.72c-4.16.05-4.37,6.24-.21,6.51,4.43.29,4.55-6.56.21-6.51Z"/>
    <path class="cls-1" d="M46.1,87.67c.01.77,1.43,1.03,1.38,1.67-.05.62-1.8,1.09-2.2,1.58-5.13-3.65-10.69-4.91-16.8-5.81-.11-.01-.22-.02-.33-.03-.17.06-.34.04-.51-.03-.09-.14-.19-.14-.29,0-.14,0-.29-.01-.43-.02-.04-.07-.09-.07-.14,0-.29,0-.58,0-.87,0-.57-.16-1.14-.19-1.71.01-.1,0-.19,0-.29,0-.24-.19-.48-.2-.72.01l-.06.02s-.06-.02-.06-.02c-.04,0-.07,0-.11,0-.16.01-.32.03-.47.04-.13-.4-.21-.87-.88-.37.47-.78-.04-1.19.17-1.84.06,0,.13-.01.19-.02.23,0,.5.14.67-.15,5.37-.79,10.65-.51,15.81,1.27,1.95.67,3.79,1.56,5.58,2.56.28.18.54.41.9.39.3.39.6.77,1.16.73Z"/>
    <path class="cls-9" d="M90.43,58.31c.02,3.79-8.91-1.28-10.4-1.92-2.15-.92-4.29-1.85-6.44-2.77-1.28-.55-4.22-1.13-4.39-2.83-.22-2.19,2.09-1.66,3.29-1.15,2.21.94,4.41,1.87,6.62,2.81,2.21.94,4.41,1.88,6.62,2.81,1.26.54,4.69,1.27,4.71,3.05Z"/>
    <path class="cls-1" d="M56.64,90.71c-.52-.14-.89-.61-1.45-.65-.06-.03-.12-.06-.18-.09-.03-.04-.06-.06-.12-.05-.06-.04-.12-.09-.18-.13-.08-.05-.15-.11-.23-.16-.12-.18-.15-.36-.09-.57,0,0,.03-.02.03-.02.09.01.13-.03.15-.11.15-.04.25-.13.29-.28.48-.39.96-.78,1.43-1.17.28.02.41-.18.57-.36.33-.16.67-.31.95-.57,2.17-1.16,4.38-2.2,6.74-2.89,4.82-1.41,9.7-1.74,14.65-.89.43.07.82.35,1.28.28-.28.17-.57.32-.83.51-.51.36-.89.79-.61,1.48-.41,0-.82,0-1.23,0-3.53-.11-7.04.12-10.49.94-3.73.89-7.24,2.3-10.37,4.57-.09.07-.21.1-.32.15Z"/>
    <path class="cls-9" d="M13.06,59.9c-.86.02-1.5-.49-1.65-1.18-.18-.85.21-1.58,1.07-1.95,1.4-.6,2.8-1.2,4.21-1.79,4.56-1.92,9.13-3.81,13.66-5.77,1.36-.59,2.37.37,2.4,1.41.02.73-.41,1.25-1.35,1.63-2.08.86-4.17,1.71-6.25,2.59-3.74,1.59-7.47,3.2-11.21,4.79-.32.14-.68.21-.88.27Z"/>
    <path class="cls-9" d="M87.75,28.74c-.12,1.63-2.58,1.99-3.8,2.48-1.93.77-3.86,1.55-5.79,2.32-1.69.68-3.38,1.36-5.07,2.03-1.15.46-4.39,1.6-3.85-1.03.31-1.52,3.05-2.07,4.23-2.55,1.73-.7,3.46-1.4,5.19-2.1,1.51-.61,9.13-5,9.09-1.15Z"/>
    <path class="cls-1" d="M25.04,18.68c.04-.12.08-.24.12-.37.19-.07.19-.22.17-.38.58-1.62,1.85-2.41,3.42-2.79,2.25-.55,4.73.75,5.51,2.86-.4.63-.95.63-1.42,1.06-.25.07-.45.22-.58.45-.04.19-.03.37,0,.55-.29.32-.17.23-.62.44-.18.08-1.04.33-1.25.34-.91.02-2.37-.74-3.16-1.31-.28-.2-.53-.7-.82-.79-.42-.14-1.1.3-1.37-.06Z"/>
    <path class="cls-1" d="M15.84,26.37c.8-2.47,4.21-3.49,6.48-1.94.98.67,1.67,1.54,1.85,2.75-.68.04-.19.39-.7.56-.39.13-.72-.05-1.07.02,0,.24-.09.42-.27.55-.22.02-.4-.04-.57-.2-.46.19-1.03.41-1.52.66-.05,0-.09,0-.14,0-.05-.38-.44-.44-.62-.39-.35.1-.55-.13-.82-.18-.71-.29-.49.13-.34.41-.6.52-.35-.58-.86-.37-.28.12-.15-.7-.69-.28.31-.71.24-.97,0-.83-.61.35-.64-.21-.88-.46,0,0,0-.04,0-.04.11-.06.15-.14.13-.27Z"/>
    <path class="cls-12" d="M49.43,67.18c0-1.36-.65-4.84,1.49-4.87,2.13-.03,1.52,3.26,1.52,4.58,0,1.38.75,4.95-1.28,5.25-2.41.36-1.74-3.6-1.74-4.95h0Z"/>
    <path class="cls-9" d="M66.37,55.8c1.71.37,3.9,1.54,5.38,2.42.8.48,1.62,1.04,1.26,2.1-.28.81-1.05,1.1-1.84,1-1.69-.21-4.11-1.55-5.55-2.43-1.49-.91-1.31-3.19.75-3.1Z"/>
    <path class="cls-14" d="M37.14,57.36c.03,1.75-3.04,2.38-4.3,2.94-.85.38-2.22,1.31-3.2.95-.73-.27-1.09-1.1-.87-1.83.45-1.44,3.42-2.19,4.67-2.77,1.19-.55,3.7-1.64,3.7.71Z"/>
    <path class="cls-10" d="M18.86,42.4c.97-.54,2.39-.57,3.25-1.19.79-.57,1.03-2.56,1.45-3.42.87.99.51,2.54,1.63,3.41.59.45,3.05.4,2.55,1.45-.18.38-1.43.35-1.77.47-.59.21-1.02.49-1.37,1.02-.57.87-.2,2.11-1.08,2.75-.49-.97-.68-2.68-1.52-3.35-.7-.56-2.31-.83-3.15-1.15Z"/>
    <path class="cls-9" d="M62.62,17.61c.12.75-.79,2.05-1.09,2.7-.41.89-.76,1.93-1.29,2.75-.91,1.4-3.07,1.41-2.93-.66.11-1.57,1.56-4.32,2.43-5.62.92-1.38,2.91-1.06,2.88.83Z"/>
    <path class="cls-9" d="M78.13,37.82c.49.88.67,2.77,1.43,3.37.45.35,3.21.6,2.61,1.4-.63.83-2.38.47-3.03,1.52-.22.36-.53,3.07-1.09,2.81-.7-.33-.59-2.6-1.15-3.17-.61-.63-2.61-.48-3.05-1.18-.52-.82,2.05-.91,2.57-1.21,1.22-.7,1.1-2.3,1.72-3.53Z"/>
    <path class="cls-4" d="M86.59,44.43s.02-.09.03-.14c.01-.06.02-.13.04-.19.32-.86.81.85.9,1.12.31.96.27,1.52,1.16,2.01.31.17,2.63.45,2.54.94-.08.45-1.99.76-2.34.92-1.04.48-1.04.9-1.37,2.05-.23.78-.23,1.6-.92,1.23-.59-.32-.4-2.32-.95-2.87-.71-.71-2.31-.74-3.18-1.32.22-.42.66-.37,1.01-.49.81-.1,1.62-.16,2.31-.68,0,0,.03-.04.03-.04.3-.23.45-.5.26-.87.02-.09.04-.19.06-.28.16-.06.26-.14.08-.29.06-.24.13-.47.19-.71.21-.07.22-.21.16-.39Z"/>
    <path class="cls-9" d="M44.54,22.65c.02,1.22-1.37,2.07-2.39,1.4-.9-.59-2.31-3.63-2.4-4.68-.12-1.4,1.39-2.19,2.44-1.29,1.05.9,2.04,3.25,2.35,4.57Z"/>
    <path class="cls-9" d="M32.68,34.78c-.01,3.2-6.25.26-6.42-1.48-.34-3.42,6.62-.6,6.42,1.48Z"/>
    <path class="cls-9" d="M43.31,60.15c3,.14-.26,6.85-2.38,6.3-2.7-.7.46-6.43,2.38-6.3Z"/>
    <path class="cls-10" d="M24.06,29.61c-.4,1.58-1.72,2.69-3.54,2.97-1.91.29-3.52-.46-4.49-2.08.4-.28.14-.95.21-.98.34-.15.43.2.74.18.42-.02.9-.29,1.43-.16.61.15.51.34.93.75.48-.59,1.04-.63,1.65-.32.04-.25-.17-.33-.22-.48.14.05.28.1.42.14.12.2.28.35.52.21.31-.18.16-.51.21-.78.09,0,.18,0,.27,0,.18.75.48.49.76.06.26.29-.07.6.06.87.44.03.52-.75,1.04-.38Z"/>
    <path class="cls-10" d="M34.16,22.03c-.72,1.89-2.21,2.76-4.13,2.84-1.86.09-3.46-.52-4.44-2.25.71,0,.6-.75,1.39-.35.33.17-.09.44-.11.42.23.21-.08.3.51.3.41,0,.47-.31.86-.39,1.06-.22,2.38.03,3.46-.37.37-.13.84-.57,1.18-.6.47-.04.8.44,1.27.39Z"/>
    <path class="cls-6" d="M20.2,85.34c-1.71.31-3.44.57-5.13.98-1.4.35-3.13,1.39-4.51,1.39.15-1.37,3.05-2.29,4.08-2.75,1.82-.8,3.74-1.4,5.69-1.77-.09.19-.4.14-.43.38.68.41.94-.15.63.82-.15.47-.86.4-.34.93Z"/>
    <path class="cls-9" d="M14.75,45.26c.4.06.72,1.66,1.09,2.02.4.39,2.12.68,2.12,1.14,0,.43-1.77.82-2.16,1.24-.29.31-.82,2.06-1.02,2.04-.26-.03-.74-1.72-1.02-2.03-.35-.38-2.18-.88-2.21-1.31-.02-.39,1.6-.69,1.84-.84.74-.48.77-2,1.37-2.26Z"/>
    <path class="cls-6" d="M34.16,22.03c-.47.05-.8-.43-1.27-.39-.33.03-.81.46-1.18.6-1.08.39-2.4.15-3.46.37-.39.08-.45.39-.86.39-.6,0-.28-.09-.51-.3.02.02.44-.26.11-.42-.8-.4-.68.36-1.39.35-.63-.98-.92-2.04-.69-3.21.15.17-.06.47.08.68.03.05.37-.03.47.05.49.36.93.49,1.48.7.31.12.28.59.68.6.24,0,.42-.49.69-.51.18-.01,1.3.57,1.38.74.49-.47,1.87,0,2.56-.39.34-.19.52-.67.72-.79.21-.12.65.08.78-.17-.09-.32-.43-.19-.66-.35.53-.36.99-.72,1.53-.11.08.77-.09,1.48-.44,2.16Z"/>
    <path class="cls-10" d="M82.36,83.49c1.85.43,3.67,1.02,5.4,1.82,1.21.56,2.72,1.09,3.28,2.38-1.53-.07-3.2-1.05-4.7-1.41-1.74-.4-3.52-.58-5.26-.97.59-.29,1.33.37,1.8-.18.4-.47-.08-1.4-.51-1.65Z"/>
    <path class="cls-8" d="M34.6,19.87c-.53-.62-.99-.25-1.53.11.24.17.58.03.66.35-.13.25-.57.05-.78.17-.21.12-.39.6-.72.79-.68.39-2.07-.08-2.56.39-.08-.16-1.2-.75-1.38-.74-.27.02-.45.52-.69.51-.4-.01-.37-.48-.68-.6-.54-.21-.99-.35-1.48-.7-.11-.08-.44,0-.47-.05-.14-.21.07-.51-.08-.68,0-.25-.02-.51.14-.73.27.36.96-.08,1.37.06.29.1.54.59.82.79.79.57,2.26,1.33,3.16,1.31.21,0,1.07-.25,1.25-.34.45-.21.33-.13.62-.44-.04-.18-.04-.37,0-.55.13-.23.33-.38.58-.45.47-.43,1.02-.43,1.42-1.06.23.42.31.88.29,1.36,0,.11,0,.22,0,.33.02.04.05.07.06.11,0,.02,0,.04-.01.06ZM32.28,20.83s-.07-.02-.1-.03c0,.02.01.04.02.05.02,0,.04-.01.08-.02Z"/>
    <path class="cls-9" d="M40.13,11.51c.61-.53,1.54-.51,2.08-1.06.2-.21.45-1.61.8-1.54.35.07.72,1.49,1.19,1.8.52.36,1.65.24,1.25,1-.2.38-1.25.43-1.61.8-.31.32-.43,1.49-.75,1.59-.48.14-.54-1.03-.84-1.4-.51-.65-1.41-.85-2.13-1.19Z"/>
    <path class="cls-2" d="M60.58,52.83c.1,0,.2-.01.3-.02.37.26.39,1.42.56,1.48.31.12.48-.27.27.4-.14.44-1.39,1.11-1.78,1.36-1.2.8-2.77,1.72-4.23,1.89.77-.36,2.58-.85,2.87-1.73.29-.89-1.1-1.6.43-1.08-.36-.28.54-.86-.28-1.02h-.01c.41-.56,1.16-.63,1.59-1.14.09-.05.19-.11.28-.16,0,0-.02,0-.02,0ZM61.23,53.32c-.13-.06-.18-.03-.07.08.02-.03.04-.05.07-.08Z"/>
    <path class="cls-2" d="M36.33,49.1c1.04,1.19,2.31,2.1,3.62,2.95.27.17.56.21.85.28.14.96,1.42,1.17-.22,1.47-.55.1-.6.26-1.15-.03-.38-.2-.44-.95-.91-.64-.76-.39-2.69-4.04-2.19-4.03ZM40.35,52.67c-.39-.16-1.23-.27-1.46.05.48.07.97.55,1.46-.05Z"/>
    <path class="cls-6" d="M20.77,29.5c.05.16.25.23.22.48-.61-.31-1.17-.27-1.65.32-.42-.4-.32-.6-.93-.75-.54-.13-1.02.13-1.43.16-.31.02-.4-.33-.74-.18-.07.03.18.7-.21.98-.74-1.22-.78-2.51-.32-3.83.24.25.27.82.88.46.24-.14.31.12,0,.83.54-.42.41.4.69.28.51-.21.26.89.86.37-.15-.28-.37-.7.34-.41.06.34.11.68.18,1.08.31-.56.95-.05,1.25-.51.05,0,.09,0,.14,0,.1.38.43.54.72.72Z"/>
    <path class="cls-4" d="M59.71,62.24c1.91.01,2.02,3.03.09,3.08-1.97.06-2.08-3.1-.09-3.08Z"/>
    <path class="cls-1" d="M14.51,38.98c-1.87-.1-1.67-3.02.22-2.93,1.98.1,1.77,3.03-.22,2.93Z"/>
    <path class="cls-1" d="M85.8,37.55c.03-1.81,2.7-2.01,2.9-.2.21,1.92-2.93,2.26-2.9.2Z"/>
    <path class="cls-4" d="M67.21,30.2c-1.52.02-1.83-2.11-.42-2.58,1.84-.61,2.5,2.56.42,2.58Z"/>
    <path class="cls-9" d="M34.68,30.08c-1.45.01-1.79-2.2-.33-2.53,1.74-.39,2.16,2.51.33,2.53Z"/>
    <path class="cls-3" d="M66.32,75.43c-.45,1.31-1.4-.33-1.38-.94.03-1.04.97-1.36,1.81-1.76-.19.12.46.7-.28.51-.05.44.38.7.72.92-.1.23-.2.46-.04.7-.22.28-.81,0-.83.56Z"/>
    <path class="cls-9" d="M34.81,13.2c-1.53-.04-1.38-2.39.12-2.32,1.53.07,1.4,2.36-.12,2.32Z"/>
    <path class="cls-3" d="M35.82,75.63c-.15,0-.05-.85-.44-.13-.02.03-.29-.07-.45-.11,0-.16-.05-.37.03-.47.37-.49.01-.45-.3-.45-.88-.09-.06-.63-.26-1.06-.42-.9-.18-.2-.77-.3.25-.53,1.08-.19,1.18-.52.66.25,1.25.62,1.85,1.01-.16.26-.62.28-.49.69-.16.11-.3.21-.18.45.17.34.03.63-.18.9Z"/>
    <path class="cls-9" d="M65.29,10.89c1.53.02,1.49,2.36-.03,2.33-1.49-.03-1.42-2.35.03-2.33Z"/>
    <path class="cls-3" d="M50.28,89.78c-.35.1-.23-.48-.71-.41-.32.04-.53-.56-.28-1.02.35-.18.8.19,1.21.09.37-.09.87-.49,1.17-.73,0,.12,0,.23,0,.35-.1-.02-.19,0-.28.03-.17.23.68.83.94.78-.08.01.21-.6.35-.7.16.39-.04.88-.32,1.17-.72.75-.06-.03-.65.3-.25.14-1.48.31-1.6.47M51.06,88.65c-.1-.05-.19-.06-.29-.01,0,0,.16.23.29.01Z"/>
    <path class="cls-9" d="M14.66,62.94c1.47-.02,1.55,2.3.04,2.29-1.44,0-1.47-2.28-.04-2.29Z"/>
    <path class="cls-9" d="M87.09,62.96c1.46-.04,1.49,2.24.04,2.28-1.45.04-1.46-2.25-.04-2.28Z"/>
    <path class="cls-9" d="M58.7,10.85c-1.54-.01-1.31-2.42.18-2.15,1.28.23,1.15,2.16-.18,2.15Z"/>
    <path class="cls-8" d="M20.77,29.5c-.3-.18-.62-.34-.72-.72.49-.24,1.05-.47,1.52-.66.16.15.35.22.57.2.18-.13.27-.31.27-.55.35-.07.67.11,1.07-.02.5-.17.01-.52.7-.56.02.09.04.18.06.27,0,.05.01.09.02.14.07.24.12.49.03.74-.21-.01-.18.34-.31.29-.72-.32-1.24.07-1.77.45-.09,0-.18,0-.27,0-.46-.09-.72.09-.73.57-.14-.05-.28-.1-.42-.14Z"/>
    <path class="cls-6" d="M82.36,83.49c.43.24.91,1.18.51,1.65-.46.55-1.21-.11-1.8.18-.19-.03-.39-.06-.58-.08,0-.18.34-1.13.4-1.2.27-.33.02-.28.43-.5.26-.14.64.25.89-.05.05,0,.1,0,.15.01Z"/>
    <path class="cls-8" d="M20.2,85.34c-.52-.54.19-.46.34-.93.31-.97.04-.41-.63-.82.03-.24.35-.19.43-.38.47-.16.94-.3,1.44-.3-.2.65.3,1.06-.17,1.84.67-.5.76-.03.88.37-.42.11-.85.12-1.28.09-.09,0-.18.01-.26.02-.11.02-.22.04-.33.06-.05,0-.09,0-.14,0-.09.01-.19.03-.28.04Z"/>
    <path class="cls-8" d="M82.21,83.48c-.25.3-.63-.09-.89.05-.41.22-.16.18-.43.5-.06.07-.39,1.02-.4,1.2-.48-.03-.95-.07-1.43-.1,0-.03,0-.06-.01-.09-.29-.69.1-1.12.61-1.48.26-.19.56-.34.83-.51.57.14,1.14.28,1.72.42Z"/>
    <path class="cls-15" d="M44.94,86.94c-.36.01-.63-.21-.9-.39.24-.39-.45-.69-.41-1.12.06-.59.6-.35.81-.95.46.13.6.55.79.91-.56.43-.32,1.01-.29,1.55Z"/>
    <path class="cls-3" d="M56.87,87.13c-.15.18-.29.38-.57.36-.56.07-.59-.3-.59-.71-.14-.32-.03-.52.21-.79.47-.54.91-1.1,1.5-1.52.07.28-.05.51-.18.74-.28.03-.27.28-.21.43.1.26.27,0,.41,0-.09.25-.18.5-.27.75-.2-.1-.16-.47-.48-.43-.16.43-.22.84.19,1.18Z"/>
    <path class="cls-6" d="M22.2,29.07c.53-.38,1.05-.77,1.77-.45.13.06.1-.3.31-.29-.02.44,0,.88-.22,1.28-.52-.36-.6.41-1.04.38-.13-.26.2-.58-.06-.87-.28.43-.58.69-.76-.06Z"/>
    <path class="cls-9" d="M11.67,41.93c-.26.32-.4.86-.88.58-.28-.16-.42-.5-.29-.82.34-.89.81.15,1.18.23Z"/>
    <path class="cls-9" d="M91.52,41.11c-.22.55-1.02.92-1.1.04-.09-.93.87-.61,1.1-.04Z"/>
    <path class="cls-15" d="M56.87,87.13c-.41-.34-.35-.75-.19-1.18.33-.04.28.34.48.43.35.42.35-.41.72-.46.08.23-.3.43-.07.64-.28.26-.62.41-.95.57Z"/>
    <path class="cls-9" d="M46.3,68.11c-.15-.38-1-.72-.24-1.16,1.02-.59.39.9.24,1.16Z"/>
    <path class="cls-9" d="M37.1,63.02c-.33-.22-.7-1.08.05-1.07.72.01.33.9-.05,1.07Z"/>
    <path class="cls-2" d="M45.25,57.72c1.34.28,2.69.56,4.03.84-1.4-.02-2.76-.23-4.03-.84Z"/>
    <path class="cls-15" d="M52.66,88.17c-.14.09-.42.71-.35.7-.26.05-1.11-.55-.94-.78.09-.04.19-.05.28-.03.14,0,.28.25.29.16.08-.55.43-.29.7-.28,0,.08.01.16.02.24Z"/>
    <path class="cls-15" d="M34.66,74.47c.32,0,.67-.04.3.45-.08.11-.03.31-.03.47-.37-.1-.74-.2-1.11-.3,0-.07,0-.13-.01-.2h0c.27-.18.74.07.85-.42Z"/>
    <path class="cls-9" d="M10.16,52.52c.6.14.44.64-.05.81-.32.11-.54-.79.05-.81Z"/>
    <path class="cls-9" d="M55.89,17.25c-.05.53-.83.65-.88.05-.05-.63.74-.59.88-.05Z"/>
    <path class="cls-14" d="M85.82,47.02c-.68.52-1.5.57-2.31.68.72-.38,1.52-.51,2.31-.68Z"/>
    <path class="cls-9" d="M84.21,24.02c-.04.68-.97.39-.84.07.15-.34.77-.76.84-.07Z"/>
    <path class="cls-9" d="M64.14,26.31c-.75-.04-.06-.64-.06-.68,0,.02.86.49.06.68Z"/>
    <path class="cls-2" d="M49.71,58.57c.67-.16,1.33-.19,2,0-.67.17-1.33.17-2,0Z"/>
    <path class="cls-2" d="M39.98,54.68c.72-.04.89.63,1.29,1-.58-.15-.87-.65-1.29-1Z"/>
    <path class="cls-9" d="M65.59,62.7c-.03.7-.59.01-.64.01.07,0,.49-.71.64-.01Z"/>
    <path class="cls-9" d="M91.52,53.13c.73.2-.04.54-.04.6,0-.15-.55-.42.04-.6Z"/>
    <path class="cls-2" d="M51.99,58.55c.71-.16,1.43-.26,2.16-.26-.7.29-1.43.31-2.16.26Z"/>
    <path class="cls-15" d="M57.43,85.62c-.14.01-.31.26-.41,0-.06-.15-.07-.39.21-.43.17.03.41-.05.46.19.04.19-.12.22-.27.23Z"/>
    <path class="cls-13" d="M67.14,74.87c-.16-.24-.06-.47.04-.7.05,0,.1,0,.14,0,0,.12.02.23.15.28h.16s-.01-.02-.01-.02c0,.32.07.72-.48.44Z"/>
    <path class="cls-2" d="M54.28,58.27c.35-.23.73-.35,1.15-.27-.35.25-.74.31-1.15.27Z"/>
    <path class="cls-14" d="M86.11,46.11c.19.37.04.64-.26.87,0-.32.09-.61.26-.87Z"/>
    <path class="cls-8" d="M24.21,85.04c.57-.21,1.14-.18,1.71-.01-.57.07-1.14.06-1.71.01Z"/>
    <path class="cls-6" d="M79.05,85.04s.01.06.01.09c-.42.05-.84.03-1.25-.09.41,0,.82,0,1.23,0Z"/>
    <path class="cls-8" d="M23.2,85.06c.24-.21.48-.2.72-.01-.24.06-.48.08-.72.01Z"/>
    <path class="cls-8" d="M22.64,82.73c-.17.29-.44.14-.67.15.2-.17.44-.14.67-.15Z"/>
    <path class="cls-14" d="M86.59,44.43c.07.18.06.32-.16.39-.05-.17.03-.29.16-.39Z"/>
    <path class="cls-14" d="M86.24,45.53c.18.15.08.23-.08.29-.05-.12-.03-.22.08-.29Z"/>
    <path class="cls-8" d="M25.33,17.94c.02.16.02.31-.17.38-.03-.16.02-.29.17-.38Z"/>
    <path class="cls-2" d="M38.52,53.12c.16,0,.19.12.19.25-.15-.02-.19-.12-.19-.25Z"/>
    <path class="cls-3" d="M67.47,74.46c-.13-.05-.15-.16-.15-.28.13.05.15.16.15.28Z"/>
    <path class="cls-8" d="M27.36,85.05c.1-.14.19-.14.29,0-.1,0-.19,0-.29,0Z"/>
    <path class="cls-8" d="M28.15,85.08c.11.01.22.02.33.03-.12.05-.22.04-.33-.03Z"/>
    <path class="cls-6" d="M20.95,85.23c.09,0,.18-.01.26-.02-.08.06-.17.09-.26.02Z"/>
    <path class="cls-6" d="M20.49,85.29s.09,0,.14,0c-.05,0-.09,0-.14,0Z"/>
    <path class="cls-6" d="M15.84,26.37c.02.12-.02.21-.13.27,0-.11.03-.2.13-.27Z"/>
    <path class="cls-2" d="M41.27,55.68s.1.1.14.14c-.05-.05-.1-.1-.14-.14Z"/>
    <path class="cls-6" d="M24.24,27.59s-.01-.09-.02-.14c.02.03.04.06.05.1,0,.01-.02.03-.03.04Z"/>
    <path class="cls-6" d="M34.55,19.7c0-.11,0-.22,0-.33.12.11.13.22,0,.33Z"/>
    <path class="cls-8" d="M22.97,85.07s.07-.01.11,0c0,0-.05.04-.05.04l-.05-.03Z"/>
    <path class="cls-8" d="M26.79,85.03c.05-.07.1-.06.14,0-.05,0-.09,0-.14,0Z"/>
    <path class="cls-14" d="M86.66,44.11c-.01.06-.02.13-.04.19-.05-.07-.04-.14.04-.19Z"/>
    <path class="cls-15" d="M52.7,77.91s.02.07,0,.11c-.01-.03-.03-.05-.04-.08,0,0,.03-.02.04-.02Z"/>
    <polygon class="cls-3" points="67.63 74.44 67.65 74.41 67.62 74.44 67.63 74.44"/>
    <path class="cls-15" d="M33.8,74.89s-.04-.05-.06-.07c.02.02.04.04.06.06,0,0,0,0,0,0Z"/>
    <path class="cls-3" d="M44.94,86.94c-.03-.54-.27-1.12.29-1.55.48.19.51.76.89,1.05.15.11.22.27.43.2h0c-.41.23-.28.7-.46,1.03-.56.04-.86-.34-1.16-.73Z"/>
    <path class="cls-7" d="M55.71,86.78c0,.4.03.78.59.71-.48.39-.96.78-1.43,1.17.19-.26.11-.61.41-.86.23-.19-.09-.26-.26-.29,0,0-.02-.02-.02-.02-.22-.7.17-.78.72-.71ZM55.2,87.1c.1.08.15.06.17-.07-.1-.08-.15-.06-.17.07Z"/>
    <path class="cls-9" d="M35.82,75.63c.21-.27.35-.56.18-.9-.12-.24.02-.34.18-.45.46.39.69.03.46.9-.13.49-.32.76-.82.45ZM36.34,74.72s-.03-.03-.05-.05c-.09.07-.09.13-.01.17.02-.04.04-.08.06-.11Z"/>
    <path class="cls-7" d="M54.4,89.06c-.06.2-.03.39.09.57-.36-.14-.53-.3-.09-.57Z"/>
    <path class="cls-7" d="M54.87,87.64c-.09.13-.15.14-.2.05.06-.02.12-.05.18-.07l.02.02Z"/>
    <polygon class="cls-3" points="46.55 86.64 46.57 86.61 46.56 86.63 46.55 86.64"/>
    <path class="cls-7" d="M54.85,87.62s.09-.09.14-.14c0,0,.02.02.02.02-.05.05-.09.09-.14.14,0,0-.02-.02-.02-.02Z"/>
    <path class="cls-7" d="M54.57,88.93c-.01.08-.06.12-.15.11.05-.04.1-.07.15-.11Z"/>
    <path class="cls-7" d="M54.72,89.78c.06.04.12.09.18.13-.06-.04-.12-.09-.18-.13Z"/>
    <path class="cls-7" d="M55.01,89.96c.06.03.12.06.18.09-.06-.03-.12-.06-.18-.09Z"/>
    <path class="cls-5" d="M37.81,38.49c1.32-4.2,4.03-7.12,8.14-8.71,7.12-2.75,15.12.74,17.9,7.8.1.24.22.48.21.75-.15.09-.27.2-.29.38-.14,1.63-.91,3.02-1.75,4.37-.27.02-.41.16-.41.44,0,0,0,0,0,0-.35.04-.55.22-.57.58-.1.14-.19.28-.29.42-.19,0-.29.09-.3.28,0,0,0,0,0,0-1.53.31-2.9,1.49-4.41,2.06-1.36.51-2.75.81-4.2.91-1.41.1-2.97.21-4.36-.19-1.23-.35-2.57-1.54-3.93-1.35-.14-.32-.56-.28-.72-.57-.18-.37-.35-.75-.87-.71-.14-.05-.28-.1-.42-.16-.02-.28-.22-.29-.42-.29-.15-.18-.33-.32-.49-.49-.5-.53-.8-1.2-1.38-1.66-.73-1.2-1.07-2.55-1.45-3.88Z"/>
    <path class="cls-8" d="M43.54,46.24c1.35-.19,2.7,1,3.93,1.35,1.39.4,2.94.29,4.36.19,1.45-.1,2.84-.4,4.2-.91,1.51-.57,2.88-1.75,4.41-2.06-.16,1.18-1.24.9-1.28,1.44-.46.19-.93.37-1.38.58-.28.13-.13.23.07.27,0,.09,0,.18,0,.28-.7-.16-1.35-.05-1.93.43.12.19.24.39.36.58-.53,0-1.11-.49-1.57.16-.74-.58-1.61.09-2.39.13-.21.01-1.87-.07-1.98-.16-.02.5-.43.21-.65.32-.1,0-.19,0-.29,0-.18-.42-.15-.88-.57-.02-.05,0-.1,0-.14,0-.42-.11-.84-.23-1.15-.57.01-.02.02-.04.03-.06-.01.02-.02.04-.03.06-.7-.15-1.43-.26-2.11-.45-.02-.14.05-.25.19-.33-.15-.61-1.99-.38-2.08-1.22Z"/>
    <path class="cls-6" d="M43.54,46.24c.1.84,1.94.61,2.08,1.22-.14.08-.2.19-.19.33.69.19,1.42.3,2.11.45,0,0,0,0,0,0,.31.34.72.46,1.15.57-.42.38.24.45.18.75-.78.64-2.67-.06-2.1-1.15-.83.73-1.18.2-1.56-.26-.51,1.23-1.09-.28-1.7-.68-.44-.28-.37.46-.72-.24-.23-.46.36-.48.17-.84-.02-.06-.03-.16-.05-.16-.12-.01-.08.1-.1.16-.22.07-.91-.18-1.17-.28-.39-.15-.52-.34-.45-.77.03-.17-.04-.49-.36-.53-.25-.03-.3-.19-.3-.4,0-.19-.1-.35-.27-.37-1.1-.11-.93-.96-1.01-1.68.58.45.88,1.13,1.38,1.66.16.17.34.31.49.49.07.2.22.29.43.29.14.05.28.1.42.16-.03.63.49.58.87.71.16.29.58.25.72.57Z"/>
    <path class="cls-6" d="M49.7,48.83c.21-.11.63.18.65-.32.11.09,1.77.18,1.98.16.78-.04,1.65-.71,2.39-.13.08.19.15.39.25.64.23,0-1.28-.25-.87,0-.18-.11-.04-.37-.3-.45-.42.85-.4.26-1.05.55-.11.05-.47.29-.53.29-.51.01-.7.09-1.28.16-.19-.18.09-.36-.03-.54-.45-.06-.41.56-.79.6-.18-.2.06-.37,0-.55-.04-.06-.09-.06-.12,0-.1,0-.2,0-.3,0h0c0-.14,0-.28,0-.42Z"/>
    <path class="cls-6" d="M56.29,48.38c-.12-.19-.24-.39-.36-.58.58-.48,1.22-.59,1.93-.43.06.32-.13.53-.33.74-.19-.1-.01-.48-.34-.4-.48.12.06.97-.89.67Z"/>
    <path class="cls-6" d="M57.85,47.1c-.2-.05-.35-.14-.07-.27.45-.22.92-.39,1.38-.58.3.1.52.38.9.31-.11.18-.69.48-.86.61-.3-.57-.84.15-1.34-.07Z"/>
    <path class="cls-6" d="M48.84,48.82c.42-.86.39-.4.57.02-.2.25-.4.53-.57-.02Z"/>
    <path class="cls-8" d="M61.03,44.11c.02-.36.22-.54.57-.58-.05.33-.25.52-.57.58Z"/>
    <path class="cls-8" d="M61.6,43.53c0-.28.15-.42.41-.44,0,.28-.14.42-.41.44Z"/>
    <path class="cls-6" d="M49.7,49.25c-.05.33-.38.2-.35.13.09-.12.21-.16.35-.12,0,0,0,0,0,0Z"/>
    <path class="cls-6" d="M40.7,45.51c.07.19-.19.15-.24.05.05-.15.13-.17.24-.05Z"/>
    <path class="cls-2" d="M58.73,54.13c0,.15-.07.28-.18.38-.06.02-.17-.37.17-.4,0,0,.01.01.01.01Z"/>
    <path class="cls-6" d="M49.79,49.79c-.02.13-.07.15-.17.07.02-.13.07-.15.17-.07Z"/>
    <path class="cls-8" d="M60.44,44.8c.01-.19.11-.28.3-.28,0,.19-.11.28-.3.28Z"/>
    <path class="cls-8" d="M42.82,46.39c.02-.06-.02-.18.1-.16.02,0,.03.11.05.16-.05,0-.1,0-.15,0Z"/>
    <path class="cls-7" d="M60.6,52.83c-.09.05-.19.11-.28.16.08-.08.14-.19.28-.16Z"/>
    <path class="cls-8" d="M50,49.24c.04-.07.08-.07.12,0-.04,0-.08,0-.12,0Z"/>
    <path class="cls-13" d="M72.65,16.72c4.34-.05,4.22,6.8-.21,6.51-4.16-.27-3.95-6.47.21-6.51Z"/>
    <path class="cls-8" d="M19.91,28.77c-.3.46-.94-.05-1.25.51-.07-.41-.13-.74-.18-1.08.27.06.47.28.82.18.18-.05.57,0,.62.39Z"/>
    <path class="cls-6" d="M21.2,29.64c0-.49.26-.66.73-.57-.04.27.1.6-.21.78-.24.14-.4,0-.52-.21Z"/>
    <path class="cls-6" d="M32.28,20.83s-.06.02-.08.02c0-.02-.01-.04-.02-.05.03,0,.05.02.1.03Z"/>
    <path class="cls-16" d="M61.23,53.32s-.04.05-.07.08c-.12-.11-.07-.14.07-.08Z"/>
    <path class="cls-10" d="M40.35,52.67c-.49.6-.98.12-1.46.05.23-.32,1.06-.21,1.46-.05Z"/>
    <path class="cls-16" d="M51.06,88.65c-.13.22-.28-.02-.29-.01.09-.04.19-.04.29.01Z"/>
    <path class="cls-12" d="M55.2,87.1c.02-.13.07-.15.17-.07-.02.13-.07.15-.17.07Z"/>
    <path class="cls-3" d="M36.34,74.72s-.04.08-.06.11c-.08-.04-.08-.09.01-.17.02.02.03.03.05.05Z"/>
    <path class="cls-8" d="M42.83,45.67c-.38-.13-.9-.08-.87-.71.51-.04.69.33.87.71Z"/>
    <path class="cls-8" d="M41.54,44.81c-.21,0-.35-.09-.43-.29.21,0,.41,0,.43.29Z"/>
    <path class="cls-6" d="M47.56,48.25s.02-.04.03-.06c-.01.02-.02.04-.03.06,0,0,0,0,0,0Z"/>
  </g>
</svg>